<?xml version="1.0" encoding="UTF-8"?>
<svg width="180px" height="180px" viewBox="0 0 180 180" version="1.1" xmlns="http://www.w3.org/2000/svg" xmlns:xlink="http://www.w3.org/1999/xlink">
    <title>编组 3</title>
    <g id="前端网页" stroke="none" stroke-width="1" fill="none" fill-rule="evenodd">
        <g id="充值金额" transform="translate(-330.000000, -475.000000)">
            <g id="编组-3" transform="translate(330.000000, 475.000000)">
                <rect id="矩形" fill="#FFFFFF" opacity="0" x="0" y="0" width="180" height="180"></rect>
                <path d="M90,30 C56.862915,30 30,56.862915 30,90 C30,90.7095784 30.0123176,91.4162798 30.0367506,92.1199022 M34.9860325,113.985137 C44.2413171,135.183932 65.3904195,150 90,150 C107.784688,150 123.762118,142.262208 134.74937,129.969545 M147.558313,106.997744 C149.147291,101.608617 150,95.9038889 150,90 C150,63.896506 133.330529,41.6863756 110.055871,33.4338931" id="形状" stroke="#262626" stroke-width="4" stroke-linecap="round" stroke-linejoin="round"></path>
                <circle id="椭圆形" stroke="#262626" stroke-width="2" fill="#D65928" cx="90" cy="33" r="9"></circle>
                <circle id="椭圆形备份" stroke="#262626" stroke-width="2" fill="#D65928" cx="36" cy="110" r="9"></circle>
                <polygon id="Fill-1" fill="#262626" points="97.5533091 60 72 93.9959564 84.9672393 93.9959564 81.8299206 120 107.38323 85.9867961 94.3987428 85.9867961"></polygon>
                <circle id="椭圆形备份-2" stroke="#262626" stroke-width="2" fill="#D65928" cx="144" cy="110" r="9"></circle>
            </g>
        </g>
    </g>
</svg>