<?xml version="1.0" encoding="UTF-8"?>
<svg width="180px" height="180px" viewBox="0 0 180 180" version="1.1" xmlns="http://www.w3.org/2000/svg" xmlns:xlink="http://www.w3.org/1999/xlink">
    <title>编组 5</title>
    <g id="前端网页" stroke="none" stroke-width="1" fill="none" fill-rule="evenodd">
        <g id="充值金额" transform="translate(-1050.000000, -475.000000)">
            <g id="编组-5" transform="translate(1050.000000, 475.000000)">
                <rect id="矩形备份-8" fill="#FFFFFF" opacity="0" x="0" y="0" width="180" height="180"></rect>
                <rect id="矩形" stroke="#262626" stroke-width="4" x="40" y="38" width="38" height="38" rx="4"></rect>
                <path d="M119,34 C124.79899,34 130.04899,36.3505051 133.849242,40.1507576 C137.649495,43.9510101 140,49.2010101 140,55 L140,55 L140,74 C140,74.5522847 139.776142,75.0522847 139.414214,75.4142136 C139.052285,75.7761424 138.552285,76 138,76 L138,76 L100,76 C99.4477153,76 98.9477153,75.7761424 98.5857864,75.4142136 C98.2238576,75.0522847 98,74.5522847 98,74 L98,74 L98,36 C98,35.4477153 98.2238576,34.9477153 98.5857864,34.5857864 C98.9477153,34.2238576 99.4477153,34 100,34 L100,34 Z" id="矩形备份-10" stroke="#262626" stroke-width="4"></path>
                <rect id="矩形备份-9" stroke="#262626" stroke-width="4" x="40" y="96" width="38" height="38" rx="4"></rect>
                <rect id="矩形备份-11" stroke="#262626" stroke-width="4" x="98" y="96" width="38" height="38" rx="4"></rect>
                <circle id="椭圆形备份-3" stroke="#262626" stroke-width="2" fill="#D65928" cx="119" cy="55" r="9"></circle>
                <circle id="椭圆形备份-4" fill="#262626" cx="59" cy="115" r="8"></circle>
            </g>
        </g>
    </g>
</svg>