<?xml version="1.0" encoding="UTF-8"?>
<svg width="180px" height="180px" viewBox="0 0 180 180" version="1.1" xmlns="http://www.w3.org/2000/svg" xmlns:xlink="http://www.w3.org/1999/xlink">
    <title>编组 4</title>
    <g id="前端网页" stroke="none" stroke-width="1" fill="none" fill-rule="evenodd">
        <g id="充值金额" transform="translate(-690.000000, -475.000000)">
            <g id="编组-4" transform="translate(690.000000, 475.000000)">
                <rect id="矩形备份-5" fill="#FFFFFF" opacity="0" x="0" y="0" width="180" height="180"></rect>
                <g id="编组-2" transform="translate(81.000000, 23.000000)">
                    <line x1="9.5" y1="84" x2="9.5" y2="18" id="路径-2" stroke="#262626" stroke-width="4" stroke-linecap="round" stroke-linejoin="round"></line>
                    <path d="M11.2687695,3.35135275 L17.4517548,15.0664828 C17.9673221,16.0433472 17.5933669,17.2532022 16.6165025,17.7687695 C16.3287696,17.9206285 16.0083334,18 15.6829853,18 L3.31701472,18 C2.21244522,18 1.31701472,17.1045695 1.31701472,16 C1.31701472,15.6746519 1.39638618,15.3542157 1.54824521,15.0664828 L7.73123049,3.35135275 C8.24679783,2.37448832 9.45665282,2.00053315 10.4335172,2.51610048 C10.7896783,2.70407438 11.0807956,2.99519167 11.2687695,3.35135275 Z" id="三角形" fill="#262626"></path>
                </g>
                <g id="编组-2" transform="translate(53.862220, 128.124111) rotate(-120.000000) translate(-53.862220, -128.124111) translate(44.362220, 86.124111)">
                    <line x1="9.5" y1="84" x2="9.5" y2="18" id="路径-2" stroke="#262626" stroke-width="4" stroke-linecap="round" stroke-linejoin="round"></line>
                    <path d="M11.2687695,3.35135275 L17.4517548,15.0664828 C17.9673221,16.0433472 17.5933669,17.2532022 16.6165025,17.7687695 C16.3287696,17.9206285 16.0083334,18 15.6829853,18 L3.31701472,18 C2.21244522,18 1.31701472,17.1045695 1.31701472,16 C1.31701472,15.6746519 1.39638618,15.3542157 1.54824521,15.0664828 L7.73123049,3.35135275 C8.24679783,2.37448832 9.45665282,2.00053315 10.4335172,2.51610048 C10.7896783,2.70407438 11.0807956,2.99519167 11.2687695,3.35135275 Z" id="三角形" fill="#262626"></path>
                </g>
                <g id="编组-2" transform="translate(126.862220, 128.124111) scale(-1, 1) rotate(-120.000000) translate(-126.862220, -128.124111) translate(117.362220, 86.124111)">
                    <line x1="9.5" y1="84" x2="9.5" y2="18" id="路径-2" stroke="#262626" stroke-width="4" stroke-linecap="round" stroke-linejoin="round"></line>
                    <path d="M11.2687695,3.35135275 L17.4517548,15.0664828 C17.9673221,16.0433472 17.5933669,17.2532022 16.6165025,17.7687695 C16.3287696,17.9206285 16.0083334,18 15.6829853,18 L3.31701472,18 C2.21244522,18 1.31701472,17.1045695 1.31701472,16 C1.31701472,15.6746519 1.39638618,15.3542157 1.54824521,15.0664828 L7.73123049,3.35135275 C8.24679783,2.37448832 9.45665282,2.00053315 10.4335172,2.51610048 C10.7896783,2.70407438 11.0807956,2.99519167 11.2687695,3.35135275 Z" id="三角形" fill="#262626"></path>
                </g>
                <path d="M77.0713856,72.117547 L77.0713856,113.258529 L71.0713856,116.725436 L71.0713856,75.5844539 L77.0713856,72.117547 Z" id="矩形" stroke="#262626" stroke-width="2" fill="#D65928"></path>
                <path d="M95.200857,144.952425 L100.654228,141.742311 C101.130176,141.462146 101.288889,140.849196 101.008723,140.373248 C100.922088,140.22607 100.799202,140.103533 100.651779,140.017316 L67.9043586,120.865673 L67.9043586,120.865673 L60.0713856,125.458188 L94.1974321,144.958888 C94.5088603,145.136848 94.891747,145.134381 95.200857,144.952425 Z" id="矩形备份-7" fill="#262626"></path>
                <path d="M116.071386,87.0837923 L116.071386,117.384351 L110.071386,120.715596 L110.071386,90.4150373 L116.071386,87.0837923 Z" id="矩形备份-6" stroke="#262626" stroke-width="2" fill="#D65928" transform="translate(113.071386, 103.899694) scale(-1, 1) translate(-113.071386, -103.899694) "></path>
            </g>
        </g>
    </g>
</svg>