<?xml version="1.0" encoding="UTF-8"?>
<svg width="20px" height="20px" viewBox="0 0 20 20" version="1.1" xmlns="http://www.w3.org/2000/svg" xmlns:xlink="http://www.w3.org/1999/xlink">
    <title>ICON/支付/对公转账</title>
    <defs>
        <polygon id="path-1" points="0 0 16 0 16 13.7142857 0 13.7142857"></polygon>
    </defs>
    <g id="icon" stroke="none" stroke-width="1" fill="none" fill-rule="evenodd">
        <g id="功能性ICON" transform="translate(-273.000000, -195.000000)">
            <g id="ICON/支付/对公转账" transform="translate(273.000000, 195.000000)">
                <g id="编组" transform="translate(2.000000, 3.000000)">
                    <mask id="mask-2" fill="white">
                        <use xlink:href="#path-1"></use>
                    </mask>
                    <g id="Clip-2"></g>
                    <path d="M2.84402709,6.49567971 L10.6510148,6.49567971 L9.61502186,5.0527353 L11.1600562,5.0527353 L12.9779803,7.57906468 L2.84402709,7.57906468 L2.84402709,6.49567971 Z M13.1560461,9.95359581 L5.35005453,9.95359581 L6.38604743,11.397516 L4.84003657,11.397516 L3.02203435,8.87021084 L13.1560461,8.87021084 L13.1560461,9.95359581 Z M3.19437692e-05,12.9923352 C3.19437692e-05,13.3909826 0.326027033,13.7142857 0.727041423,13.7142857 L15.2729732,13.7142857 C15.673968,13.7142857 15.9999631,13.3909826 15.9999631,12.9923352 L15.9999631,2.97108642 L3.19437692e-05,2.97108642 L3.19437692e-05,12.9923352 Z M15.2729732,0 L0.727041423,0 C0.532940459,0.00126275334 0.347237906,0.0780993808 0.2109102,0.21344358 C0.0745629642,0.348864309 -0.00125711476,0.531753085 1.57718643e-05,0.721950523 L1.57718643e-05,2.24816013 L15.9999818,2.24816013 L15.9999818,0.721950523 C16.0013498,0.531753085 15.9254907,0.348864309 15.789163,0.21344358 C15.6528158,0.0780993808 15.4671327,0.00126275334 15.2729732,0 L15.2729732,0 Z" id="Fill-1" fill="#FD9708" mask="url(#mask-2)"></path>
                </g>
            </g>
        </g>
    </g>
</svg>