<?xml version="1.0" encoding="UTF-8"?>
<svg width="20px" height="20px" viewBox="0 0 20 20" version="1.1" xmlns="http://www.w3.org/2000/svg" xmlns:xlink="http://www.w3.org/1999/xlink">
    <title>ICON/支付/微信</title>
    <defs>
        <polygon id="path-1" points="0 0 19 0 19 16 0 16"></polygon>
    </defs>
    <g id="icon" stroke="none" stroke-width="1" fill="none" fill-rule="evenodd">
        <g id="功能性ICON" transform="translate(-241.000000, -195.000000)">
            <g id="ICON/支付/微信" transform="translate(241.000000, 195.000000)">
                <g id="编组" transform="translate(0.500000, 2.000000)">
                    <mask id="mask-2" fill="white">
                        <use xlink:href="#path-1"></use>
                    </mask>
                    <g id="Clip-2"></g>
                    <path d="M6.91374138,10.1017894 C6.82643247,10.1443381 6.73706399,10.164698 6.62857494,10.164698 C6.38579661,10.164698 6.18782776,10.0388539 6.07716782,9.8499668 L6.03246966,9.7668328 L4.29341642,6.15390615 C4.27209712,6.11135747 4.27209712,6.07082594 4.27209712,6.02819657 C4.27209712,5.85975004 4.40407636,5.73387909 4.58075375,5.73387909 C4.64685469,5.73387909 4.71273298,5.75418519 4.77883393,5.79684146 L6.82643247,7.18308945 C6.979731,7.26619656 7.15640839,7.32913203 7.35426591,7.32913203 C7.46506501,7.32913203 7.57366538,7.30885282 7.68435316,7.26619656 L17.2864687,3.19268442 C15.5687347,1.26043083 12.7290938,0 9.51277488,0 C4.27209712,0 0,3.38146396 0,7.55857756 C0,9.82568016 1.27723725,11.8836971 3.28024896,13.2701065 C3.43343617,13.3755907 3.54412394,13.5643702 3.54412394,13.753069 C3.54412394,13.8160045 3.52280464,13.8789131 3.49942578,13.9418486 C3.34623858,14.5081334 3.08022055,15.4337152 3.08022055,15.4743812 C3.05878992,15.5372091 3.03532757,15.6203969 3.03532757,15.7057094 C3.03532757,15.874129 3.16741813,16 3.34406769,16 C3.4100573,16 3.47607475,15.9796939 3.52074508,15.9370376 L5.58966291,14.7822254 C5.74296144,14.6989301 5.91972232,14.6359677 6.09639971,14.6359677 C6.1835973,14.6359677 6.29425724,14.6563814 6.38156615,14.678624 C7.35003545,14.9506451 8.40809588,15.0988662 9.48722512,15.0988662 C14.7279029,15.0988662 19,11.7174022 19,7.54028862 C19,6.279804 18.6040345,5.08429891 17.9208429,4.0330613 L6.979731,10.0591331 L6.91374138,10.1016818 L6.91374138,10.1017894 Z" id="Fill-1" fill="#09BB07" mask="url(#mask-2)"></path>
                </g>
            </g>
        </g>
    </g>
</svg>