<?xml version="1.0" encoding="UTF-8"?>
<svg width="20px" height="20px" viewBox="0 0 20 20" version="1.1" xmlns="http://www.w3.org/2000/svg" xmlns:xlink="http://www.w3.org/1999/xlink">
    <title>ICON/支付/支付宝</title>
    <defs>
        <polygon id="path-1" points="0 0 16 0 16 16 0 16"></polygon>
    </defs>
    <g id="icon" stroke="none" stroke-width="1" fill="none" fill-rule="evenodd">
        <g id="功能性ICON" transform="translate(-209.000000, -195.000000)">
            <g id="ICON/支付/支付宝" transform="translate(209.000000, 195.000000)">
                <g id="编组" transform="translate(2.000000, 2.000000)">
                    <mask id="mask-2" fill="white">
                        <use xlink:href="#path-1"></use>
                    </mask>
                    <g id="Clip-2"></g>
                    <path d="M8.51623628,9.88420737 C8.51623628,9.88420737 6.65813973,12.1292689 4.49056911,12.1292689 C2.32297689,12.1292689 1.85809657,11.0711326 1.85809657,10.2968022 C1.85809657,9.52253658 2.32256674,8.69682884 4.15495293,8.56797526 C6.01304947,8.46485354 8.51623628,9.88420737 8.51623628,9.88420737 L8.51623628,9.88420737 Z M16,10.8905346 L10.864427,9.16121119 C11.1963302,8.60458703 11.4730133,8.01683423 11.6905691,7.4063286 C11.9135217,6.82194339 12.0776923,6.21692089 12.1806633,5.60000387 L8.85133437,5.5742936 L8.85133437,4.43876737 L12.8775196,4.41305709 L12.8775196,3.61305963 L8.82527862,3.61305963 L8.82527862,1.78059289 L6.83832808,1.78059289 L6.83832808,3.61305963 L3.07077904,3.61305963 L3.07077904,4.41305709 L6.83875983,4.38732523 L6.83875983,5.60000387 L3.81933675,5.60000387 L3.81933675,6.24500574 L10.0387166,6.24500574 C9.97000459,6.64056832 9.8662781,7.02913667 9.72883241,7.4063286 C9.49685637,8.05133047 9.23873824,8.61933104 9.23873824,8.61933104 C9.23873824,8.61933104 6.32252356,7.58694812 4.77431125,7.58694812 C3.22609894,7.58694812 1.39371275,8.20673622 1.21300631,10.0130609 C1.03197606,11.7936538 2.0644486,12.7742708 3.56130496,13.1098859 C4.93934538,13.4045071 6.3774198,13.1938383 7.61302789,12.5161535 C8.49220973,12.0082515 9.28484849,11.3635087 9.96130495,10.6062753 L15.9444346,13.5203436 C15.9469603,13.5216388 15.9482987,13.5244236 15.9478022,13.527122 C15.7174236,14.956816 14.4805418,16.005929 13.0324294,15.9999748 L2.62696782,15.9999748 C1.93019781,15.9999748 1.2620956,15.7231592 0.769389371,15.2305624 C0.276747908,14.7379441 0,14.0697361 0,13.3730546 L0,2.62739125 C0,1.93060186 0.276575211,1.26232906 0.769303023,0.769538046 C1.2619229,0.276833381 1.93019781,0 2.62696782,0 L13.3726868,0 C14.0694568,0 14.7377317,0.276574335 15.230438,0.769300587 C15.7231658,1.2619189 16,1.9301917 16,2.62695951 L16,10.8905346 Z" id="Fill-1" fill="#02A9F1" mask="url(#mask-2)"></path>
                </g>
            </g>
        </g>
    </g>
</svg>