<svg xmlns="http://www.w3.org/2000/svg" viewBox="0 0 270.88 92.34"><defs><style>.cls-1{fill:#333;}.cls-2{fill:#D65928;}</style></defs><g id="图层_2" data-name="图层 2"><g id="图层_1-2" data-name="图层 1"><path class="cls-1" d="M47.17,65.66a8.21,8.21,0,0,0,.18,1.46,5.79,5.79,0,0,0,.25.77h5.27a2.88,2.88,0,0,1-.8-1.11,6.71,6.71,0,0,1-.38-2.58V50.4A4.93,4.93,0,0,0,49.34,46C47.67,44.9,45.2,44.35,42,44.35A10.59,10.59,0,0,0,35.2,46.3a6.24,6.24,0,0,0-2.33,4.89h4.49a3.32,3.32,0,0,1,1.35-2.43,5.72,5.72,0,0,1,3.49-.94,6.18,6.18,0,0,1,3.52.78A3.15,3.15,0,0,1,47,51.36c0,1.7-1.62,2.77-4.82,3.19-1.09.13-2,.25-2.62.35-2.76.42-4.73,1.18-5.88,2.27A6.1,6.1,0,0,0,32,61.84,7.26,7.26,0,0,0,33.68,67a6.36,6.36,0,0,0,4.86,1.76,9.51,9.51,0,0,0,4.26-.91,7.22,7.22,0,0,0,2.9-2.61l1.41-2.17Zm-.11-8.92V59a6.22,6.22,0,0,1-1.74,4.63,6.49,6.49,0,0,1-4.71,1.71,4.15,4.15,0,0,1-2.88-1,3.52,3.52,0,0,1-1.13-2.72,3.68,3.68,0,0,1,.89-2.58,6,6,0,0,1,2.77-1.45s.08,0,2.18-.48A17.44,17.44,0,0,0,45.93,56l1.13-.53Z"/><path class="cls-1" d="M61.4,45.78V39.15H56.57v6.63H53.35v2.95h3.22V62.66c0,3.13.62,4.41,1.14,4.94.75.77,2.28,1.16,4.53,1.16l1.54-.06,1.37,0V65.34h-.79a3.8,3.8,0,0,1-2.2-.45A2.2,2.2,0,0,1,61.4,63V48.73h3.75V45.78H61.4Z"/><path class="cls-1" d="M82.63,59a5.89,5.89,0,0,1-1.58,4.3,5.63,5.63,0,0,1-4.19,1.61,4.18,4.18,0,0,1-3.51-1.41,6.72,6.72,0,0,1-1-4.19V45.44H67.41V61.19c0,2.56.6,4.48,1.78,5.72s3,1.85,5.41,1.85a8.79,8.79,0,0,0,3.8-.8,8.32,8.32,0,0,0,2.94-2.42l1.43-1.82v4.39h4.76V45.44h-4.9Z"/><path class="cls-1" d="M119.91,68.76h4.81V52.59a7.08,7.08,0,0,0-1.91-5.28,7,7,0,0,0-5.24-1.91,7.69,7.69,0,0,0-3.52.8,7.77,7.77,0,0,0-2.73,2.44l-.68,1-.64-1a6.84,6.84,0,0,0-2.54-2.44,7.54,7.54,0,0,0-3.55-.77,7.4,7.4,0,0,0-3.35.76,8.68,8.68,0,0,0-2.78,2.32l-1.42,1.74V46.09H91.8V68.76h4.81V54.89A5.73,5.73,0,0,1,97.92,51a4.57,4.57,0,0,1,3.6-1.52,4.17,4.17,0,0,1,3.18,1.23A4.65,4.65,0,0,1,105.85,54V68.76h4.74V54.85a5.64,5.64,0,0,1,1.32-3.92,4.63,4.63,0,0,1,3.61-1.5,4.26,4.26,0,0,1,3.21,1.21,4.5,4.5,0,0,1,1.18,3.29Z"/><path class="cls-1" d="M29.8,52.81a16,16,0,0,0-15.95-16H0v7.08H5.14V42h8.71a10.81,10.81,0,0,1,0,21.62H5.14V61.69H0v7.07H13.85A16,16,0,0,0,29.8,52.81Z"/><rect class="cls-1" y="56.57" width="6.74" height="1.99"/><rect class="cls-1" x="3.43" y="52.66" width="6.74" height="1.99"/><rect class="cls-1" x="6.87" y="48.76" width="6.74" height="1.99"/><rect class="cls-1" x="10.3" y="44.86" width="6.74" height="1.99"/><path class="cls-1" d="M204.18,57.51c0-.22,0-.52,0-.9,0-3.94-1-7-2.84-9.1s-4.5-3.12-8-3.12a9.66,9.66,0,0,0-7.7,3.17c-1.89,2.13-2.84,5.12-2.84,8.87s1,6.87,2.88,9.07a9.69,9.69,0,0,0,7.75,3.26,11.29,11.29,0,0,0,6.8-2,9.31,9.31,0,0,0,3.35-4.57h-4.9a5.07,5.07,0,0,1-1.77,1.92,5.93,5.93,0,0,1-3.17.78,5.32,5.32,0,0,1-4.23-1.73,7.69,7.69,0,0,1-1.59-4.79l0-.84h16.31Zm-16.34-2.67.07-.86a6.81,6.81,0,0,1,1.63-4.21,5.16,5.16,0,0,1,3.93-1.55,5.39,5.39,0,0,1,4.07,1.53A6.33,6.33,0,0,1,199.07,54l0,.83H187.84Z"/><path class="cls-1" d="M225.5,64.2V50.4A4.93,4.93,0,0,0,223.15,46c-1.67-1.08-4.15-1.63-7.37-1.63A10.58,10.58,0,0,0,209,46.3a6.21,6.21,0,0,0-2.33,4.89h4.49a3.35,3.35,0,0,1,1.34-2.43,5.75,5.75,0,0,1,3.5-.94,6.12,6.12,0,0,1,3.51.78,3.13,3.13,0,0,1,1.26,2.76c0,1.7-1.62,2.77-4.83,3.19-1.08.13-2,.25-2.61.35-2.76.42-4.74,1.18-5.88,2.27a6.07,6.07,0,0,0-1.66,4.67A7.26,7.26,0,0,0,207.49,67a6.34,6.34,0,0,0,4.86,1.76,9.51,9.51,0,0,0,4.26-.91,7.28,7.28,0,0,0,2.9-2.61l1.41-2.17.06,2.59a7.38,7.38,0,0,0,.18,1.46,7.74,7.74,0,0,0,.24.77h5.27a3,3,0,0,1-.8-1.11A7,7,0,0,1,225.5,64.2Zm-4.63-7.46V59a6.23,6.23,0,0,1-1.75,4.63,6.44,6.44,0,0,1-4.7,1.71,4.15,4.15,0,0,1-2.88-1,3.52,3.52,0,0,1-1.13-2.72,3.68,3.68,0,0,1,.89-2.58,6,6,0,0,1,2.77-1.45s.07,0,2.18-.48A17.34,17.34,0,0,0,219.73,56l1.14-.53Z"/><rect class="cls-1" x="228.99" y="37.47" width="4.9" height="31.29"/><path class="cls-1" d="M243.77,45.78V39.15h-4.83v6.63h-3.21v2.95h3.21V62.66c0,3.13.62,4.41,1.15,4.94.74.76,2.31,1.16,4.53,1.16l1.53-.06,1.37,0V65.34h-.78a3.86,3.86,0,0,1-2.21-.45,2.22,2.22,0,0,1-.76-1.92V48.73h3.75V45.78h-3.75Z"/><path class="cls-1" d="M268.92,48a6.17,6.17,0,0,0-2.49-1.86,9,9,0,0,0-3.56-.68,8.84,8.84,0,0,0-3.74.77,7.7,7.7,0,0,0-2.84,2.26l-1.43,1.79V37.47H250V68.76h4.85V55.16a5.92,5.92,0,0,1,1.57-4.3,5.63,5.63,0,0,1,4.21-1.61,4.19,4.19,0,0,1,3.62,1.48c.42.58,1,1.85,1,6.13v11.9h4.86V53.37a16.53,16.53,0,0,0-.28-3.59A4.61,4.61,0,0,0,268.92,48Z"/><polygon class="cls-1" points="178.87 37.47 173.39 60.06 172.55 63.53 171.83 60.03 167.21 37.47 161.3 37.47 156.68 60.03 155.95 63.56 155.12 60.06 149.71 37.47 144.32 37.47 153.28 68.76 158.48 68.76 163.46 44.22 164.25 40.35 165.03 44.22 169.99 68.76 175.18 68.76 184.13 37.47 178.87 37.47"/><path class="cls-2" d="M56.58,79.5a19.71,19.71,0,0,1-2.83-5.58H36.5A25.25,25.25,0,0,0,40,80.7c10.67,14.66,35.72,15.26,60.18,3C82.14,91.42,64.42,90.29,56.58,79.5Z"/><path class="cls-2" d="M57.41,29.61l5.23-5-6.08-1.59c-1.77,1.56-4.29,3.76-5.89,5.38Z"/><path class="cls-2" d="M138.05,11.67C126.88-3.7,99.93-3.67,74.41,10.46l6.25,2.08L74.29,16.1l-6.17-1.82c-1.41.93-2.82,1.86-4.21,2.87-.86.62-1.67,1.27-2.5,1.91l6.36,1.88-4.9,3.71L70.68,27l4.87-4.1,7.58,2.17c20.06-11,41.18-11,50,1.06,7.14,9.82,4.14,25-6.18,38.7C142.63,46.4,147.82,25.11,138.05,11.67ZM75.55,22.93l-7.78-2,6.52-4.84,8,2.22Z"/><path class="cls-1" d="M144.62,77.53V76.17h13.55v1.36h-4.73V79.2h2.43a2.21,2.21,0,0,1,1.43.41A1.7,1.7,0,0,1,158,81v5.48a2.3,2.3,0,0,1-.35,1.36,1.75,1.75,0,0,1-1.49.73H147a2.38,2.38,0,0,1-1.44-.35,1.79,1.79,0,0,1-.77-1.51V81.05a2,2,0,0,1,.27-.94,1.72,1.72,0,0,1,.84-.75,1.81,1.81,0,0,1,.63-.16h2.54V77.53Zm12,7.51H154a1.78,1.78,0,0,1-1.67-.83,2.09,2.09,0,0,1-.25-.71V80.57H150.4a6.26,6.26,0,0,1-.41,2.38,3.64,3.64,0,0,1-1.7,1.83,5.53,5.53,0,0,1-2.16.51v1.18a.8.8,0,0,0,.2.51.71.71,0,0,0,.54.27l.36,0,8.52,0a.8.8,0,0,0,.77-.36,1.68,1.68,0,0,0,.12-.78ZM146.12,84a5.34,5.34,0,0,0,1.56-.37,2.44,2.44,0,0,0,.59-.46,2.38,2.38,0,0,0,.46-.59,4.42,4.42,0,0,0,.34-1.61c0-.08,0-.2,0-.36H147a.77.77,0,0,0-.57.22.9.9,0,0,0-.25.61Zm4.28-4.77h1.69V77.53H150.4Zm6.24,4.5V81.53a1,1,0,0,0-.27-.75.85.85,0,0,0-.61-.22h-2.32v2.35a.75.75,0,0,0,.21.55.69.69,0,0,0,.55.22Z"/><path class="cls-1" d="M167.2,88.63V87.27a4.78,4.78,0,0,0,1.46-1.12,8,8,0,0,0,1.07-1.86H167.2V83.11h2.91l.18-.64h-2.93V81.32h3.27l.13-.53h-3.4V79.62h3.74l.11-.39h-.58V77.94h-1.45a2.31,2.31,0,0,1-.78,1,2.7,2.7,0,0,1-1.2.34V77.87a.9.9,0,0,0,.66-.43,3.79,3.79,0,0,0,.28-1.31h1.4l-.06.52h4.43v1.29H172v.94h.69l-.19.74h8.09v1.17h-8.4l-.14.53h8.54v1.15h-8.84l-.17.64h9.17v1.18h-.85v.64h.85v1.15h-.85v.47a2.68,2.68,0,0,1-.07.75,1.89,1.89,0,0,1-.83,1,1.55,1.55,0,0,1-.76.24h-1.55V87.24h.89c.65,0,1-.28,1-.86v-.3H170.4a7.13,7.13,0,0,1-1.52,1.78A4.84,4.84,0,0,1,167.2,88.63Zm3.68-.69V86.72h5.06v1.22Zm.09-3h7.56v-.64H171.2Zm3.08-5.7V77.87a1.09,1.09,0,0,0,.52-.24,2.86,2.86,0,0,0,.4-1.51h1.4l0,.53h4.4v1.29h-1.91v1.29h-1.35V77.94H176a2.13,2.13,0,0,1-.75.93A2.75,2.75,0,0,1,174.05,79.23Z"/><path class="cls-1" d="M189.69,88.59V87.24h.71V85h1.35v2.28h4V83.79H190.2V82.43h5.58v-1.6H190.2v-.72l-.51.06v-1.3a.89.89,0,0,0,.45-.09,2.79,2.79,0,0,0,.71-1.17,3.54,3.54,0,0,1,.66-1.13,1.43,1.43,0,0,1,1-.31h7.73a1.9,1.9,0,0,1,1,.17,1.58,1.58,0,0,1,.45.44,4.26,4.26,0,0,1,.28.59,5.09,5.09,0,0,0,.65,1.27,1,1,0,0,0,.64.23v1.3l-.51-.06v.72h-5.58v1.6h5.58v1.36h-5.58v3.45h4V85h1.36v2.28h.69v1.35Zm1.69-9.11h10.16a14.26,14.26,0,0,1-.66-1.27,1.81,1.81,0,0,0-.33-.54.91.91,0,0,0-.59-.13h-6.88a1.05,1.05,0,0,0-.74.18,5.86,5.86,0,0,0-.43.77A9.76,9.76,0,0,1,191.38,79.48Z"/><path class="cls-1" d="M212.28,77.5V76.17h7.42V77.5Zm0,11.08V83.21a1.25,1.25,0,0,1,1.41-1.41h4.37c1.11,0,1.67.43,1.67,1.31V87a1.35,1.35,0,0,1-1.52,1.54l-.58,0V87.21h.2c.36,0,.54-.16.54-.5v-3a.63.63,0,0,0-.11-.44.62.62,0,0,0-.45-.14h-3.6a.68.68,0,0,0-.47.14.55.55,0,0,0-.11.4v4.89Zm7.24-9.64v1.31a1.14,1.14,0,0,1-.25.84,1.19,1.19,0,0,1-.86.24h-5a1,1,0,0,1-.74-.24,1.11,1.11,0,0,1-.22-.77V79.08a1.21,1.21,0,0,1,.23-.86,1.16,1.16,0,0,1,.82-.23h4.73a1.79,1.79,0,0,1,.92.17A.86.86,0,0,1,219.52,78.94Zm-1.72.22h-3.68a.41.41,0,0,0-.3.09s-.06.12-.06.25v.3a.34.34,0,0,0,.14.3.81.81,0,0,0,.35,0h3.57c.2,0,.32,0,.36-.07a.47.47,0,0,0,.06-.3v-.19a.49.49,0,0,0-.08-.32C218.11,79.19,218,79.16,217.8,79.16Zm-3.75,7.29,0-1.37h.28V83.77h1.35v1.31h.6V83.77h1.33v1.31h.3v1.37h-1.26v2.11h-1.36V86.45Zm6.07,2.13V87.22h2.17V85h-.57a2.15,2.15,0,0,1-.74-.09,1.11,1.11,0,0,1-.62-.6,1.27,1.27,0,0,1-.13-.55V78.65a1.27,1.27,0,0,1,1.38-1.36h.68V76.13h1.34v1.17h.63a1.42,1.42,0,0,1,1.1.39,1.3,1.3,0,0,1,.35.92v5a1.67,1.67,0,0,1-.23,1,1.16,1.16,0,0,1-.95.51h-.89v2.19a.82.82,0,0,0,.65-.28,1,1,0,0,0,.21-.67v-.45h1.35v.58a1.91,1.91,0,0,1-2.17,2.18Zm2.17-4.9v-5H222c-.29,0-.44.18-.44.54v4a.57.57,0,0,0,.12.41.59.59,0,0,0,.35.09Zm1.34,0h.27a.41.41,0,0,0,.38-.15.55.55,0,0,0,.07-.34v-4c0-.36-.19-.54-.59-.54h-.14Z"/><path class="cls-1" d="M234.77,88.57V87.31h0c.18,0,.28-.24.29-.71l.08-5.84h1.23l0,5.31a6.37,6.37,0,0,1-.11,1.43A1.51,1.51,0,0,1,234.77,88.57Zm.14-8.61V78.62h2v-1h-2V76.35h5.17v1.23h-1.82v1h1.83V80h-1.83v8.66h-1.35V80Zm4,8.66V80.73H240v7.89ZM241,86.23v-1.4H246V76.16h1.35v8.67h.94v1.4h-.94v2.41H246V86.23Zm0-7.47V77.34h4v1.42Zm0,3.83V81.17h4v1.42Z"/><path class="cls-1" d="M257.39,84.28V82.85a4.28,4.28,0,0,0,1.1-.25,8.36,8.36,0,0,0,.76-.36V78.85h-1.81V77.42h1.81V76.19h1.36v1.23h1.61v1.43h-1.61v2.57a5.84,5.84,0,0,1,1.49-.57v1.33a9.56,9.56,0,0,0-1.49.77v3.66a2,2,0,0,1-.76,1.68,2.37,2.37,0,0,1-1.41.35c-.15,0-.36,0-.64,0V87.27h.35A1.31,1.31,0,0,0,259,87a1,1,0,0,0,.22-.74V83.8a9.72,9.72,0,0,1-1.14.38Zm5.52,4.34v-1.4a14.74,14.74,0,0,0,2.74-1.32,15.8,15.8,0,0,1-1.95-2c-.17-.22-.39-.55-.65-1h1.56a11.2,11.2,0,0,0,1.16,1.29c.23.21.57.51,1,.9a14.57,14.57,0,0,0,2.09-1.91c.37-.43.56-.72.56-.86a.24.24,0,0,0-.13-.21,2.2,2.2,0,0,0-.6,0h-5.81V80.68h3.31v-2h-3.31V77.31h3.31V76.16h1.35v1.15h3.31v1.35h-3.31v2c1,0,1.57,0,1.8,0a1.56,1.56,0,0,1,1.15.65,1.46,1.46,0,0,1,.28.88,2.55,2.55,0,0,1-.77,1.62,18.25,18.25,0,0,1-2.11,2,13.39,13.39,0,0,0,1.42.82,8.44,8.44,0,0,0,1.54.54l0,1.36a12.5,12.5,0,0,1-2.26-.83,16.74,16.74,0,0,1-1.79-1.06,15.82,15.82,0,0,1-1.92,1.15A12.21,12.21,0,0,1,262.91,88.62Z"/></g></g></svg>