<svg width="700" height="520" viewBox="0 0 700 520" fill="none" xmlns="http://www.w3.org/2000/svg">
<g id="1">
<g id="Group 16">
<g id="Group">
<path id="Vector" d="M601.037 436.065H651.393C659.82 436.065 665.725 427.445 662.943 419.2L608.833 258.675L601.037 436.065Z" fill="#D65928"/>
<path id="Vector_2" d="M584.034 424.753H644.072C647.768 424.753 650.359 420.974 649.138 417.357L591.841 247.362L584.034 424.753Z" fill="#7B0006"/>
<g id="Group_2">
<path id="Vector_3" d="M600.036 436.065H111.702C108.527 436.065 106.069 433.188 106.451 429.924L150.463 100.385H637.6C640.879 100.385 643.424 103.361 643.025 106.735L604.929 431.576C604.629 434.141 602.529 436.065 600.036 436.065Z" fill="#9D0008"/>
<path id="Vector_4" d="M588.979 436.065H100.974C97.799 436.065 95.341 433.188 95.7227 429.924L139.145 105.406C139.481 102.54 141.829 100.385 144.616 100.385H626.872C630.151 100.385 632.696 103.361 632.297 106.735L594.242 431.235C593.918 433.991 591.662 436.065 588.979 436.065Z" fill="#C0DDFF"/>
<path id="Vector_5" d="M587.076 436.065H99.0713C95.8962 436.065 93.4382 433.188 93.8199 429.924L137.242 105.406C137.578 102.54 139.926 100.385 142.713 100.385H624.969C628.248 100.385 630.793 103.361 630.394 106.735L592.339 431.235C592.015 433.991 589.754 436.065 587.076 436.065Z" fill="#D3EAFF"/>
<path id="Vector_6" d="M587.076 436.065H99.0713C95.8962 436.065 93.4382 433.188 93.8199 429.924L137.242 105.406C137.578 102.54 139.926 100.385 142.713 100.385H624.969C628.248 100.385 630.793 103.361 630.394 106.735L592.339 431.235C592.015 433.991 589.754 436.065 587.076 436.065Z" fill="#D65928"/>
</g>
<path id="Vector_7" d="M115.467 407.946L152.394 127.835C152.568 123.889 155.702 120.786 159.514 120.786H589.307C593.367 120.786 596.612 124.299 596.427 128.505L559.499 408.616C559.326 412.562 556.191 415.665 552.38 415.665H122.58C118.52 415.665 115.281 412.152 115.467 407.946Z" fill="#7B0006"/>
<path id="Vector_8" d="M121.031 408.038L157.802 133.895C157.976 130.001 161.07 126.933 164.835 126.933H589.389C593.402 126.933 596.601 130.406 596.421 134.56L559.644 408.708C559.471 412.602 556.377 415.67 552.612 415.67H128.058C124.044 415.664 120.846 412.192 121.031 408.038Z" fill="white"/>
<g id="Frame" clip-path="url(#clip0_37_4993)">
<path id="XMLID_50_" d="M491.102 400.499L531.927 376.886C535.007 375.107 534.617 371.995 531.067 369.94L492.292 347.509C488.737 345.454 483.363 345.232 480.284 347.01L439.464 370.623C436.385 372.402 436.774 375.514 440.325 377.569L479.099 400C482.649 402.055 488.023 402.277 491.102 400.499Z" fill="url(#paint0_linear_37_4993)"/>
<path id="XMLID_48_" d="M431.731 365.933L472.556 342.32C475.635 340.542 475.246 337.43 471.696 335.375L432.921 312.944C429.366 310.889 423.992 310.666 420.913 312.445L380.093 336.058C377.014 337.836 377.403 340.949 380.953 343.004L419.728 365.435C423.278 367.49 428.652 367.712 431.731 365.933Z" fill="url(#paint1_linear_37_4993)"/>
<path id="XMLID_46_" d="M376.9 335.25L417.726 311.637C420.805 309.858 420.415 306.746 416.865 304.691L378.091 282.26C374.535 280.205 369.162 279.983 366.082 281.761L325.262 305.374C322.183 307.153 322.573 310.265 326.123 312.32L364.897 334.751C368.447 336.806 373.826 337.034 376.9 335.25Z" fill="url(#paint2_linear_37_4993)"/>
<path id="XMLID_45_" d="M443.739 370.163C443.734 370.054 443.728 369.946 443.739 369.837V356.862H527.641V370.228C527.636 371.204 527.051 372.142 525.845 372.836L490.388 393.347C487.714 394.893 483.044 394.697 479.959 392.914L446.283 373.432C444.724 372.527 443.869 371.393 443.745 370.287H443.739V370.163Z" fill="url(#paint3_linear_37_4993)"/>
<path id="XMLID_43_" d="M490.388 380.215L525.845 359.703C528.518 358.158 528.182 355.458 525.098 353.669L491.421 334.187C488.337 332.403 483.666 332.208 480.993 333.753L445.536 354.265C442.862 355.81 443.198 358.511 446.283 360.3L479.959 379.781C483.049 381.565 487.72 381.76 490.388 380.215Z" fill="#4296E2"/>
<path id="XMLID_42_" d="M273.976 273.796C273.971 273.688 273.965 273.58 273.976 273.471V167.15H357.878V273.861C357.873 274.837 357.288 275.775 356.081 276.469L320.624 296.981C317.951 298.526 313.281 298.331 310.196 296.547L276.519 277.066C274.961 276.16 274.106 275.027 273.981 273.921H273.976V273.796Z" fill="url(#paint4_linear_37_4993)"/>
<path id="XMLID_40_" d="M320.624 190.503L356.081 169.991C358.755 168.446 358.419 165.746 355.335 163.956L321.653 144.475C318.568 142.691 313.898 142.496 311.224 144.041L275.767 164.553C273.094 166.098 273.429 168.798 276.514 170.587L310.191 190.069C313.281 191.853 317.951 192.048 320.624 190.503Z" fill="#4296E2"/>
<path id="XMLID_39_" d="M329.543 303.656C329.537 303.547 329.532 303.439 329.543 303.33V233.239H413.445V303.721C413.44 304.697 412.855 305.635 411.648 306.334L376.191 326.846C373.518 328.391 368.848 328.196 365.763 326.412L332.086 306.931C330.528 306.025 329.673 304.892 329.548 303.786H329.543V303.656Z" fill="url(#paint5_linear_37_4993)"/>
<path id="XMLID_37_" d="M376.191 256.592L411.648 236.081C414.322 234.535 413.986 231.835 410.901 230.046L377.225 210.564C374.14 208.78 369.47 208.585 366.797 210.131L331.34 230.642C328.666 232.188 329.002 234.888 332.086 236.677L365.763 256.158C368.848 257.942 373.518 258.137 376.191 256.592Z" fill="#FFFF02"/>
<path id="XMLID_36_" d="M384.368 335.261C384.363 335.152 384.357 335.044 384.368 334.936V293.403H468.27V335.326C468.265 336.302 467.68 337.24 466.473 337.939L431.016 358.451C428.343 359.996 423.673 359.801 420.588 358.017L386.912 338.536C385.353 337.63 384.498 336.497 384.373 335.391H384.368V335.261Z" fill="url(#paint6_linear_37_4993)"/>
<path id="XMLID_34_" d="M431.016 316.755L466.474 296.244C469.147 294.698 468.811 291.998 465.727 290.209L432.05 270.728C428.965 268.944 424.295 268.748 421.622 270.294L386.159 290.805C383.486 292.351 383.822 295.051 386.906 296.84L420.583 316.322C423.673 318.106 428.343 318.301 431.016 316.755Z" fill="#4296E2"/>
<g id="Group_3">
<path id="XMLID_32_" d="M194.831 413.089L225.861 395.142C228.199 393.787 227.907 391.423 225.206 389.861L195.734 372.814C193.034 371.253 188.948 371.084 186.605 372.435L155.575 390.382C153.237 391.737 153.529 394.101 156.23 395.663L185.701 412.71C188.407 414.271 192.493 414.445 194.831 413.089Z" fill="url(#paint7_linear_37_4993)"/>
<path id="XMLID_30_" d="M237.864 388.007L268.894 370.06C271.232 368.704 270.94 366.34 268.239 364.779L238.768 347.732C236.067 346.17 231.981 346.002 229.638 347.352L198.608 365.299C196.27 366.655 196.562 369.019 199.263 370.58L228.734 387.627C231.44 389.189 235.526 389.362 237.864 388.007Z" fill="url(#paint8_linear_37_4993)"/>
<path id="XMLID_28_" d="M278.295 363.521L309.325 345.574C311.663 344.218 311.371 341.854 308.67 340.293L279.198 323.246C276.498 321.684 272.412 321.516 270.069 322.866L239.039 340.813C236.701 342.169 236.993 344.533 239.693 346.094L269.165 363.141C271.866 364.703 275.951 364.871 278.295 363.521Z" fill="url(#paint9_linear_37_4993)"/>
<g id="XMLID_1_">
<path id="XMLID_27_" d="M220.509 388.608C220.515 388.527 220.515 388.44 220.509 388.359V378.496H156.733V388.657C156.738 389.4 157.182 390.11 158.102 390.642L185.052 406.23C187.081 407.407 190.631 407.26 192.98 405.899L218.577 391.092C219.762 390.403 220.412 389.541 220.504 388.701H220.509V388.608Z" fill="url(#paint10_linear_37_4993)"/>
<path id="XMLID_25_" d="M185.052 396.248L158.102 380.66C156.073 379.483 156.327 377.434 158.67 376.073L184.267 361.265C186.616 359.91 190.161 359.763 192.195 360.934L219.145 376.523C221.175 377.699 220.92 379.749 218.577 381.11L192.98 395.917C190.631 397.278 187.087 397.425 185.052 396.248Z" fill="#4296E2"/>
<path id="XMLID_24_" d="M349.55 315.362C349.555 315.281 349.555 315.194 349.55 315.113V234.297H285.773V315.405C285.779 316.148 286.223 316.858 287.143 317.39L314.093 332.978C316.122 334.155 319.672 334.008 322.021 332.647L347.618 317.84C348.803 317.151 349.452 316.289 349.544 315.449H349.55V315.362Z" fill="url(#paint11_linear_37_4993)"/>
<path id="XMLID_22_" d="M314.093 252.049L287.143 236.46C285.113 235.284 285.368 233.234 287.711 231.873L313.308 217.065C315.656 215.71 319.201 215.563 321.236 216.735L348.186 232.323C350.215 233.5 349.961 235.549 347.618 236.91L322.021 251.718C319.672 253.079 316.122 253.225 314.093 252.049Z" fill="#4296E2"/>
<path id="XMLID_19_" d="M307.312 338.059C307.317 337.977 307.317 337.891 307.312 337.809V284.532H243.536V338.102C243.541 338.845 243.985 339.555 244.905 340.087L271.855 355.675C273.884 356.852 277.434 356.705 279.783 355.344L305.38 340.537C306.565 339.848 307.214 338.986 307.306 338.145H307.312V338.059Z" fill="url(#paint12_linear_37_4993)"/>
<path id="XMLID_17_" d="M271.855 302.284L244.905 286.695C242.875 285.519 243.13 283.469 245.473 282.108L271.07 267.301C273.419 265.945 276.963 265.799 278.998 266.97L305.948 282.558C307.977 283.735 307.723 285.785 305.38 287.146L279.783 301.953C277.434 303.314 273.884 303.46 271.855 302.284Z" fill="#FFFF02"/>
<path id="XMLID_4_" d="M265.637 362.078C265.642 361.997 265.642 361.91 265.637 361.829V330.256H201.86V362.122C201.866 362.865 202.31 363.575 203.229 364.106L230.179 379.695C232.209 380.871 235.759 380.725 238.108 379.364L263.705 364.556C264.89 363.868 265.539 363.006 265.631 362.165H265.637V362.078Z" fill="url(#paint13_linear_37_4993)"/>
<path id="XMLID_2_" d="M230.179 348.014L203.229 332.425C201.2 331.249 201.454 329.199 203.798 327.838L229.395 313.03C231.743 311.675 235.288 311.529 237.323 312.7L264.273 328.288C266.302 329.465 266.048 331.514 263.705 332.875L238.108 347.683C235.764 349.044 232.214 349.19 230.179 348.014Z" fill="#4296E2"/>
</g>
</g>
</g>
<path id="Vector_9" d="M602.29 288.299C606.801 283.037 606.817 275.658 602.327 271.815C597.836 267.973 590.539 269.124 586.028 274.385C581.518 279.647 581.501 287.026 585.991 290.869C590.482 294.711 597.779 293.56 602.29 288.299Z" fill="#9BC1F9"/>
<path id="Vector_10" d="M600.805 287.028C604.493 282.727 604.507 276.694 600.836 273.553C597.166 270.413 591.201 271.354 587.513 275.656C583.825 279.957 583.81 285.99 587.481 289.131C591.151 292.271 597.117 291.33 600.805 287.028Z" fill="#C2E1FF"/>
<path id="Vector_11" d="M699.084 436.065H37.9043V505.974H699.084V436.065Z" fill="#A3ABD4"/>
<path id="Vector_12" d="M533.515 470.731H0V505.974H533.515V470.731Z" fill="#7C85B5"/>
<path id="Vector_13" d="M533.515 505.974V470.731H580.344V436.065H699.09V505.974H533.515Z" fill="#6E738D"/>
</g>
<g id="Group_4">
<path id="Vector_14" opacity="0.5" d="M458.341 251.955L481.729 274.321L396.689 377.705L354.226 354.826L315.107 454.756L237.018 410.973L195.383 510.625L224.913 510.619L240.644 469.361L318.293 512.896L361.537 409.858L405.988 433.263L494.146 308.674L517.621 331.126L527.395 231.416L458.341 251.955Z" fill="#093FAA"/>
<path id="Vector_15" d="M445.554 254.648L468.942 277.019L394.786 385.499L341.44 357.518L297.526 458.459L219.437 414.682L182.411 510.625L213.133 510.619L233.369 456.339L311.018 499.873L355.28 398.141L404.231 423.811L490.272 297.414L513.747 319.865L527.332 231.086L445.554 254.648Z" fill="#D65928"/>
<path id="Vector_16" d="M442.442 247.27L465.83 269.635L391.674 378.115L338.327 350.14L294.413 451.081L216.325 407.304L175.436 510.625L206.423 510.619L230.257 448.961L307.906 492.495L352.161 390.763L401.113 416.433L487.16 290.036L510.629 312.487L524.214 223.708L442.442 247.27Z" fill="#FFA25C"/>
</g>
<g id="Group_5">
<path id="Vector_17" d="M450.973 389.844H446.548L434.403 405.912H442.685V436.354H459.26V405.912H467.542L450.973 389.844Z" fill="#DD472F"/>
<path id="Vector_18" d="M446.514 389.844L429.944 405.912H438.226V436.354H454.795V405.912H463.083L446.514 389.844Z" fill="#FF915A"/>
</g>
<path id="Vector_19" opacity="0.3" d="M52.9996 222.646L51.2356 222.987C49.0668 223.408 47.0541 224.466 45.4463 226.031L44.1393 227.302L43.8096 225.477C43.4048 223.229 42.3869 221.144 40.8716 219.48L39.6455 218.128L41.4095 217.787C43.5783 217.365 45.5909 216.308 47.1987 214.742L48.5058 213.471L48.8355 215.297C49.2403 217.544 50.2582 219.63 51.7735 221.294L52.9996 222.646Z" fill="#88C7FF"/>
<path id="Vector_20" opacity="0.3" d="M696.898 262.511L695.134 262.852C692.965 263.274 690.953 264.331 689.345 265.897L688.038 267.168L687.708 265.342C687.303 263.095 686.285 261.009 684.77 259.345L683.544 257.993L685.308 257.652C687.477 257.231 689.489 256.173 691.097 254.608L692.404 253.336L692.734 255.162C693.139 257.41 694.157 259.495 695.672 261.159L696.898 262.511Z" fill="#88C7FF"/>
</g>
<rect id="Rectangle 7" width="700" height="520" fill="black" fill-opacity="0.5"/>
</g>
<defs>
<linearGradient id="paint0_linear_37_4993" x1="437.38" y1="373.753" x2="534.002" y2="373.753" gradientUnits="userSpaceOnUse">
<stop stop-color="#2B3FBA"/>
<stop offset="1" stop-color="#68D3FD"/>
</linearGradient>
<linearGradient id="paint1_linear_37_4993" x1="378.008" y1="339.187" x2="474.63" y2="339.187" gradientUnits="userSpaceOnUse">
<stop stop-color="#2B3FBA"/>
<stop offset="1" stop-color="#68D3FD"/>
</linearGradient>
<linearGradient id="paint2_linear_37_4993" x1="323.181" y1="308.507" x2="419.803" y2="308.507" gradientUnits="userSpaceOnUse">
<stop stop-color="#2B3FBA"/>
<stop offset="1" stop-color="#68D3FD"/>
</linearGradient>
<linearGradient id="paint3_linear_37_4993" x1="529.546" y1="375.626" x2="444.605" y2="375.626" gradientUnits="userSpaceOnUse">
<stop stop-color="#5EBFFF"/>
<stop offset="1" stop-color="#258FFE"/>
</linearGradient>
<linearGradient id="paint4_linear_37_4993" x1="357.878" y1="232.585" x2="273.968" y2="232.585" gradientUnits="userSpaceOnUse">
<stop stop-color="#5EBFFF"/>
<stop offset="1" stop-color="#258FFE"/>
</linearGradient>
<linearGradient id="paint5_linear_37_4993" x1="414.745" y1="280.561" x2="330.835" y2="280.561" gradientUnits="userSpaceOnUse">
<stop stop-color="#FFF469"/>
<stop offset="1" stop-color="#FFB300"/>
</linearGradient>
<linearGradient id="paint6_linear_37_4993" x1="468.046" y1="326.444" x2="386.801" y2="326.444" gradientUnits="userSpaceOnUse">
<stop stop-color="#5EBFFF"/>
<stop offset="1" stop-color="#258FFE"/>
</linearGradient>
<linearGradient id="paint7_linear_37_4993" x1="154" y1="392.761" x2="227.442" y2="392.761" gradientUnits="userSpaceOnUse">
<stop stop-color="#2B3FBA"/>
<stop offset="1" stop-color="#68D3FD"/>
</linearGradient>
<linearGradient id="paint8_linear_37_4993" x1="197.031" y1="367.68" x2="270.473" y2="367.68" gradientUnits="userSpaceOnUse">
<stop stop-color="#2B3FBA"/>
<stop offset="1" stop-color="#68D3FD"/>
</linearGradient>
<linearGradient id="paint9_linear_37_4993" x1="237.459" y1="343.192" x2="310.9" y2="343.192" gradientUnits="userSpaceOnUse">
<stop stop-color="#2B3FBA"/>
<stop offset="1" stop-color="#68D3FD"/>
</linearGradient>
<linearGradient id="paint10_linear_37_4993" x1="155.29" y1="392.761" x2="219.853" y2="392.761" gradientUnits="userSpaceOnUse">
<stop stop-color="#5EBFFF"/>
<stop offset="1" stop-color="#258FFE"/>
</linearGradient>
<linearGradient id="paint11_linear_37_4993" x1="285.774" y1="284.036" x2="349.554" y2="284.036" gradientUnits="userSpaceOnUse">
<stop stop-color="#5EBFFF"/>
<stop offset="1" stop-color="#258FFE"/>
</linearGradient>
<linearGradient id="paint12_linear_37_4993" x1="242.55" y1="320.503" x2="306.329" y2="320.503" gradientUnits="userSpaceOnUse">
<stop stop-color="#FFF469"/>
<stop offset="1" stop-color="#FFB300"/>
</linearGradient>
<linearGradient id="paint13_linear_37_4993" x1="202.036" y1="355.379" x2="263.79" y2="355.379" gradientUnits="userSpaceOnUse">
<stop stop-color="#5EBFFF"/>
<stop offset="1" stop-color="#258FFE"/>
</linearGradient>
<clipPath id="clip0_37_4993">
<rect width="380" height="271" fill="white" transform="translate(154 143)"/>
</clipPath>
</defs>
</svg>
