<svg width="700" height="520" viewBox="0 0 700 520" fill="none" xmlns="http://www.w3.org/2000/svg">
<g id="2">
<g id="Group 17">
<path id="Vector" d="M661.075 101.913H646.786C643.877 101.913 641.512 99.5478 641.512 96.6385V82.3497C641.512 79.4404 643.877 77.0757 646.786 77.0757H661.075C663.984 77.0757 666.349 79.4404 666.349 82.3497V96.6385C666.363 99.5478 663.999 101.913 661.075 101.913Z" fill="white"/>
<path id="Vector_2" d="M647.517 90.0601L650.426 92.5395C652.604 94.4026 655.901 94.0586 657.663 91.7942L671.766 73.679" stroke="#FF6112" stroke-width="2" stroke-miterlimit="10"/>
<path id="Vector_3" d="M662.077 134.861H647.789C644.879 134.861 642.515 132.496 642.515 129.587V115.298C642.515 112.389 644.879 110.024 647.789 110.024H662.077C664.987 110.024 667.351 112.389 667.351 115.298V129.587C667.351 132.496 664.987 134.861 662.077 134.861Z" fill="white"/>
<g id="Group">
<path id="Vector_4" d="M88.0782 149.723C112.085 149.723 131.546 130.262 131.546 106.255C131.546 82.2482 112.085 62.7869 88.0782 62.7869C64.0715 62.7869 44.6101 82.2482 44.6101 106.255C44.6101 130.262 64.0715 149.723 88.0782 149.723Z" fill="white"/>
<g id="Group_2">
<path id="Vector_5" d="M73.5173 107.645C71.2099 99.2898 76.2259 90.6478 84.6817 88.541C92.6214 86.5632 100.819 91.2067 103.198 99.0175C104.316 102.686 104.001 106.427 102.611 109.666C100.934 113.521 100.547 117.821 101.665 121.862L101.736 122.135L86.5018 126.334L86.4301 126.061C85.3266 122.077 82.9046 118.552 79.5223 116.173C76.6846 114.195 74.5062 111.242 73.5173 107.645Z" fill="#FFE64F"/>
</g>
<g id="Group_3">
<path id="Vector_6" d="M94.7709 124.04L95.6309 123.796L92.3346 111.829C92.0193 110.697 92.6929 109.536 93.8107 109.221C94.943 108.906 96.1038 109.579 96.4191 110.697C96.7344 111.829 96.0608 112.99 94.9429 113.305L93.9684 113.578L94.212 114.438L95.1866 114.165C96.7917 113.721 97.7376 112.059 97.2933 110.454C96.8491 108.848 95.1866 107.902 93.5814 108.347C91.9763 108.791 91.0304 110.453 91.4747 112.059L94.7709 124.04Z" fill="white"/>
</g>
<g id="Group_4">
<path id="Vector_7" d="M92.5642 124.657L93.4241 124.413L90.1278 112.446C89.6835 110.841 88.0211 109.895 86.4159 110.34C84.8108 110.784 83.8649 112.446 84.3091 114.052C84.7534 115.657 86.4159 116.603 88.021 116.158L88.9956 115.886L88.752 115.026L87.7774 115.298C86.6452 115.614 85.4844 114.94 85.1691 113.822C84.8538 112.69 85.5273 111.529 86.6452 111.214C87.7774 110.899 88.9383 111.572 89.2536 112.69L92.5642 124.657Z" fill="white"/>
</g>
<g id="Group_5">
<path id="Vector_8" d="M92.9656 135.491L100.877 133.313C102.855 132.768 104.03 130.719 103.485 128.727L101.665 122.105L86.5593 126.262L88.3795 132.883C88.9241 134.875 90.9735 136.036 92.9656 135.491Z" fill="#FFE64F"/>
</g>
<g id="Group_6">
<path id="Vector_9" d="M94.9427 138.186L100.546 136.638C101.421 136.395 101.937 135.492 101.693 134.617L101.234 132.969L92.4634 135.391L92.922 137.039C93.1656 137.914 94.0828 138.43 94.9427 138.186Z" fill="#61A8FF"/>
</g>
<path id="Vector_10" d="M108.874 105.667L120.597 108.204" stroke="#FF6112" stroke-miterlimit="10"/>
<path id="Vector_11" d="M108.817 92.8831L119.451 86.2761" stroke="#FF6112" stroke-miterlimit="10"/>
<path id="Vector_12" d="M100.103 83.9263L102.711 72.4036" stroke="#FF6112" stroke-miterlimit="10"/>
<path id="Vector_13" d="M84.0084 84.3849L80.7407 72.5469" stroke="#FF6112" stroke-miterlimit="10"/>
<path id="Vector_14" d="M70.2784 116.301L61.5217 124.485" stroke="#FF6112" stroke-miterlimit="10"/>
<path id="Vector_15" d="M65.4485 104.836L52.9082 104.607" stroke="#FF6112" stroke-miterlimit="10"/>
<path id="Vector_16" d="M69.9917 92.2242L61.8513 83.6682" stroke="#FF6112" stroke-miterlimit="10"/>
</g>
<path id="Vector_17" d="M420.933 275.254C356.784 275.727 292.105 275.741 227.411 275.741C223.012 275.741 219.457 279.195 219.414 283.466C219.257 299.303 221.149 314.595 219.414 330.46C218.984 334.401 215.53 337.368 211.46 337.368H171.518C167.19 337.368 163.621 340.707 163.521 344.906C163.162 360.829 164.481 376.766 164.137 392.688C164.037 396.887 160.468 400.227 156.14 400.227H109.633C105.219 400.227 101.636 403.709 101.636 407.995V455.232C101.636 459.56 97.9961 463.043 93.5389 463C49.8415 462.541 28 462.283 28 462.269C28 462.269 28.2866 462.269 28.8456 462.269" stroke="white" stroke-width="3" stroke-miterlimit="10"/>
<g id="Group_7">
<path id="Vector_18" d="M620.215 58H430.305V192.045H620.215V58Z" fill="white"/>
<path id="Vector_19" d="M595.851 77.0183H427.454V205.617H595.851V77.0183Z" fill="#1755BF"/>
<path id="Vector_20" d="M584.701 76.1438H436.583V185.982H584.701V76.1438Z" fill="white"/>
<path id="Vector_21" d="M596.84 74.0227H418.726V86.9499H596.84V74.0227Z" fill="#D65928"/>
<path id="Vector_22" d="M418.726 86.9597L596.841 86.9597L596.841 84.896L418.726 84.896L418.726 86.9597Z" fill="#C9C9C9"/>
<path id="Vector_23" d="M515.88 100.135H445.97V145.251H515.88V100.135Z" fill="#CDD4E6"/>
<path id="Vector_24" d="M523.55 138.041L576.835 138.041L576.835 98.1988L523.55 98.1988L523.55 138.041Z" fill="#D65928"/>
<path id="Vector_25" d="M576.833 143.961H523.547V173.47H576.833V143.961Z" fill="#3E66F7"/>
<path id="Vector_26" d="M446.444 158.317L513.688 158.317L513.688 150.047L446.444 150.047L446.444 158.317Z" fill="#FF6112"/>
<path id="Vector_27" d="M513.172 163.496H445.927V171.765H513.172V163.496Z" fill="#FF6112"/>
<path id="Vector_28" d="M406.672 121.06H164.251V300.765H406.672V121.06Z" fill="#1755BF"/>
<path id="Vector_29" d="M386.924 142.844H151.568V318.837H386.924V142.844Z" fill="#83B9FF"/>
<path id="Vector_30" d="M385.462 141.668H186.824V288.97H385.462V141.668Z" fill="white"/>
<path id="Vector_31" d="M398.088 132.525H175.975V154.653H398.088V132.525Z" fill="#D65928"/>
<path id="Vector_32" d="M183.298 153.177C328.823 154.165 328.823 154.165 401.57 154.653C328.808 154.165 328.808 154.165 183.298 153.177Z" fill="#CED8E1"/>
<path id="Vector_33" d="M289.152 168.354H209.439V232.918H289.152V168.354Z" fill="#3E66F7"/>
<path id="Vector_34" d="M209.441 264.454L283.421 264.454L283.421 242.884L209.441 242.884L209.441 264.454Z" fill="#1755BF"/>
<path id="Vector_35" d="M303.42 322.699L393.781 322.699L393.781 199.89L303.42 199.89L303.42 322.699Z" fill="#3E66F7"/>
<g id="Group 18">
<path id="Vector_36" d="M287 470L609.341 470L609.341 247.127L287 247.127L287 470Z" fill="#364BCB"/>
<path id="Vector_37" d="M407.864 396.539L654.342 396.539V308.85H407.864V396.539Z" fill="#D65928"/>
<path id="Vector_38" d="M345.272 453.763L599.643 453.763V265.658H345.272V453.763Z" fill="#83B9FF"/>
<path id="Vector_39" d="M352.278 437.051L585.294 437.051L585.294 264.256L352.278 264.256L352.278 437.051Z" fill="white"/>
<path id="Vector_40" d="M333.166 281.278L613.369 281.278L613.369 260.944L333.166 260.944L333.166 281.278Z" fill="white"/>
<path id="Vector_41" d="M613.382 278.023H333.179V281.27H613.382V278.023Z" fill="#C9C9C9"/>
<path id="Vector_42" d="M460.517 373.004L570.507 373.004L570.507 302.023L460.517 302.023L460.517 373.004Z" fill="#3E66F7"/>
<path id="Vector_43" d="M448.503 298.546H364.653V413.087H448.503V298.546Z" fill="#D65928"/>
<path id="Vector_44" d="M569.752 380.548H463.979V393.559H569.752V380.548Z" fill="#FF6112"/>
<path id="Vector_45" d="M464.817 414.717L570.589 414.717L570.589 401.706L464.817 401.706L464.817 414.717Z" fill="#FF6112"/>
</g>
<path id="Vector_46" d="M343.971 61.2961H252.621V90.2319H323.706L332.048 100.88L330.371 90.2319H343.971V61.2961Z" fill="white"/>
<path id="Vector_47" d="M333.051 77.6777H263.556V81.447H333.051V77.6777Z" fill="#FFE64F"/>
<path id="Vector_48" d="M332.95 68.5195H263.455V71.4719H332.95V68.5195Z" fill="#FFE64F"/>
<path id="Vector_49" d="M666.779 225.796H561.742V254.717H643.49L653.078 265.366L651.143 254.717H666.779V225.796Z" fill="white"/>
<path id="Vector_50" d="M586.272 244.428L655.766 244.428L655.766 240.659L586.272 240.659L586.272 244.428Z" fill="#3E66F7"/>
<path id="Vector_51" d="M586.362 234.434L655.856 234.434L655.856 231.482L586.362 231.482L586.362 234.434Z" fill="#3E66F7"/>
<path id="Vector_52" d="M567.449 248.151L581.15 248.151L581.15 231.412L567.449 231.412L567.449 248.151Z" fill="#FF6112"/>
<path id="Vector_53" d="M85.1978 174.087H197.429V207.25H110.092L99.8448 219.475L101.909 207.25H85.1978V174.087Z" fill="white"/>
<path id="Vector_54" d="M165.713 194.753H96.219V198.522H165.713V194.753Z" fill="#3E66F7"/>
<path id="Vector_55" d="M165.613 185.581H96.1187V188.533H165.613V185.581Z" fill="#3E66F7"/>
<path id="Vector_56" d="M184.531 184.076H170.83V200.816H184.531V184.076Z" fill="#3E66F7"/>
</g>
</g>
<rect id="Rectangle 8" width="700" height="520" fill="black" fill-opacity="0.5"/>
</g>
</svg>
