<svg width="700" height="520" viewBox="0 0 700 520" fill="none" xmlns="http://www.w3.org/2000/svg">
<g id="3">
<g id="Group">
<path id="Vector" d="M699 35.5013V483.493C699 490.393 693.2 495.994 686.056 495.994L684.988 496L432.315 495.994L12.9496 495.988C9.73908 495.994 6.81497 494.885 4.55923 493.006C1.7664 490.71 0 487.31 0 483.493V35.5072C0 28.8152 5.43646 23.3518 12.2693 23.0238C12.5021 23.0118 12.7169 23.0059 12.9496 23.0059H432.315H685.036C685.149 22.9999 685.257 22.9999 685.37 23.0118L686.056 23.0059C693.2 22.9999 699 28.6005 699 35.5013Z" fill="#858BAA"/>
<path id="Vector_2" d="M697.962 35.7698V483.487C697.962 487.304 696.195 490.704 693.408 492.994C691.153 494.867 688.229 495.988 685.03 495.982L684.988 495.994L432.315 495.988V23H685.036C685.149 22.994 685.257 22.994 685.37 23.006C685.483 23.006 685.591 23.0179 685.704 23.0239C692.531 23.3638 697.962 28.9346 697.962 35.7698Z" fill="white"/>
<path id="Vector_3" d="M698.994 32.722V64.8223H0V32.722C0 27.354 5.79452 23 12.9377 23H686.05C693.2 23.006 698.994 27.354 698.994 32.722Z" fill="#D65928"/>
<path id="Union" fill-rule="evenodd" clip-rule="evenodd" d="M29.235 51.5932C32.8538 51.5932 35.7874 48.76 35.7874 45.265C35.7874 41.77 32.8538 38.9368 29.235 38.9368C25.6162 38.9368 22.6826 41.77 22.6826 45.265C22.6826 48.76 25.6162 51.5932 29.235 51.5932ZM48.4567 51.5932C52.0755 51.5932 55.0091 48.76 55.0091 45.265C55.0091 41.77 52.0755 38.9368 48.4567 38.9368C44.8379 38.9368 41.9043 41.77 41.9043 45.265C41.9043 48.76 44.8379 51.5932 48.4567 51.5932ZM74.2308 45.265C74.2308 48.76 71.2972 51.5932 67.6784 51.5932C64.0596 51.5932 61.126 48.76 61.126 45.265C61.126 41.77 64.0596 38.9368 67.6784 38.9368C71.2972 38.9368 74.2308 41.77 74.2308 45.265Z" fill="white"/>
<path id="Vector_4" d="M387.57 277.226H49.3817C38.8131 277.226 30.2437 267.612 30.2437 255.748V120.118C30.2437 108.255 38.8131 98.6404 49.3817 98.6404H387.576C398.145 98.6404 406.714 108.255 406.714 120.118V255.748C406.708 267.606 398.139 277.226 387.57 277.226Z" fill="url(#paint0_linear_37_4995)"/>
<path id="Vector_5" d="M262.4 247.655H66.0254V126.709H68.4065V245.352H262.4V247.655Z" fill="#4C5E87"/>
<path id="Vector_6" d="M262.156 216.926V240.342L240.857 240.348L172.791 240.342H139.952L72.1421 240.348V202.82C75.102 202.385 77.9008 201.8 80.5504 201.115C97.6057 196.689 108.425 187.647 117.317 179.792C126.047 172.068 132.94 165.471 142.112 165.477C161.19 165.483 167.146 195.806 185.049 195.806C205.32 195.806 208.895 178.527 224.399 178.533C247.159 178.527 247.827 216.914 262.156 216.926Z" fill="#3A85FF"/>
<path id="Vector_7" d="M389.838 467.627H50.5155C39.9469 467.627 31.3774 458.013 31.3774 446.15V330.858C31.3774 318.995 39.9469 309.38 50.5155 309.38H389.844C400.412 309.38 408.982 318.995 408.982 330.858V446.15C408.976 458.013 400.406 467.627 389.838 467.627Z" fill="#D65928"/>
<path id="Vector_8" d="M262.156 223.821V240.348H72.1362V217.141C74.9052 211.588 77.704 206.155 80.5445 201.121C88.9708 186.21 97.7789 174.865 107.518 174.686C111.594 174.615 114.703 176.577 117.311 179.786C128.166 193.146 130.278 227.996 157.21 226.135C190.605 223.833 187.024 195.8 206.502 196.188C225.98 196.57 221.212 224.602 259.375 223.833C260.348 223.821 261.279 223.815 262.156 223.821Z" fill="#83B9FF"/>
<path id="Vector_9" d="M647.936 393.258H564.551C555.975 393.258 549.023 385.456 549.023 375.83C549.023 366.203 555.975 358.402 564.551 358.402H647.936C656.511 358.402 663.463 366.203 663.463 375.83C663.463 385.456 656.511 393.258 647.936 393.258Z" fill="#3A85FF"/>
<g id="Group_2">
<path id="Vector_10" d="M360.197 364.265H322.386C320.381 364.265 318.758 362.439 318.758 360.191C318.758 357.942 320.381 356.117 322.386 356.117H360.197C362.202 356.117 363.825 357.942 363.825 360.191C363.831 362.439 362.202 364.265 360.197 364.265Z" fill="white"/>
<path id="Vector_11" opacity="0.8" d="M336.852 402.574H272.903C271.202 402.574 269.824 401.029 269.824 399.12C269.824 397.212 271.202 395.667 272.903 395.667H336.852C338.552 395.667 339.931 397.212 339.931 399.12C339.931 401.029 338.552 402.574 336.852 402.574Z" fill="white"/>
<path id="Vector_12" opacity="0.8" d="M361.886 402.574H348.011C346.31 402.574 344.932 401.029 344.932 399.12C344.932 397.212 346.31 395.667 348.011 395.667H361.886C363.586 395.667 364.965 397.212 364.965 399.12C364.965 401.029 363.586 402.574 361.886 402.574Z" fill="white"/>
<path id="Vector_13" opacity="0.8" d="M207.11 430.869H185.275C183.574 430.869 182.196 429.324 182.196 427.415C182.196 425.507 183.574 423.962 185.275 423.962H207.11C208.811 423.962 210.19 425.507 210.19 427.415C210.19 429.318 208.811 430.869 207.11 430.869Z" fill="white"/>
<path id="Vector_14" opacity="0.8" d="M270.838 430.869H219.41C217.709 430.869 216.331 429.324 216.331 427.415C216.331 425.507 217.709 423.962 219.41 423.962H270.838C272.539 423.962 273.918 425.507 273.918 427.415C273.924 429.318 272.539 430.869 270.838 430.869Z" fill="white"/>
<g id="Group_3">
<g id="Group_4">
<path id="Vector_15" d="M256.635 364.265H185.824C183.819 364.265 182.196 362.439 182.196 360.191C182.196 357.942 183.819 356.117 185.824 356.117H256.635C258.64 356.117 260.264 357.942 260.264 360.191C260.264 362.439 258.64 364.265 256.635 364.265Z" fill="white"/>
<path id="Vector_16" d="M310.123 364.265H268.899C266.894 364.265 265.271 362.439 265.271 360.191C265.271 357.942 266.894 356.117 268.899 356.117H310.123C312.128 356.117 313.751 357.942 313.751 360.191C313.751 362.439 312.128 364.265 310.123 364.265Z" fill="white"/>
<path id="Vector_17" opacity="0.8" d="M227.597 402.574H185.275C183.574 402.574 182.196 401.029 182.196 399.12C182.196 397.212 183.574 395.667 185.275 395.667H227.597C229.298 395.667 230.676 397.212 230.676 399.12C230.676 401.029 229.298 402.574 227.597 402.574Z" fill="white"/>
<path id="Vector_18" opacity="0.8" d="M261.737 402.574H239.896C238.195 402.574 236.817 401.029 236.817 399.12C236.817 397.212 238.195 395.667 239.896 395.667H261.732C263.432 395.667 264.811 397.212 264.811 399.12C264.817 401.029 263.438 402.574 261.737 402.574Z" fill="white"/>
<path id="Vector_19" opacity="0.8" d="M244.664 387.305H185.269C183.568 387.305 182.19 385.76 182.19 383.852C182.19 381.943 183.568 380.398 185.269 380.398H244.664C246.365 380.398 247.744 381.943 247.744 383.852C247.744 385.754 246.365 387.305 244.664 387.305Z" fill="white"/>
<path id="Vector_20" opacity="0.8" d="M287.911 387.305H255.83C254.129 387.305 252.75 385.76 252.75 383.852C252.75 381.943 254.129 380.398 255.83 380.398H287.911C289.612 380.398 290.991 381.943 290.991 383.852C290.991 385.754 289.612 387.305 287.911 387.305Z" fill="white"/>
</g>
<path id="Vector_21" opacity="0.8" d="M244.664 416.984H185.269C183.568 416.984 182.19 415.439 182.19 413.53C182.19 411.622 183.568 410.077 185.269 410.077H244.664C246.365 410.077 247.744 411.622 247.744 413.53C247.744 415.433 246.365 416.984 244.664 416.984Z" fill="white"/>
</g>
<path id="Vector_22" opacity="0.8" d="M287.911 416.984H255.83C254.129 416.984 252.75 415.439 252.75 413.53C252.75 411.622 254.129 410.077 255.83 410.077H287.911C289.612 410.077 290.991 411.622 290.991 413.53C290.991 415.433 289.612 416.984 287.911 416.984Z" fill="white"/>
<path id="Vector_23" opacity="0.8" d="M361.886 416.984H299.077C297.376 416.984 295.998 415.439 295.998 413.53C295.998 411.622 297.376 410.077 299.077 410.077H361.886C363.586 410.077 364.965 411.622 364.965 413.53C364.965 415.433 363.586 416.984 361.886 416.984Z" fill="white"/>
</g>
<g id="Group_5">
<path id="Union_2" fill-rule="evenodd" clip-rule="evenodd" d="M663.236 158.547H467.756C465.459 158.547 463.579 156.668 463.579 154.372V136.783C463.579 134.486 465.459 132.608 467.756 132.608H663.236C665.534 132.608 667.414 134.486 667.414 136.783V154.372C667.414 156.668 665.534 158.547 663.236 158.547ZM663.236 204.735H467.756C465.459 204.735 463.579 202.856 463.579 200.56V182.971C463.579 180.675 465.459 178.796 467.756 178.796H663.236C665.534 178.796 667.414 180.675 667.414 182.971V200.56C667.414 202.856 665.534 204.735 663.236 204.735ZM467.756 312.291H663.236C665.534 312.291 667.414 310.412 667.414 308.116V239.913C667.414 237.617 665.534 235.738 663.236 235.738H467.756C465.459 235.738 463.579 237.617 463.579 239.913V308.116C463.579 310.412 465.459 312.291 467.756 312.291Z" fill="#D65928"/>
</g>
<g id="Group_6">
<g id="Group_7">
<path id="Vector_24" fill-rule="evenodd" clip-rule="evenodd" d="M160.605 395.148C159.788 406.492 153.522 418.588 147.673 426.157L115.783 395.148H160.605Z" fill="#EACC34"/>
</g>
</g>
<g id="Group_8">
<path id="Vector_25" fill-rule="evenodd" clip-rule="evenodd" d="M140.668 432.587C131.907 439.35 120.963 443.412 109.039 443.412C80.395 443.412 57.1812 420.199 57.1812 391.564C57.1812 364.515 76.9637 342.387 105.441 340.001V395.142L140.668 432.587Z" fill="#3A85FF"/>
</g>
<g id="Group_9">
<g id="Group_10">
<path id="Vector_26" fill-rule="evenodd" clip-rule="evenodd" d="M112.333 340.007C137.857 341.498 158.791 362.093 160.605 388.253H112.333V340.007Z" fill="#FFAA05"/>
</g>
</g>
<g id="Group_11">
<path id="Vector_27" d="M308.601 149.851H294.052V195.681H308.601V149.851Z" fill="#EACC34"/>
<path id="Vector_28" d="M338.803 134.045H324.254V195.681H338.803V134.045Z" fill="#83B9FF"/>
<path id="Vector_29" d="M369.011 116.891H354.462V195.681H369.011V116.891Z" fill="#FFAA05"/>
<path id="Vector_30" d="M381.185 198.425H281.873V212.328H381.185V198.425Z" fill="#3A85FF"/>
<path id="Vector_31" opacity="0.8" d="M325.716 245.036H283.394C281.693 245.036 280.315 243.491 280.315 241.583C280.315 239.674 281.693 238.129 283.394 238.129H325.716C327.417 238.129 328.796 239.674 328.796 241.583C328.796 243.491 327.417 245.036 325.716 245.036Z" fill="#989898"/>
<path id="Vector_32" opacity="0.8" d="M359.857 245.036H338.022C336.321 245.036 334.942 243.491 334.942 241.583C334.942 239.674 336.321 238.129 338.022 238.129H359.857C361.558 238.129 362.936 239.674 362.936 241.583C362.936 243.491 361.558 245.036 359.857 245.036Z" fill="#B2B2B2"/>
<path id="Vector_33" opacity="0.8" d="M342.784 229.762H283.388C281.688 229.762 280.309 228.217 280.309 226.308C280.309 224.4 281.688 222.855 283.388 222.855H342.784C344.484 222.855 345.863 224.4 345.863 226.308C345.863 228.217 344.484 229.762 342.784 229.762Z" fill="#B2B2B2"/>
<path id="Vector_34" opacity="0.8" d="M386.031 229.762H353.949C352.248 229.762 350.87 228.217 350.87 226.308C350.87 224.4 352.248 222.855 353.949 222.855H386.031C387.731 222.855 389.11 224.4 389.11 226.308C389.11 228.217 387.731 229.762 386.031 229.762Z" fill="#B2B2B2"/>
<path id="Vector_35" opacity="0.8" d="M342.784 259.44H283.388C281.688 259.44 280.309 257.895 280.309 255.987C280.309 254.078 281.688 252.533 283.388 252.533H342.784C344.484 252.533 345.863 254.078 345.863 255.987C345.863 257.895 344.484 259.44 342.784 259.44Z" fill="#B2B2B2"/>
<path id="Vector_36" opacity="0.8" d="M386.031 259.44H353.949C352.248 259.44 350.87 257.895 350.87 255.987C350.87 254.078 352.248 252.533 353.949 252.533H386.031C387.731 252.533 389.11 254.078 389.11 255.987C389.11 257.895 387.731 259.44 386.031 259.44Z" fill="#989898"/>
</g>
</g>
<rect id="Rectangle 9" width="700" height="520" fill="black" fill-opacity="0.5"/>
</g>
<defs>
<linearGradient id="paint0_linear_37_4995" x1="30.2439" y1="187.933" x2="406.707" y2="187.933" gradientUnits="userSpaceOnUse">
<stop stop-color="white"/>
<stop offset="6.3e-07" stop-color="white"/>
<stop offset="1" stop-color="#E1E6F0"/>
</linearGradient>
</defs>
</svg>
