<svg width="700" height="520" viewBox="0 0 700 520" fill="none" xmlns="http://www.w3.org/2000/svg">
<g id="2">
<g id="Frame">
<g id="Group">
<g id="XMLID_5_">
<path id="Vector" d="M626.242 467.429C626.242 479.503 626.242 489.434 626.242 489.434H122.816C122.816 489.434 122.816 479.498 122.816 467.429V207.621C122.816 195.484 132.098 185.679 143.464 185.679H605.594C616.991 185.679 626.247 195.484 626.247 207.621V467.429H626.242Z" fill="#858BAA"/>
</g>
<g id="XMLID_4_">
<path id="Vector_2" d="M601.186 206.781H147.867V468.191H601.186V206.781Z" fill="white"/>
</g>
<g id="XMLID_3_">
<path id="Vector_3" d="M650.433 492.596C650.433 490.674 648.874 489.114 646.949 489.114H102.104C100.168 489.114 98.6252 490.674 98.6252 492.596L98.8088 500.453H650.244L650.433 492.596Z" fill="white"/>
</g>
<g id="XMLID_2_">
<path id="Vector_4" d="M98.8088 500.448L104.875 508.267C106.727 510.442 108.055 511.749 111.062 511.749H638.946C640.851 511.749 642.404 510.657 644.22 508.267L650.244 500.448H98.8088Z" fill="#6E738D"/>
</g>
<g id="XMLID_1_">
<path id="Vector_5" d="M294.936 489.109V493.137C294.936 494.192 296.668 495.048 298.793 495.048H450.254C452.385 495.048 454.127 494.192 454.127 493.137V489.109H294.936Z" fill="#DCDEE2"/>
</g>
</g>
<path id="Vector_6" d="M0 511.954H700V520H329.979H0V511.954Z" fill="#D65928"/>
<g id="Group_2">
<g id="Group_3">
<g id="Group_4">
<path id="Vector_7" d="M385.213 363.574C385.213 363.574 365.86 359.74 341.927 359.74C312.216 359.74 251.252 363.023 251.252 363.023V266.158L385.208 271.105V363.574H385.213Z" fill="white" stroke="black" stroke-width="0.9198" stroke-miterlimit="10"/>
<path id="Vector_8" d="M385.082 362.104C385.082 362.104 365.556 352.062 330.771 353.223C289.61 354.599 243.659 367.508 243.659 367.508V279.755L385.213 278.416L385.082 362.104Z" fill="white" stroke="black" stroke-width="0.9198" stroke-miterlimit="10"/>
<path id="Vector_9" d="M384.357 363.574C384.357 363.574 403.71 359.74 427.643 359.74C457.354 359.74 518.319 363.023 518.319 363.023V266.158L384.363 271.105V363.574H384.357Z" fill="white" stroke="black" stroke-width="0.9198" stroke-miterlimit="10"/>
<path id="Vector_10" d="M385.213 362.104C385.213 362.104 404.738 352.062 439.524 353.223C480.684 354.599 526.636 367.508 526.636 367.508V279.755L385.082 278.416L385.213 362.104Z" fill="white" stroke="black" stroke-width="0.9198" stroke-miterlimit="10"/>
<path id="Vector_11" d="M231.805 185.794V368.726C231.805 368.726 339.03 321.517 385.082 360.995V185.794C385.082 185.794 350.743 117.825 231.805 185.794Z" fill="white" stroke="black" stroke-width="0.913" stroke-miterlimit="10"/>
<path id="Vector_12" d="M538.359 185.794V368.726C538.359 368.726 426.211 313.235 385.082 360.995V185.794C385.082 185.794 419.415 117.825 538.359 185.794Z" fill="white" stroke="black" stroke-width="0.913" stroke-miterlimit="10"/>
<path id="Vector_13" d="M229.218 177.507V361.962C229.218 361.962 341.712 315.493 385.082 358.637V177.507C385.082 177.507 350.165 108.97 229.218 177.507Z" fill="white" stroke="black" stroke-width="0.9245" stroke-miterlimit="10"/>
<path id="Vector_14" d="M540.946 177.507V361.962C540.946 361.962 426.903 310.483 385.082 358.637V177.507C385.082 177.507 419.998 108.97 540.946 177.507Z" fill="white" stroke="black" stroke-width="0.9245" stroke-miterlimit="10"/>
</g>
<g id="Group_5">
<path id="Vector_15" d="M229.795 172.833H367.214C371.165 172.833 374.372 176.042 374.372 179.996V369.099C374.372 373.054 371.165 376.263 367.214 376.263L229.79 369.608C225.838 369.608 222.632 366.4 222.632 362.445V179.991C222.637 176.036 225.838 172.833 229.795 172.833Z" fill="#F36360"/>
<path id="Vector_16" d="M401.496 172.833H538.92C542.871 172.833 546.078 176.042 546.078 179.996V362.445C546.078 366.4 542.871 369.608 538.92 369.608L401.496 376.263C397.544 376.263 394.338 373.054 394.338 369.099V179.991C394.343 176.036 397.544 172.833 401.496 172.833Z" fill="#F36360"/>
<path id="Vector_17" d="M368.19 375.28L367.214 330.64L401.496 333.691V374.309L368.19 375.28Z" fill="#F36360"/>
<path id="Vector_18" d="M229.795 167.927H367.214C371.165 167.927 374.372 171.136 374.372 175.091V364.194C374.372 368.148 371.165 371.357 367.214 371.357L229.79 364.703C225.838 364.703 222.632 361.494 222.632 357.54V175.091C222.637 171.131 225.838 167.927 229.795 167.927Z" fill="#F36360"/>
<path id="Vector_19" d="M385.213 363.574C385.213 363.574 365.86 359.74 341.927 359.74C312.216 359.74 251.252 363.023 251.252 363.023V266.158L385.208 271.105V363.574H385.213Z" fill="#FFD6B9"/>
<path id="Vector_20" d="M385.082 362.103C385.082 362.103 365.556 352.062 330.771 353.223C289.61 354.599 243.659 367.508 243.659 367.508V279.755L385.213 278.416L385.082 362.103Z" fill="#FFC6B4"/>
<path id="Vector_21" d="M401.496 167.927H538.92C542.871 167.927 546.078 171.136 546.078 175.091V357.54C546.078 361.494 542.871 364.703 538.92 364.703L401.496 371.357C397.544 371.357 394.338 368.148 394.338 364.194V175.091C394.343 171.131 397.544 167.927 401.496 167.927Z" fill="#F36360"/>
<path id="Vector_22" d="M403.169 371.352C385.213 377.98 367.214 371.352 367.214 371.352V376.257C367.214 376.257 385.265 387.664 401.496 376.257L403.169 371.352Z" fill="#F36360"/>
<path id="Vector_23" d="M384.357 363.574C384.357 363.574 403.71 359.74 427.643 359.74C457.354 359.74 518.319 363.023 518.319 363.023V266.158L384.363 271.105V363.574H384.357Z" fill="#FFAE95"/>
<path id="Vector_24" d="M385.213 362.103C385.213 362.103 404.738 352.062 439.524 353.223C480.684 354.599 526.636 367.508 526.636 367.508V279.755L385.082 278.416L385.213 362.103Z" fill="#FFD6B9"/>
<path id="Vector_25" d="M231.805 185.794V368.726C231.805 368.726 339.03 321.517 385.082 360.995V185.794C385.082 185.794 350.743 117.825 231.805 185.794Z" fill="#FFEBDF"/>
<path id="Vector_26" d="M538.359 185.794V368.726C538.359 368.726 426.211 313.235 385.082 360.995V185.794C385.082 185.794 419.415 117.825 538.359 185.794Z" fill="#FFC6B4"/>
<path id="Vector_27" d="M229.218 177.507V361.962C229.218 361.962 341.712 315.493 385.082 358.637V177.507C385.082 177.507 350.165 108.97 229.218 177.507Z" fill="#FFD9C3"/>
<path id="Vector_28" d="M236.17 167.66V352.115C236.17 352.115 345.128 308.393 385.082 356.547V167.66C385.082 167.66 369.712 140.781 324.684 141.327C302.755 141.59 274.01 145.219 236.17 167.66Z" fill="white"/>
<path id="Vector_29" d="M540.946 177.507V361.962C540.946 361.962 426.903 310.483 385.082 358.637V177.507C385.082 177.507 419.998 108.97 540.946 177.507Z" fill="#FFD8B4"/>
<path id="Vector_30" d="M533.988 167.66V352.115C533.988 352.115 425.03 308.393 385.076 356.547V167.66C385.076 167.66 399.439 144.777 437.188 141.316C460.004 139.226 490.465 141.847 533.988 167.66Z" fill="white"/>
</g>
</g>
<path id="Vector_31" d="M245.768 175.9V206.203C245.768 206.203 268.657 197.091 287.695 197.091L286.283 161.646C286.283 161.646 255.36 162.124 245.768 175.9Z" fill="#DEDEDE"/>
<path id="Vector_32" d="M247.552 224.584C247.552 224.584 317.621 200.331 374.267 220.325" stroke="#DEDEDE" stroke-width="5" stroke-miterlimit="10"/>
<path id="Vector_33" d="M296.841 192.459C296.841 192.459 332.051 182.155 374.529 197.091" stroke="#DEDEDE" stroke-width="5" stroke-miterlimit="10"/>
<path id="Vector_34" d="M296.841 174.172C296.841 174.172 332.051 163.868 374.529 178.804" stroke="#DEDEDE" stroke-width="5" stroke-miterlimit="10"/>
<path id="Vector_35" d="M296.841 158.779C296.841 158.779 335.682 147.813 374.267 165.727" stroke="#DEDEDE" stroke-width="5" stroke-miterlimit="10"/>
<path id="Vector_36" d="M247.552 242.787C247.552 242.787 317.621 218.534 374.267 238.528" stroke="#DEDEDE" stroke-width="5" stroke-miterlimit="10"/>
<path id="Vector_37" d="M247.552 260.99C247.552 260.99 317.621 236.737 374.267 256.731" stroke="#DEDEDE" stroke-width="5" stroke-miterlimit="10"/>
<path id="Vector_38" d="M247.552 280.627C247.552 280.627 317.621 256.374 374.267 276.367" stroke="#DEDEDE" stroke-width="5" stroke-miterlimit="10"/>
<path id="Vector_39" d="M247.552 300.258C247.552 300.258 317.621 276.005 374.267 295.999" stroke="#DEDEDE" stroke-width="5" stroke-miterlimit="10"/>
<path id="Vector_40" d="M247.552 323.335C247.552 323.335 317.621 299.082 374.267 319.075" stroke="#DEDEDE" stroke-width="5" stroke-miterlimit="10"/>
<path id="Vector_41" d="M397.434 214.648C397.434 214.648 468.599 193.824 524.206 216.544" stroke="#DEDEDE" stroke-width="5" stroke-miterlimit="10"/>
<path id="Vector_42" d="M396.552 232.83C396.552 232.83 467.718 212.006 523.325 234.726" stroke="#DEDEDE" stroke-width="5" stroke-miterlimit="10"/>
<path id="Vector_43" d="M399.265 176.824C399.265 176.824 470.431 156.001 526.038 178.72" stroke="#DEDEDE" stroke-width="5" stroke-miterlimit="10"/>
<path id="Vector_44" d="M398.384 195.006C398.384 195.006 469.549 174.183 525.156 196.902" stroke="#DEDEDE" stroke-width="5" stroke-miterlimit="10"/>
<path id="Vector_45" d="M395.666 251.012C395.666 251.012 466.831 230.188 522.438 252.908" stroke="#DEDEDE" stroke-width="5" stroke-miterlimit="10"/>
<path id="Vector_46" d="M394.716 270.622C394.716 270.622 465.881 249.799 521.488 272.518" stroke="#DEDEDE" stroke-width="5" stroke-miterlimit="10"/>
<path id="Vector_47" d="M393.766 290.237C393.766 290.237 464.931 269.414 520.538 292.133" stroke="#DEDEDE" stroke-width="5" stroke-miterlimit="10"/>
<path id="Vector_48" d="M392.648 313.283C392.648 313.283 463.814 292.459 519.421 315.179" stroke="#DEDEDE" stroke-width="5" stroke-miterlimit="10"/>
</g>
<g id="Group_6">
<path id="Vector_49" opacity="0.4" d="M330.451 300.757C376.4 300.757 413.649 263.477 413.649 217.489C413.649 171.501 376.4 134.221 330.451 134.221C284.502 134.221 247.253 171.501 247.253 217.489C247.253 263.477 284.502 300.757 330.451 300.757Z" fill="#A4C7FF"/>
<path id="Vector_50" d="M186.115 381.971C189.489 381.977 192.722 380.622 195.094 378.216L276.266 295.783C281.157 290.841 281.12 282.869 276.182 277.969C271.244 273.074 263.279 273.111 258.383 278.053C258.367 278.069 258.346 278.09 258.33 278.106L177.163 360.539C172.288 365.496 172.346 373.469 177.3 378.353C179.65 380.669 182.815 381.971 186.115 381.971Z" fill="#B2EAF7"/>
<path id="Vector_51" d="M147.232 408.173C153.046 413.929 162.423 413.876 168.174 408.057C168.185 408.046 168.195 408.036 168.206 408.025L263.767 310.961C264.302 310.431 264.785 309.858 265.215 309.239C265.467 308.902 265.698 308.566 265.908 308.23C267.303 305.877 267.067 302.905 265.32 300.799C263.462 298.588 261.437 296.524 259.259 294.628C256.756 292.406 254.048 290.426 251.162 288.73C248.748 287.281 245.679 287.543 243.548 289.381C243.26 289.607 242.987 289.854 242.73 290.117L147.001 387.202C141.276 393.047 141.376 402.432 147.216 408.162C147.221 408.162 147.227 408.167 147.232 408.173Z" fill="#6E738D"/>
<path id="Vector_52" d="M242.588 216.717C242.588 216.686 242.588 216.654 242.588 216.628C242.588 167.313 282.531 127.331 331.81 127.331C381.083 127.331 421.032 167.308 421.032 216.628C421.032 265.948 381.088 305.925 331.81 305.925C282.594 305.862 242.698 265.974 242.588 216.717ZM331.81 137.961C288.377 138.003 253.183 173.248 253.162 216.717C253.214 260.155 288.408 295.337 331.81 295.337C375.243 295.337 410.458 260.097 410.458 216.622C410.458 173.153 375.248 137.908 331.81 137.908V137.961Z" fill="#B2EAF7"/>
<path id="Vector_53" d="M377.357 164.356C382.846 167.402 383.838 168.122 389.332 175.243C392.627 179.513 396.169 185.295 398.19 190.447C400.456 196.23 400.834 201.208 401.558 206.854C402.314 212.762 402.12 219.138 400.798 225.167C400.798 225.167 400.855 216.323 399.276 207.49C398.19 201.424 397.738 197.679 395.419 191.571C393.462 186.403 391.137 182.307 388.435 177.339C385.365 171.698 377.357 164.356 377.357 164.356Z" fill="white"/>
</g>
<g id="Group_7">
<path id="Vector_54" d="M638.065 197.228H543.679C537.865 197.228 533.153 192.511 533.153 186.692V137.535C533.148 131.716 537.86 127 543.674 127H638.059C643.874 127 648.586 131.716 648.586 137.535V186.692C648.591 192.511 643.879 197.228 638.065 197.228Z" fill="#D65928"/>
<path id="Vector_55" d="M560.298 160.701H543.323V184.597H560.298V160.701Z" fill="white"/>
<path id="Vector_56" d="M586.336 144.279H569.36V184.597H586.336V144.279Z" fill="white"/>
<path id="Vector_57" d="M612.379 157.487H595.403V184.597H612.379V157.487Z" fill="white"/>
<path id="Vector_58" d="M638.416 135.282H621.441V184.597H638.416V135.282Z" fill="white"/>
</g>
<g id="Book_4_">
<g id="Group_8">
<g id="Group_9">
<path id="Vector_59" d="M262.89 456.322C262.89 456.322 269.812 475.228 262.89 489.455H399.612V456.322H262.89Z" fill="white"/>
</g>
</g>
<g id="Group_10">
<g id="Group_11">
<path id="Vector_60" d="M493.593 466.873V479.372C493.593 486.283 487.994 491.892 481.083 491.892H263.079C261.993 491.892 261.117 491.015 261.117 489.928V489.828C261.117 488.741 261.993 487.864 263.079 487.864H386.986C391.945 487.864 395.965 483.841 395.965 478.878V467.272C395.965 462.309 391.945 458.291 386.992 458.291H263.079C262.539 458.291 262.045 458.07 261.689 457.713C261.306 457.325 261.08 456.784 261.122 456.185C261.195 455.14 262.114 454.357 263.163 454.357H481.094C487.994 454.357 493.593 459.961 493.593 466.873Z" fill="#485F9B"/>
</g>
</g>
<g id="Group_12">
<g id="Group_13">
<path id="Vector_61" d="M401.527 465.659V480.58C401.527 486.824 396.468 491.882 390.235 491.882H263.079C261.993 491.882 261.117 491.005 261.117 489.918V489.818C261.117 488.731 261.993 487.854 263.079 487.854H386.986C391.945 487.854 395.965 483.831 395.965 478.868V467.261C395.965 462.298 391.945 458.281 386.992 458.281H263.079C262.539 458.281 262.045 458.06 261.689 457.703C261.306 457.314 261.08 456.773 261.122 456.175C261.195 455.129 262.114 454.347 263.163 454.347H390.235C396.474 454.357 401.527 459.42 401.527 465.659Z" fill="#3C5691"/>
</g>
</g>
<g id="Group_14">
<g id="Group_15">
<path id="Vector_62" d="M340.762 478.075H282.647V479.209H340.762V478.075Z" fill="#B5B8C4"/>
</g>
</g>
<g id="Group_16">
<g id="Group_17">
<path id="Vector_63" d="M327.197 478.364H319.767V487.806H327.197V478.364Z" fill="#AFAFD5"/>
</g>
</g>
<g id="Group_18">
<g id="Group_19">
<path id="Vector_64" d="M322.852 486.625V516.613L314.698 509.292L306.911 516.613V487.806L322.852 486.625Z" fill="#A82329"/>
</g>
</g>
<g id="Group_20">
<g id="Group_21">
<path id="Vector_65" d="M327.203 478.364H311.397C311.397 478.364 311.397 485.448 306.916 487.806H322.716C322.716 487.806 327.203 486.625 327.203 478.364Z" fill="#EE504F"/>
</g>
</g>
</g>
<g id="Book_1_">
<g id="Group_22">
<g id="Group_23">
<path id="Vector_66" d="M491.819 419.007C491.819 419.007 484.898 437.914 491.819 452.141H355.098V419.007H491.819Z" fill="white"/>
</g>
</g>
<g id="Group_24">
<g id="Group_25">
<path id="Vector_67" d="M261.117 429.558V442.057C261.117 448.969 266.716 454.578 273.626 454.578H491.63C492.717 454.578 493.593 453.701 493.593 452.614V452.514C493.593 451.427 492.717 450.55 491.63 450.55H367.728C362.77 450.55 358.75 446.527 358.75 441.564V429.957C358.75 424.994 362.77 420.977 367.723 420.977H491.63C492.171 420.977 492.664 420.756 493.021 420.399C493.404 420.01 493.63 419.469 493.588 418.871C493.514 417.825 492.596 417.043 491.546 417.043H273.621C266.716 417.043 261.117 422.647 261.117 429.558Z" fill="#D65928"/>
</g>
</g>
<g id="Group_26">
<g id="Group_27">
<path id="Vector_68" d="M353.183 428.345V443.265C353.183 449.51 358.241 454.567 364.475 454.567H491.63C492.717 454.567 493.593 453.69 493.593 452.603V452.503C493.593 451.416 492.717 450.539 491.63 450.539H367.728C362.77 450.539 358.75 446.516 358.75 441.553V429.947C358.75 424.984 362.77 420.966 367.723 420.966H491.63C492.171 420.966 492.664 420.746 493.021 420.388C493.404 420 493.63 419.459 493.588 418.86C493.514 417.815 492.596 417.032 491.546 417.032H364.475C358.241 417.043 353.183 422.106 353.183 428.345Z" fill="#DB4545"/>
</g>
</g>
<g id="Group_28">
<g id="Group_29">
<path id="Vector_69" d="M472.063 440.76H413.948V441.895H472.063V440.76Z" fill="#B5B8C4"/>
</g>
</g>
<g id="Group_30">
<g id="Group_31">
<path id="Vector_70" d="M434.943 441.049H427.512V450.492H434.943V441.049Z" fill="#AFAFD5"/>
</g>
</g>
<g id="Group_32">
<g id="Group_33">
<path id="Vector_71" d="M431.862 449.31V479.298L440.012 471.977L447.799 479.298V450.492L431.862 449.31Z" fill="#E8A33F"/>
</g>
</g>
<g id="Group_34">
<g id="Group_35">
<path id="Vector_72" d="M427.512 441.049H443.317C443.317 441.049 443.317 448.134 447.799 450.492H431.993C431.993 450.492 427.512 449.31 427.512 441.049Z" fill="#FCC068"/>
</g>
</g>
</g>
<g id="Group-15-Copy-2_2_">
<g id="Group_36">
<g id="Group_37">
<path id="Vector_73" fill-rule="evenodd" clip-rule="evenodd" d="M183.733 130.303H83.817C80.0126 130.303 76.9271 133.392 76.9271 137.199V165.937C76.9271 169.745 80.0126 172.833 83.817 172.833H183.733C187.537 172.833 190.623 169.745 190.623 165.937V137.199C190.623 133.392 187.537 130.303 183.733 130.303Z" fill="#D65928"/>
<g id="Group_38">
<g id="Group_39">
<path id="Vector_74" d="M95.5292 141.222C89.9475 141.222 85.4227 145.781 85.4227 151.405C85.4227 157.029 89.9475 161.589 95.5292 161.589C101.111 161.589 105.636 157.029 105.636 151.405C105.636 145.781 101.111 141.222 95.5292 141.222Z" fill="white"/>
</g>
<path id="Vector_75" d="M92.2391 151.253L94.7893 153.826L98.7458 149.84" stroke="#D65928" stroke-width="3.52" stroke-linecap="round" stroke-linejoin="round"/>
</g>
<path id="Vector_76" d="M119.793 146.164H175.983" stroke="white" stroke-width="4.4" stroke-linecap="round" stroke-linejoin="round"/>
<path id="Vector_77" d="M119.793 157.66H153.009" stroke="white" stroke-width="4.4" stroke-linecap="round" stroke-linejoin="round"/>
</g>
</g>
</g>
<g id="Chat_icon_1_">
<g id="Group_40">
<path id="Vector_78" d="M116.068 197.228H182.028C183.974 197.228 185.554 198.808 185.554 200.757V229.516C185.554 231.464 183.974 233.045 182.028 233.045H177.599V244.62L166.983 233.045H116.068C114.121 233.045 112.541 231.464 112.541 229.516V200.757C112.541 198.808 114.121 197.228 116.068 197.228Z" fill="#998FF2"/>
</g>
<g id="Group_41">
<path id="Vector_79" d="M178.323 205.189H119.772V208.135H178.323V205.189Z" fill="white"/>
</g>
<g id="Group_42">
<path id="Vector_80" d="M178.323 213.477H119.772V216.423H178.323V213.477Z" fill="white"/>
</g>
<g id="Group_43">
<path id="Vector_81" d="M152.521 221.769H119.772V224.716H152.521V221.769Z" fill="white"/>
</g>
</g>
</g>
<rect id="Rectangle 17" width="700" height="520" fill="black" fill-opacity="0.5"/>
</g>
</svg>
