<svg width="700" height="520" viewBox="0 0 700 520" fill="none" xmlns="http://www.w3.org/2000/svg">
<g id="1">
<g id="Frame">
<g id="Group">
<g id="Group_2">
<path id="Vector" d="M589.099 326.654C587.604 327.654 586.098 328.648 584.591 329.618C584.413 329.734 584.167 329.685 584.05 329.501C583.933 329.323 583.988 329.09 584.167 328.961C586.762 327.286 589.333 325.574 591.879 323.813H591.885C592.063 323.696 592.303 323.739 592.426 323.917C592.549 324.095 592.506 324.334 592.328 324.457C591.252 325.199 590.175 325.93 589.099 326.654ZM599.868 319.063C599.696 319.18 599.462 319.137 599.339 318.971C599.21 318.799 599.247 318.554 599.419 318.425C601.916 316.572 604.388 314.669 606.762 312.773C606.935 312.644 607.175 312.663 607.31 312.835C607.445 313 607.421 313.246 607.248 313.381C604.868 315.289 602.39 317.198 599.88 319.051C599.874 319.051 599.874 319.057 599.868 319.063ZM576.719 334.533C576.712 334.539 576.706 334.539 576.7 334.545C574.092 336.122 571.393 337.705 568.68 339.246C568.496 339.35 568.256 339.289 568.145 339.098C568.041 338.914 568.096 338.675 568.293 338.565C570.999 337.03 573.693 335.447 576.294 333.876C576.479 333.766 576.719 333.821 576.829 334.005C576.946 334.183 576.891 334.416 576.719 334.533ZM560.587 343.707C560.574 343.713 560.562 343.719 560.55 343.725C557.844 345.173 555.07 346.616 552.296 348.015C552.105 348.113 551.872 348.033 551.773 347.843C551.675 347.653 551.749 347.413 551.945 347.321C554.713 345.922 557.481 344.486 560.181 343.044C560.371 342.94 560.605 343.013 560.71 343.204C560.808 343.375 560.746 343.596 560.587 343.707ZM614.358 307.459C614.198 307.57 613.977 307.539 613.848 307.392C613.706 307.232 613.725 306.987 613.884 306.845C616.246 304.802 618.552 302.709 620.754 300.629C620.914 300.476 621.16 300.488 621.308 300.641C621.455 300.795 621.449 301.046 621.295 301.194C619.088 303.28 616.769 305.379 614.401 307.435C614.383 307.441 614.37 307.447 614.358 307.459ZM627.833 294.701C627.686 294.8 627.483 294.787 627.347 294.658C627.194 294.511 627.187 294.266 627.335 294.106C629.469 291.891 631.548 289.627 633.516 287.368L633.59 287.283C633.731 287.123 633.977 287.098 634.137 287.24C634.303 287.381 634.322 287.626 634.18 287.786L634.1 287.878C632.126 290.142 630.035 292.419 627.895 294.64C627.876 294.671 627.858 294.689 627.833 294.701ZM640.011 280.717C639.875 280.809 639.691 280.809 639.556 280.698C639.383 280.569 639.353 280.324 639.488 280.152C641.407 277.697 643.252 275.194 644.98 272.709C645.103 272.531 645.343 272.488 645.521 272.61C645.7 272.733 645.743 272.979 645.62 273.15C643.885 275.648 642.028 278.164 640.103 280.631C640.072 280.667 640.041 280.692 640.011 280.717ZM650.558 265.48C650.435 265.56 650.275 265.572 650.14 265.492C649.956 265.382 649.894 265.142 650.011 264.958C651.616 262.307 653.141 259.595 654.537 256.901C654.636 256.711 654.87 256.637 655.06 256.735C655.251 256.834 655.325 257.067 655.226 257.257C653.824 259.963 652.286 262.694 650.675 265.357C650.644 265.406 650.607 265.449 650.558 265.48ZM659.076 249.028C658.972 249.102 658.83 249.114 658.701 249.065C658.504 248.979 658.412 248.752 658.498 248.556C659.728 245.708 660.848 242.806 661.832 239.94C661.899 239.738 662.121 239.627 662.33 239.695C662.533 239.762 662.643 239.983 662.576 240.192C661.586 243.076 660.46 245.991 659.224 248.862C659.181 248.93 659.132 248.985 659.076 249.028ZM665.067 231.509C664.981 231.57 664.864 231.588 664.753 231.564C664.544 231.509 664.415 231.3 664.47 231.091C665.233 228.091 665.866 225.053 666.358 222.059C666.395 221.844 666.592 221.703 666.807 221.739C667.022 221.776 667.164 221.973 667.127 222.187C666.635 225.206 665.995 228.269 665.227 231.288C665.202 231.374 665.147 231.453 665.067 231.509ZM668.043 213.24C667.976 213.29 667.89 213.314 667.797 213.308C667.582 213.296 667.422 213.105 667.435 212.891C667.656 209.81 667.724 206.705 667.65 203.668C667.644 203.453 667.816 203.275 668.031 203.269C668.246 203.263 668.425 203.435 668.431 203.649C668.511 206.717 668.437 209.841 668.216 212.946C668.203 213.069 668.142 213.173 668.043 213.24ZM667.557 194.739C667.508 194.77 667.453 194.794 667.391 194.801C667.176 194.825 666.979 194.678 666.955 194.463C666.561 191.401 666.008 188.345 665.307 185.387C665.257 185.179 665.386 184.97 665.596 184.921C665.805 184.872 666.014 185.001 666.063 185.209C666.77 188.192 667.33 191.272 667.724 194.365C667.742 194.518 667.674 194.659 667.557 194.739ZM654.162 196.439C653.984 196.556 653.744 196.513 653.621 196.335C653.498 196.157 653.541 195.917 653.719 195.795C656.241 194.052 658.683 192.131 660.964 190.082C661.124 189.934 661.37 189.953 661.518 190.112C661.659 190.272 661.647 190.517 661.487 190.665C659.181 192.733 656.715 194.678 654.162 196.439ZM646.21 201.213C646.198 201.219 646.185 201.232 646.173 201.238C643.375 202.68 640.49 203.925 637.606 204.938C637.403 205.012 637.181 204.901 637.108 204.699C637.034 204.496 637.138 204.275 637.348 204.202C640.201 203.195 643.049 201.968 645.816 200.538C646.007 200.44 646.241 200.514 646.339 200.704C646.425 200.894 646.37 201.109 646.21 201.213ZM667.939 184.08C667.797 184.178 667.601 184.166 667.465 184.05C667.299 183.908 667.281 183.663 667.422 183.503C669.439 181.159 671.303 178.686 672.964 176.14C673.08 175.956 673.32 175.907 673.505 176.023C673.683 176.14 673.739 176.379 673.622 176.563C671.943 179.14 670.061 181.644 668.019 184.013C667.988 184.037 667.963 184.062 667.939 184.08ZM628.731 207.319C628.688 207.35 628.639 207.368 628.583 207.38C625.441 207.969 622.31 208.282 619.284 208.307C619.069 208.307 618.891 208.135 618.891 207.92C618.891 207.705 619.063 207.527 619.278 207.527C622.261 207.503 625.342 207.196 628.442 206.613C628.651 206.576 628.86 206.711 628.897 206.926C628.928 207.08 628.854 207.233 628.731 207.319ZM678.007 168.574C677.896 168.647 677.755 168.666 677.625 168.604C677.429 168.512 677.343 168.285 677.435 168.089C678.739 165.297 679.833 162.4 680.694 159.485C680.756 159.277 680.971 159.16 681.18 159.222C681.389 159.283 681.506 159.498 681.445 159.706C680.571 162.658 679.458 165.591 678.142 168.42C678.111 168.481 678.062 168.537 678.007 168.574ZM663.258 176.747C663.234 176.766 663.203 176.778 663.172 176.79C662.969 176.864 662.748 176.76 662.674 176.557C661.623 173.642 660.399 170.789 659.039 168.083C658.941 167.892 659.027 167.659 659.212 167.561C659.402 167.463 659.636 167.543 659.734 167.733C661.106 170.464 662.342 173.348 663.406 176.293C663.468 176.465 663.406 176.649 663.258 176.747ZM610.268 207.368C610.182 207.423 610.077 207.448 609.973 207.429C606.849 206.791 603.866 205.797 601.098 204.472C600.901 204.38 600.821 204.146 600.914 203.95C601.006 203.754 601.24 203.674 601.436 203.766C604.142 205.061 607.064 206.036 610.127 206.662C610.336 206.705 610.471 206.914 610.428 207.122C610.41 207.227 610.348 207.313 610.268 207.368ZM683.228 150.858C683.154 150.907 683.056 150.931 682.964 150.919C682.749 150.895 682.601 150.698 682.626 150.483C682.976 147.71 683.075 144.623 682.921 141.297C682.908 141.082 683.081 140.898 683.29 140.892C683.505 140.88 683.69 141.046 683.696 141.26C683.856 144.629 683.751 147.765 683.394 150.582C683.382 150.704 683.314 150.802 683.228 150.858ZM654.925 160.234C654.747 160.351 654.507 160.308 654.384 160.13C652.637 157.546 650.724 155.11 648.695 152.883C648.547 152.723 648.559 152.478 648.719 152.33C648.873 152.183 649.125 152.195 649.273 152.355C651.321 154.613 653.258 157.08 655.029 159.694C655.152 159.866 655.103 160.111 654.925 160.234ZM593.693 199.434C593.552 199.526 593.367 199.526 593.232 199.415C590.803 197.439 588.582 195.212 586.639 192.794C586.504 192.628 586.528 192.383 586.7 192.248C586.866 192.113 587.113 192.137 587.248 192.309C589.154 194.684 591.338 196.875 593.724 198.814C593.89 198.949 593.915 199.194 593.779 199.36C593.755 199.384 593.724 199.409 593.693 199.434ZM682.546 132.393C682.503 132.424 682.447 132.448 682.392 132.455C682.177 132.491 681.98 132.344 681.943 132.129C681.482 129.221 680.854 126.177 680.092 123.078C680.042 122.869 680.165 122.661 680.375 122.606C680.584 122.557 680.793 122.679 680.848 122.888C681.617 126.005 682.244 129.073 682.712 132C682.736 132.16 682.669 132.307 682.546 132.393ZM642.452 146.587C642.317 146.679 642.126 146.679 641.991 146.568C639.537 144.611 636.954 142.905 634.316 141.5C634.125 141.395 634.051 141.162 634.156 140.972C634.254 140.782 634.494 140.708 634.685 140.812C637.366 142.242 639.986 143.979 642.477 145.961C642.643 146.096 642.674 146.341 642.538 146.507C642.514 146.538 642.483 146.562 642.452 146.587ZM582.18 185.068C582.168 185.08 582.149 185.087 582.137 185.093C581.946 185.185 581.713 185.111 581.614 184.915C580.218 182.08 579.154 179.122 578.459 176.121C578.41 175.913 578.545 175.704 578.754 175.655C578.963 175.606 579.173 175.735 579.222 175.95C579.904 178.895 580.944 181.791 582.315 184.571C582.401 184.749 582.34 184.958 582.18 185.068ZM678.154 114.389C678.124 114.407 678.093 114.426 678.056 114.438C677.853 114.506 677.632 114.389 677.564 114.186C676.641 111.308 675.602 108.375 674.477 105.467C674.397 105.264 674.495 105.043 674.698 104.963C674.901 104.884 675.122 104.988 675.202 105.184C676.334 108.105 677.379 111.051 678.308 113.947C678.363 114.119 678.296 114.297 678.154 114.389ZM626.136 137.977C626.043 138.039 625.927 138.063 625.81 138.026C622.821 137.167 619.776 136.664 616.757 136.535C616.541 136.523 616.375 136.345 616.381 136.13C616.394 135.915 616.572 135.75 616.787 135.756C619.862 135.891 622.968 136.4 626.019 137.278C626.228 137.339 626.345 137.554 626.283 137.756C626.265 137.848 626.21 137.928 626.136 137.977ZM578.115 167.162C578.047 167.205 577.973 167.23 577.887 167.23C577.672 167.223 577.5 167.046 577.506 166.831C577.592 163.628 578.121 160.529 579.08 157.614C579.148 157.411 579.369 157.301 579.572 157.362C579.775 157.43 579.886 157.651 579.824 157.853C578.896 160.694 578.379 163.72 578.293 166.849C578.281 166.984 578.213 167.095 578.115 167.162ZM671.469 97.1027C671.451 97.1149 671.432 97.1272 671.414 97.1333C671.217 97.2193 670.983 97.1333 670.897 96.937C669.636 94.1572 668.277 91.3528 666.856 88.6099C666.758 88.4196 666.832 88.1803 667.022 88.0821C667.213 87.9839 667.447 88.0576 667.545 88.2478C668.972 91.0031 670.337 93.8135 671.604 96.6118C671.684 96.7958 671.623 96.9984 671.469 97.1027ZM607.728 136.971C607.679 137.002 607.624 137.026 607.562 137.032C604.382 137.474 601.375 138.204 598.632 139.198C598.429 139.272 598.207 139.168 598.134 138.965C598.06 138.763 598.164 138.542 598.367 138.468C601.166 137.456 604.222 136.713 607.457 136.259C607.673 136.228 607.87 136.376 607.9 136.591C607.919 136.744 607.851 136.885 607.728 136.971ZM583.89 149.851C583.754 149.943 583.576 149.943 583.441 149.839C583.269 149.71 583.232 149.471 583.361 149.293C585.2 146.801 587.457 144.605 590.058 142.758C590.231 142.653 590.477 142.672 590.6 142.85C590.723 143.028 590.686 143.267 590.507 143.39C587.974 145.188 585.778 147.329 583.988 149.753C583.957 149.796 583.927 149.827 583.89 149.851ZM662.939 80.6387C662.933 80.6448 662.926 80.6448 662.92 80.6509C662.736 80.7614 662.496 80.7 662.385 80.5098C660.829 77.8527 659.187 75.2141 657.496 72.6552C657.379 72.4772 657.428 72.2379 657.606 72.1213C657.606 72.1213 657.606 72.1213 657.613 72.1213C657.791 72.0047 658.037 72.0538 658.154 72.2318C659.845 74.8029 661.5 77.4539 663.062 80.1232C663.16 80.295 663.111 80.5221 662.939 80.6387ZM652.723 65.1626C652.551 65.2792 652.317 65.2363 652.194 65.0706C650.343 62.573 648.424 60.1246 646.481 57.7928C646.345 57.6271 646.364 57.3816 646.53 57.2466C646.696 57.1116 646.942 57.13 647.077 57.2957C649.033 59.6398 650.964 62.1005 652.822 64.6103C652.951 64.7822 652.914 65.0276 652.742 65.1565C652.735 65.1565 652.729 65.1565 652.723 65.1626ZM640.853 50.9139C640.699 51.0182 640.484 50.9998 640.355 50.8586C638.221 48.5943 636.019 46.3913 633.799 44.3233C633.639 44.1761 633.633 43.9306 633.78 43.7711C633.928 43.6115 634.174 43.6054 634.334 43.7527C636.56 45.8329 638.781 48.042 640.921 50.3248C641.068 50.4843 641.062 50.7298 640.902 50.877C640.884 50.8893 640.866 50.9077 640.853 50.9139ZM627.28 38.2667C627.138 38.3588 626.954 38.3588 626.818 38.2483C624.401 36.2908 621.917 34.4192 619.42 32.6948C619.241 32.5721 619.198 32.3328 619.321 32.1548C619.444 31.9769 619.684 31.9339 619.862 32.0567C622.372 33.7933 624.881 35.6771 627.31 37.6469C627.476 37.7819 627.501 38.0274 627.366 38.1931C627.341 38.2238 627.31 38.2483 627.28 38.2667ZM612.021 27.7243C611.904 27.8041 611.744 27.8164 611.609 27.7366C608.921 26.1841 606.16 24.7482 603.411 23.4657C603.214 23.3736 603.128 23.1466 603.22 22.9502C603.312 22.76 603.54 22.6679 603.737 22.76C606.51 24.0486 609.29 25.4968 611.996 27.0616C612.181 27.1721 612.248 27.4052 612.138 27.5955C612.113 27.6507 612.07 27.6937 612.021 27.7243ZM595.206 19.925C595.108 19.9925 594.979 20.0109 594.856 19.9679C591.94 18.9309 588.964 18.0349 586.005 17.3047C585.796 17.2556 585.667 17.0408 585.723 16.8322C585.772 16.6236 585.987 16.4947 586.196 16.5499C589.179 17.2863 592.18 18.1945 595.12 19.2377C595.323 19.3113 595.428 19.5322 595.354 19.7347C595.329 19.8145 595.274 19.882 595.206 19.925ZM577.211 15.4761C577.131 15.5251 577.038 15.5497 576.94 15.5374C573.908 15.1017 570.808 14.8195 567.733 14.6967C567.518 14.6906 567.352 14.5065 567.358 14.2917C567.364 14.0769 567.549 13.9113 567.764 13.9174C570.864 14.0401 573.988 14.3285 577.045 14.7642C577.26 14.7949 577.407 14.9913 577.377 15.206C577.358 15.3165 577.297 15.4147 577.211 15.4761Z" fill="#EFAD9B"/>
</g>
<g id="Group_3">
<path id="Vector_2" d="M558.532 14.7274C558.477 14.7642 558.409 14.7887 558.342 14.7949C556.81 14.8869 555.248 15.0219 553.698 15.1876C553.483 15.2122 553.292 15.0587 553.268 14.844C553.243 14.6292 553.397 14.439 553.612 14.4144C555.174 14.2426 556.749 14.1076 558.293 14.0156C558.508 14.0033 558.692 14.1628 558.705 14.3776C558.711 14.5249 558.643 14.6537 558.532 14.7274Z" fill="#EFAD9B"/>
</g>
<g id="Group_4">
<g id="Group_5">
<path id="Vector_3" d="M541.115 16.9795L557.61 6.85437L554.602 14.7581L559.996 21.2811L541.115 16.9795Z" fill="#EFAD9B"/>
</g>
</g>
</g>
<g id="Group_6">
<path id="Vector_4" d="M682.841 115.714H638.073L624.518 126.821V115.714H620.029C615.84 115.714 612.439 112.327 612.439 108.142V66.5863C612.439 62.4074 615.834 59.0139 620.029 59.0139H682.841C687.029 59.0139 690.43 62.4012 690.43 66.5863V108.142C690.424 112.327 687.029 115.714 682.841 115.714Z" fill="#D65928"/>
<path id="Vector_5" d="M638.073 92.5556C640.944 92.5556 643.27 90.2341 643.27 87.3703C643.27 84.5066 640.944 82.1851 638.073 82.1851C635.203 82.1851 632.876 84.5066 632.876 87.3703C632.876 90.2341 635.203 92.5556 638.073 92.5556Z" fill="white"/>
<path id="Vector_6" d="M653.461 92.5556C656.331 92.5556 658.658 90.2341 658.658 87.3703C658.658 84.5066 656.331 82.1851 653.461 82.1851C650.591 82.1851 648.264 84.5066 648.264 87.3703C648.264 90.2341 650.591 92.5556 653.461 92.5556Z" fill="white"/>
<path id="Vector_7" d="M668.843 92.5556C671.713 92.5556 674.04 90.2341 674.04 87.3703C674.04 84.5066 671.713 82.1851 668.843 82.1851C665.973 82.1851 663.646 84.5066 663.646 87.3703C663.646 90.2341 665.973 92.5556 668.843 92.5556Z" fill="white"/>
</g>
<g id="Group_7">
<g id="Group_8">
<path id="Vector_8" d="M238.622 350.69L214.077 509.654L149.364 509.126L181.942 350.162L238.622 350.69Z" fill="#DFDFF4"/>
<path id="Vector_9" d="M244.016 350.69L220.485 509.832L214.077 509.654L238.622 350.69H244.016Z" fill="#BFBFD8"/>
<path id="Vector_10" opacity="0.3" d="M173.762 388.717L238.622 350.69L181.942 350.162L173.762 388.717Z" fill="#BFBFD8"/>
</g>
<g id="Group_9">
<path id="Vector_11" d="M508.986 350.69L533.532 509.654L598.244 509.126L565.66 350.162L508.986 350.69Z" fill="#DFDFF4"/>
<path id="Vector_12" opacity="0.3" d="M573.846 388.717L508.986 350.69L565.661 350.162L573.846 388.717Z" fill="#BFBFD8"/>
<path id="Vector_13" d="M560.519 350.162L593.742 508.598L598.244 509.126L565.661 350.162H560.519Z" fill="#BFBFD8"/>
</g>
<path id="Vector_14" d="M573.822 343.603H163.897V351.218H573.822V343.603Z" fill="#DFDFF4"/>
<path id="Vector_15" d="M259.078 343.603H163.897V350.966H259.078V343.603Z" fill="#BFBFD8"/>
</g>
<g id="Group_10">
<path id="Vector_16" d="M478.106 341.633H558.293C559.012 341.633 559.664 341.197 559.935 340.528L579.246 292.621C579.714 291.461 578.859 290.197 577.604 290.197H497.418C496.698 290.197 496.046 290.633 495.775 291.302L476.464 339.209C475.996 340.369 476.851 341.633 478.106 341.633Z" fill="#AAADC1"/>
<path id="Vector_17" d="M481.242 338.896H556.472L574.72 294.419H499.49L481.242 338.896Z" fill="white"/>
<path id="Vector_18" d="M485.923 333.723H541.81L555.371 300.684H499.484L485.923 333.723Z" fill="#B2EAF7"/>
<path id="Vector_19" d="M554.541 307.796H566.558L569.474 300.697H557.456L554.541 307.796Z" fill="#B2EAF7"/>
<path id="Vector_20" d="M550.808 317.204H562.825L565.74 310.104H553.723L550.808 317.204Z" fill="#B2EAF7"/>
<path id="Vector_21" d="M547.431 325.831H559.443L562.358 318.725H550.347L547.431 325.831Z" fill="#B2EAF7"/>
<path id="Vector_22" d="M544.129 333.981H556.146L559.061 326.881H547.044L544.129 333.981Z" fill="#B2EAF7"/>
<path id="Vector_23" d="M445.692 344.529L559.589 344.529L559.589 341.633L445.692 341.633L445.692 344.529Z" fill="#858BAA"/>
<path id="Vector_24" opacity="0.17" d="M502.587 344.529L559.588 344.529L559.588 341.633L502.587 341.633L502.587 344.529Z" fill="black"/>
</g>
<path id="Vector_25" opacity="0.15" fill-rule="evenodd" clip-rule="evenodd" d="M404.014 13.9174L427.09 0C427.09 9.27826 427.09 18.5565 427.09 27.8348L404.014 13.9174ZM423.27 6.42483L410.847 13.9174L423.27 21.41V6.42483Z" fill="white"/>
<g id="Group_11">
<path id="Vector_26" d="M201.739 182.129H77.357C73.7591 182.129 70.8377 179.22 70.8377 175.624V69.5686C70.8377 65.9788 73.7529 63.064 77.357 63.064H201.739C205.337 63.064 208.258 65.9726 208.258 69.5686V175.624C208.252 179.214 205.337 182.129 201.739 182.129Z" fill="white"/>
<path id="Vector_27" d="M133.318 105.147C133.306 109.437 131.793 113.37 129.277 116.457L139.493 123.544C143.392 118.445 145.723 112.088 145.741 105.178C145.784 88.4994 132.371 74.9256 115.704 74.6802L115.673 87.0757C125.476 87.3028 133.343 95.3108 133.318 105.147Z" fill="#56A8ED"/>
<path id="Vector_28" d="M127.444 117.212C124.129 121.305 119.062 123.925 113.385 123.925C103.403 123.925 95.3156 115.849 95.3156 105.896C95.3156 95.9368 103.409 87.8674 113.385 87.8674C113.514 87.8674 113.637 87.8735 113.76 87.8796V75.4841C113.637 75.4841 113.508 75.4718 113.385 75.4718C96.5457 75.4718 82.8922 89.0947 82.8922 105.896C82.8922 122.698 96.5457 136.321 113.385 136.321C123.305 136.321 132.112 131.595 137.685 124.275L127.444 117.212Z" fill="#F45D5D"/>
<path id="30%" opacity="0.8" d="M107.394 107.337H108.514C109.218 107.326 109.772 107.14 110.175 106.78C110.578 106.42 110.78 105.934 110.78 105.321C110.78 103.946 110.094 103.258 108.724 103.258C108.079 103.258 107.563 103.443 107.176 103.814C106.795 104.179 106.604 104.666 106.604 105.273H105.113C105.113 104.343 105.451 103.572 106.128 102.959C106.811 102.341 107.676 102.032 108.724 102.032C109.831 102.032 110.699 102.325 111.328 102.911C111.956 103.497 112.271 104.311 112.271 105.354C112.271 105.864 112.104 106.358 111.771 106.837C111.443 107.315 110.995 107.672 110.425 107.909C111.07 108.113 111.567 108.452 111.916 108.925C112.271 109.397 112.448 109.975 112.448 110.658C112.448 111.711 112.104 112.547 111.416 113.165C110.728 113.783 109.834 114.092 108.732 114.092C107.63 114.092 106.733 113.793 106.04 113.197C105.352 112.6 105.008 111.813 105.008 110.835H106.507C106.507 111.453 106.709 111.947 107.112 112.318C107.515 112.689 108.055 112.874 108.732 112.874C109.452 112.874 110.003 112.686 110.385 112.31C110.766 111.934 110.957 111.394 110.957 110.69C110.957 110.007 110.747 109.483 110.328 109.118C109.909 108.753 109.304 108.564 108.514 108.554H107.394V107.337ZM121.855 108.925C121.855 110.671 121.557 111.969 120.961 112.818C120.364 113.667 119.432 114.092 118.163 114.092C116.911 114.092 115.984 113.678 115.382 112.85C114.78 112.017 114.469 110.776 114.447 109.126V107.135C114.447 105.41 114.746 104.128 115.342 103.29C115.939 102.452 116.874 102.032 118.147 102.032C119.41 102.032 120.34 102.438 120.936 103.25C121.533 104.056 121.839 105.302 121.855 106.99V108.925ZM120.364 106.885C120.364 105.622 120.187 104.703 119.832 104.128C119.477 103.548 118.916 103.258 118.147 103.258C117.384 103.258 116.828 103.545 116.479 104.12C116.129 104.695 115.949 105.579 115.939 106.772V109.158C115.939 110.427 116.121 111.364 116.487 111.972C116.858 112.573 117.416 112.874 118.163 112.874C118.9 112.874 119.445 112.59 119.8 112.02C120.16 111.45 120.348 110.553 120.364 109.328V106.885ZM105.097 123.451C105.097 122.747 105.32 122.166 105.766 121.71C106.217 121.253 106.795 121.024 107.499 121.024C108.213 121.024 108.791 121.255 109.232 121.718C109.678 122.174 109.901 122.768 109.901 123.499V124.071C109.901 124.781 109.675 125.361 109.224 125.813C108.778 126.259 108.208 126.482 107.515 126.482C106.816 126.482 106.239 126.259 105.782 125.813C105.325 125.361 105.097 124.762 105.097 124.015V123.451ZM106.209 124.071C106.209 124.491 106.327 124.837 106.564 125.111C106.8 125.38 107.117 125.514 107.515 125.514C107.896 125.514 108.203 125.383 108.434 125.119C108.67 124.856 108.788 124.496 108.788 124.039V123.451C108.788 123.032 108.673 122.685 108.442 122.411C108.211 122.137 107.896 122 107.499 122C107.101 122 106.787 122.137 106.556 122.411C106.325 122.685 106.209 123.042 106.209 123.483V124.071ZM110.812 130.053C110.812 129.349 111.035 128.771 111.481 128.32C111.932 127.863 112.51 127.634 113.214 127.634C113.918 127.634 114.496 127.86 114.947 128.311C115.398 128.763 115.624 129.362 115.624 130.109V130.681C115.624 131.385 115.398 131.966 114.947 132.423C114.501 132.874 113.929 133.1 113.23 133.1C112.531 133.1 111.954 132.877 111.497 132.431C111.04 131.979 110.812 131.38 110.812 130.633V130.053ZM111.924 130.681C111.924 131.106 112.042 131.455 112.279 131.729C112.515 131.998 112.832 132.132 113.23 132.132C113.617 132.132 113.926 132.001 114.157 131.737C114.388 131.469 114.504 131.106 114.504 130.649V130.053C114.504 129.628 114.385 129.281 114.149 129.013C113.918 128.744 113.606 128.61 113.214 128.61C112.832 128.61 112.521 128.744 112.279 129.013C112.042 129.276 111.924 129.633 111.924 130.085V130.681ZM107.853 132.044L107.007 131.512L112.738 122.338L113.585 122.87L107.853 132.044Z" fill="#F72828"/>
<path id="Vector_29" opacity="0.5" d="M195.435 74.6802H149.395V85.1735H195.435V74.6802Z" fill="url(#paint0_linear_37_4989)"/>
<path id="Vector_30" opacity="0.5" d="M172.415 87.7507H149.395V92.9974H172.415V87.7507Z" fill="url(#paint1_linear_37_4989)"/>
<path id="Vector_31" opacity="0.5" d="M196.204 109.253H166.578V114.512H196.204V109.253Z" fill="url(#paint2_linear_37_4989)"/>
<path id="Vector_32" opacity="0.5" d="M196.204 121.268H166.578V126.527H196.204V121.268Z" fill="url(#paint3_linear_37_4989)"/>
<path id="Vector_33" d="M156.32 109.253H150.514V114.512H156.32V109.253Z" fill="url(#paint4_linear_37_4989)"/>
<path id="Vector_34" d="M156.32 121.268H150.514V126.527H156.32V121.268Z" fill="url(#paint5_linear_37_4989)"/>
<path id="Vector_35" opacity="0.5" d="M196.21 146.716H82.886V151.974H196.21V146.716Z" fill="url(#paint6_linear_37_4989)"/>
<path id="Vector_36" opacity="0.5" d="M196.21 156.859H82.886V162.118H196.21V156.859Z" fill="url(#paint7_linear_37_4989)"/>
<path id="Vector_37" opacity="0.5" d="M196.21 167.003H82.886V172.261H196.21V167.003Z" fill="url(#paint8_linear_37_4989)"/>
</g>
<g id="Group_12">
<g id="Group_13">
<path id="Vector_38" d="M581.405 273.242H237.632C231.396 273.242 226.34 268.198 226.34 261.976V67.1263C226.34 51.5091 239.028 38.8558 254.674 38.8558H564.357C580.009 38.8558 592.691 51.5153 592.691 67.1263V261.976C592.697 268.198 587.641 273.242 581.405 273.242Z" fill="#D65928" fill-opacity="0.28"/>
<path id="Vector_39" d="M592.697 68.01H226.34V55.866C226.34 46.4711 233.973 38.8558 243.389 38.8558H575.655C585.071 38.8558 592.703 46.4711 592.703 55.866V68.01H592.697Z" fill="#D65928"/>
<path id="Vector_40" d="M249.76 57.4062C251.961 57.4062 253.746 55.6259 253.746 53.4298C253.746 51.2337 251.961 49.4534 249.76 49.4534C247.559 49.4534 245.775 51.2337 245.775 53.4298C245.775 55.6259 247.559 57.4062 249.76 57.4062Z" fill="#F4515E"/>
<path id="Vector_41" d="M265.794 57.4062C267.995 57.4062 269.779 55.6259 269.779 53.4298C269.779 51.2337 267.995 49.4534 265.794 49.4534C263.593 49.4534 261.808 51.2337 261.808 53.4298C261.808 55.6259 263.593 57.4062 265.794 57.4062Z" fill="#F4B664"/>
<path id="Vector_42" d="M283.384 57.4062C285.585 57.4062 287.369 55.6259 287.369 53.4298C287.369 51.2337 285.585 49.4534 283.384 49.4534C281.182 49.4534 279.398 51.2337 279.398 53.4298C279.398 55.6259 281.182 57.4062 283.384 57.4062Z" fill="#93ED6E"/>
</g>
<g id="Group_14">
<g id="Group_15">
<path id="Vector_43" d="M255.874 113.395H254.779V227.084H255.874V113.395Z" fill="#47B4EA"/>
</g>
<g id="Group_16">
<path id="Vector_44" d="M333.649 113.395H332.555V227.084H333.649V113.395Z" fill="#47B4EA"/>
</g>
<g id="Group_17">
<path id="Vector_45" d="M411.419 113.395H410.324V227.084H411.419V113.395Z" fill="#47B4EA"/>
</g>
<g id="Group_18">
<path id="Vector_46" d="M489.189 113.395H488.094V227.084H489.189V113.395Z" fill="#47B4EA"/>
</g>
<g id="Group_19">
<path id="Vector_47" d="M566.964 113.395H565.87V227.084H566.964V113.395Z" fill="#47B4EA"/>
</g>
<path id="Vector_48" d="M267.7 233.822H255.326V237.774H267.7V233.822Z" fill="#47B4EA"/>
<path id="Vector_49" d="M273.955 99.3855H255.326V102.349H273.955V99.3855Z" fill="#47B4EA"/>
<path id="Vector_50" d="M281.748 104.859H255.326V107.823H281.748V104.859Z" fill="#47B4EA"/>
<path id="Vector_51" d="M354.13 99.3855H332.259V102.349H354.13V99.3855Z" fill="#47B4EA"/>
<path id="Vector_52" d="M346.245 104.859H332.259V107.823H346.245V104.859Z" fill="#47B4EA"/>
<path id="Vector_53" d="M424.974 99.3855H411.419V102.349H424.974V99.3855Z" fill="#47B4EA"/>
<path id="Vector_54" d="M427.213 104.859H411.419V107.823H427.213V104.859Z" fill="#47B4EA"/>
<path id="Vector_55" d="M508.931 99.3855H489.189V102.349H508.931V99.3855Z" fill="#47B4EA"/>
<path id="Vector_56" d="M504.982 104.859H489.189V107.823H504.982V104.859Z" fill="#47B4EA"/>
<path id="Vector_57" d="M578.207 99.3855H566.417V102.349H578.207V99.3855Z" fill="#47B4EA"/>
<path id="Vector_58" d="M575.852 104.859H566.417V107.823H575.852V104.859Z" fill="#47B4EA"/>
<path id="Vector_59" d="M345.476 233.822H333.102V237.774H345.476V233.822Z" fill="#47B4EA"/>
<path id="Vector_60" d="M423.793 233.822H411.419V237.774H423.793V233.822Z" fill="#47B4EA"/>
<path id="Vector_61" d="M501.563 233.822H489.189V237.774H501.563V233.822Z" fill="#47B4EA"/>
<path id="Vector_62" d="M579.339 233.822H566.964V237.774H579.339V233.822Z" fill="#47B4EA"/>
<g id="Group_20">
<path id="Vector_63" d="M539.467 193.303C515.21 193.303 494.121 182.914 472.14 172.084C444.999 158.712 416.936 144.887 379.549 148.673C355.673 151.091 340.685 160.725 327.462 169.224C315.494 176.919 304.171 183.688 288.845 184.264C264.072 185.197 255.474 174.728 255.332 174.09V167.371C255.363 167.487 260.775 179.239 288.82 179.097C302.634 179.03 312.825 172.476 324.633 164.892C338.348 156.074 353.896 146.084 379.026 143.537C417.914 139.597 446.666 153.76 474.471 167.463C503.562 181.798 531.324 195.236 566.429 183.577V189.1C556.411 192.42 548.409 193.303 539.467 193.303Z" fill="#4296E2"/>
</g>
<g id="Group_21">
<path id="Vector_64" d="M393.86 192.015C375.957 192.015 361.756 180.086 347.85 168.408C337.309 159.553 326.374 150.502 313.747 146.035C275.216 132.406 255.505 157.289 255.332 157.51V149.937C255.541 149.68 259.059 145.157 269.232 140.837C278.494 136.904 294.03 133.768 315.463 141.156C329.043 145.838 340.316 155.307 351.227 164.468C373.349 183.049 392.458 199.102 425.638 173.961C450.768 154.92 474.459 136.781 497.768 130.153C520.567 123.673 544.332 128.417 566.583 150.459L566.417 157.332C519.153 110.302 478.912 140.101 428.8 178.067C415.521 188.124 404.088 192.015 393.86 192.015Z" fill="#F45656"/>
</g>
</g>
<path id="Vector_65" opacity="0.31" d="M541.798 58.0443H318.913C316.712 58.0443 314.928 56.2648 314.928 54.068C314.928 51.8711 316.712 50.0916 318.913 50.0916H541.798C543.999 50.0916 545.783 51.8711 545.783 54.068C545.783 56.2648 543.999 58.0443 541.798 58.0443Z" fill="white"/>
</g>
<g id="Group_22">
<g id="Group_23">
<path id="Vector_66" d="M120.212 170.537C131.135 170.973 139.966 180.012 140.145 190.922C140.225 195.672 138.706 200.053 136.098 203.588L138.89 212.019H119.837C108.299 212.019 98.4646 202.606 98.563 191.094C98.6614 179.429 108.391 170.065 120.212 170.537Z" fill="#A58FFF"/>
</g>
<g id="Group_24" opacity="0.3">
<path id="Vector_67" opacity="0.3" d="M108.04 177.619C97.1176 178.054 88.2859 187.093 88.1076 198.004C88.0276 202.753 89.5467 207.135 92.1544 210.669L89.3622 219.101H108.416C119.953 219.101 129.788 209.687 129.689 198.176C129.591 186.51 119.855 177.146 108.04 177.619Z" fill="#3E9E9E"/>
</g>
<g id="Group_25">
<path id="Vector_68" d="M105.974 177.619C95.0512 178.054 86.2194 187.093 86.0411 198.004C85.9611 202.753 87.4802 207.135 90.0879 210.669L87.2957 219.095H106.349C117.887 219.095 127.721 209.681 127.623 198.169C127.531 186.51 117.795 177.146 105.974 177.619Z" fill="#4FE9ED"/>
</g>
<g id="Group_26">
<path id="Vector_69" d="M105.636 206.362C104.769 207.368 103.206 207.38 102.327 206.38L97.6527 201.103C96.3366 199.562 96.5149 197.249 98.0586 195.936L103.987 202.858L111.718 193.764C113.028 192.217 115.347 192.027 116.897 193.34L105.636 206.362Z" fill="white"/>
</g>
</g>
</g>
<rect id="Rectangle 17" width="700" height="520" fill="black" fill-opacity="0.5"/>
</g>
<defs>
<linearGradient id="paint0_linear_37_4989" x1="195.435" y1="79.9269" x2="149.396" y2="79.9269" gradientUnits="userSpaceOnUse">
<stop stop-color="#EFEFFB"/>
<stop offset="1" stop-color="#9EB0EF"/>
</linearGradient>
<linearGradient id="paint1_linear_37_4989" x1="172.415" y1="90.3711" x2="149.396" y2="90.3711" gradientUnits="userSpaceOnUse">
<stop stop-color="#EFEFFB"/>
<stop offset="1" stop-color="#9EB0EF"/>
</linearGradient>
<linearGradient id="paint2_linear_37_4989" x1="196.208" y1="111.883" x2="166.581" y2="111.883" gradientUnits="userSpaceOnUse">
<stop stop-color="#EFEFFB"/>
<stop offset="1" stop-color="#9EB0EF"/>
</linearGradient>
<linearGradient id="paint3_linear_37_4989" x1="196.208" y1="123.898" x2="166.581" y2="123.898" gradientUnits="userSpaceOnUse">
<stop stop-color="#EFEFFB"/>
<stop offset="1" stop-color="#9EB0EF"/>
</linearGradient>
<linearGradient id="paint4_linear_37_4989" x1="150.511" y1="111.883" x2="156.316" y2="111.883" gradientUnits="userSpaceOnUse">
<stop stop-color="#5851D4"/>
<stop offset="1" stop-color="#807DFC"/>
</linearGradient>
<linearGradient id="paint5_linear_37_4989" x1="150.511" y1="123.898" x2="156.316" y2="123.898" gradientUnits="userSpaceOnUse">
<stop offset="8e-08" stop-color="#FA2853"/>
<stop offset="1" stop-color="#FF5676"/>
</linearGradient>
<linearGradient id="paint6_linear_37_4989" x1="196.208" y1="149.347" x2="82.8859" y2="149.347" gradientUnits="userSpaceOnUse">
<stop stop-color="#EFEFFB"/>
<stop offset="1" stop-color="#9EB0EF"/>
</linearGradient>
<linearGradient id="paint7_linear_37_4989" x1="196.208" y1="159.489" x2="82.8859" y2="159.489" gradientUnits="userSpaceOnUse">
<stop stop-color="#EFEFFB"/>
<stop offset="1" stop-color="#9EB0EF"/>
</linearGradient>
<linearGradient id="paint8_linear_37_4989" x1="196.208" y1="169.631" x2="82.8859" y2="169.631" gradientUnits="userSpaceOnUse">
<stop stop-color="#EFEFFB"/>
<stop offset="1" stop-color="#9EB0EF"/>
</linearGradient>
</defs>
</svg>
