<?xml version="1.0" encoding="UTF-8"?>
<svg width="1920px" height="658px" viewBox="0 0 1920 658" version="1.1" xmlns="http://www.w3.org/2000/svg" xmlns:xlink="http://www.w3.org/1999/xlink">
    <title>导航-bg</title>
    <defs>
        <linearGradient x1="50%" y1="0%" x2="50%" y2="100%" id="linearGradient-1">
            <stop stop-color="#FFFFFF" offset="0%"></stop>
            <stop stop-color="#FFC8B2" offset="100%"></stop>
        </linearGradient>
        <linearGradient x1="50%" y1="1.65666092e-14%" x2="50%" y2="100%" id="linearGradient-2">
            <stop stop-color="#D65928" offset="0%"></stop>
            <stop stop-color="#FFFFFF" offset="100%"></stop>
        </linearGradient>
        <linearGradient x1="3.43475248e-14%" y1="15.1365395%" x2="88.5418306%" y2="59.7461925%" id="linearGradient-3">
            <stop stop-color="#D65928" offset="0%"></stop>
            <stop stop-color="#FFFFFF" offset="100%"></stop>
        </linearGradient>
    </defs>
    <g id="图片/插画" stroke="none" stroke-width="1" fill="none" fill-rule="evenodd">
        <g id="背景图" transform="translate(0.000000, -1145.000000)">
            <g id="导航-bg" transform="translate(0.000000, 1145.000000)">
                <rect id="banner" fill="#FFF2EE" x="0" y="0" width="1920" height="658"></rect>
                <ellipse id="椭圆形" fill="url(#linearGradient-1)" opacity="0.200000003" cx="196.5" cy="565.940367" rx="68.5" ry="74.9556575"></ellipse>
                <path d="M1702.79014,400.236524 L1737.18021,468.669067 C1725.62196,474.239096 1713.00904,477.332569 1700.31523,477.711203 C1654.79795,479.068903 1618.46044,445.212962 1619.81814,402.711432 C1621.17584,360.209902 1659.74776,324.119546 1705.26505,322.761846 C1750.78234,321.404146 1787.11985,355.260087 1785.76215,397.761617 L1702.79014,400.236524 Z" id="Fill-1" fill="url(#linearGradient-2)" opacity="0.100000001" transform="translate(1702.790141, 400.236524) rotate(-69.000000) translate(-1702.790141, -400.236524) "></path>
                <path d="M1717.04401,331.437688 L1799.96854,330.144772 C1799.28775,344.251468 1794.49903,358.159184 1786.11998,370.360036 C1777.74149,382.562004 1766.08665,392.600348 1752.41806,399.38895 L1717.04401,331.437688 Z" id="Fill-1" fill="url(#linearGradient-3)" opacity="0.100000001" transform="translate(1758.506274, 364.766861) rotate(-69.000000) translate(-1758.506274, -364.766861) "></path>
            </g>
        </g>
    </g>
</svg>