<?xml version="1.0" encoding="UTF-8"?>
<svg width="200px" height="200px" viewBox="0 0 200 200" version="1.1" xmlns="http://www.w3.org/2000/svg" xmlns:xlink="http://www.w3.org/1999/xlink">
    <title>编组 2备份 5</title>
    <defs>
        <rect id="path-1" x="0" y="0" width="200" height="200"></rect>
        <linearGradient x1="1.14331908%" y1="50%" x2="91.0624484%" y2="19.1482433%" id="linearGradient-3">
            <stop stop-color="#F3F4F5" offset="0%"></stop>
            <stop stop-color="#FEFEFE" offset="100%"></stop>
        </linearGradient>
        <linearGradient x1="-1.58198313e-13%" y1="50%" x2="92.0233709%" y2="19.1482433%" id="linearGradient-4">
            <stop stop-color="#F3F4F5" offset="0%"></stop>
            <stop stop-color="#FEFEFE" offset="100%"></stop>
        </linearGradient>
        <linearGradient x1="32.9770925%" y1="50%" x2="64.3071991%" y2="19.1482433%" id="linearGradient-5">
            <stop stop-color="#F3F4F5" offset="0%"></stop>
            <stop stop-color="#FEFEFE" offset="100%"></stop>
        </linearGradient>
        <radialGradient cx="14.8972466%" cy="31.8243553%" fx="14.8972466%" fy="31.8243553%" r="93.757107%" gradientTransform="translate(0.148972,0.318244),scale(0.955294,1.000000),rotate(18.163241),translate(-0.148972,-0.318244)" id="radialGradient-6">
            <stop stop-color="#FEFEFE" offset="0%"></stop>
            <stop stop-color="#F3F4F5" offset="100%"></stop>
        </radialGradient>
        <radialGradient cx="1.1970686e-13%" cy="29.6206264%" fx="1.1970686e-13%" fy="29.6206264%" r="122.828196%" gradientTransform="translate(0.000000,0.296206),scale(0.955294,1.000000),rotate(9.550551),translate(-0.000000,-0.296206)" id="radialGradient-7">
            <stop stop-color="#F3F4F5" offset="0%"></stop>
            <stop stop-color="#F3F4F5" offset="100%"></stop>
        </radialGradient>
        <linearGradient x1="50%" y1="-2.45867368e-13%" x2="50%" y2="92.14676%" id="linearGradient-8">
            <stop stop-color="#FFE7DE" offset="0%"></stop>
            <stop stop-color="#FFFFFF" offset="100%"></stop>
        </linearGradient>
        <radialGradient cx="50%" cy="16.6006272%" fx="50%" fy="16.6006272%" r="39.9214586%" gradientTransform="translate(0.500000,0.166006),scale(0.822780,1.000000),rotate(90.000000),translate(-0.500000,-0.166006)" id="radialGradient-9">
            <stop stop-color="#FFFFFF" offset="0%"></stop>
            <stop stop-color="#F3F4F5" offset="100%"></stop>
        </radialGradient>
        <radialGradient cx="38.1432597%" cy="86.450672%" fx="38.1432597%" fy="86.450672%" r="144.699898%" gradientTransform="translate(0.381433,0.864507),scale(1.000000,0.812500),rotate(-80.595513),translate(-0.381433,-0.864507)" id="radialGradient-10">
            <stop stop-color="#FFFFFF" offset="0%"></stop>
            <stop stop-color="#F3F4F5" offset="100%"></stop>
        </radialGradient>
    </defs>
    <g id="图片/插画" stroke="none" stroke-width="1" fill="none" fill-rule="evenodd">
        <g id="解决方案-图片" transform="translate(-1472.000000, -214.000000)">
            <g id="编组-2备份-5" transform="translate(1472.000000, 214.000000)">
                <rect id="矩形" fill="#D8D8D8" opacity="0" x="0" y="0" width="200" height="200"></rect>
                <g id="形状结合备份-4">
                    <mask id="mask-2" fill="white">
                        <use xlink:href="#path-1"></use>
                    </mask>
                    <use id="蒙版" fill="#D8D8D8" opacity="0" xlink:href="#path-1"></use>
                    <path d="M216.786324,78.1143452 L216.786324,138.114345 L190.802919,153.115871 L190.802264,123.162345 L142.647264,151.051634 L142.647264,121.051634 L190.802264,93.1623452 L190.802919,93.1158711 L216.786324,78.1143452 Z" fill="url(#linearGradient-3)" mask="url(#mask-2)" transform="translate(179.716794, 115.615108) scale(-1, 1) rotate(-120.000000) translate(-179.716794, -115.615108) "></path>
                </g>
                <polygon id="多边形备份" fill="url(#linearGradient-4)" points="44 105 61.3205081 115 61.3205081 135 44 145 26.6794919 135 26.6794919 115"></polygon>
                <polygon id="多边形备份-3" fill="url(#linearGradient-4)" points="143 36 151.660254 41 151.660254 51 143 56 134.339746 51 134.339746 41"></polygon>
                <path d="M125.885507,102.501526 L125.885507,132.501526 L99.3545948,147.657526 L99.355,177.5 L73.3715948,192.501526 L73.3715948,132.501526 L99.355,117.5 L99.3545948,117.657526 L125.885507,102.501526 Z" id="形状结合备份-2" fill="url(#linearGradient-5)" transform="translate(99.628551, 147.501526) scale(-1, 1) rotate(-120.000000) translate(-99.628551, -147.501526) "></path>
                <g id="编组-7" transform="translate(59.000000, 68.000000)">
                    <polygon id="矩形备份-2" fill="url(#radialGradient-6)" points="45.0133391 49.1034191 84 26.7562745 84 41.6528554 45.0133391 64"></polygon>
                    <polygon id="矩形备份-2" fill="url(#radialGradient-7)" transform="translate(19.493330, 45.378137) scale(-1, 1) translate(-19.493330, -45.378137) " points="6.55103728e-14 49.1034191 38.9866609 26.7562745 38.9866609 41.6528554 4.89308398e-13 64"></polygon>
                    <polygon id="路径-6" fill="url(#linearGradient-8)" points="3.00088927 22.2873003 41.9875502 4.60469079e-16 80.9991107 22.2873003 42.0124498 44.6344448"></polygon>
                </g>
                <g id="编组-5" transform="translate(73.000000, 40.000000)">
                    <path d="M54,15.5710058 L54,46.7515994 L53.963,46.7510058 L34.5092568,57.9897753 C29.8679828,60.6708608 24.1487991,60.6716514 19.5067841,57.9918493 L0.036,46.7510058 L0,46.7515994 L0,15.5710058 L54,15.5710058 Z" id="形状结合" fill="url(#radialGradient-9)"></path>
                    <polygon id="Fill-1" fill="url(#radialGradient-10)" points="49.1818321 28 43.0900735 40.2260892 40.1507353 32.225073 38 34.1760447 41.6084559 44 43.5919118 43.1464499 51 28.2723231"></polygon>
                    <path d="M0,15.5501287 L26.9913807,0 L54,15.5501287 L34.5092568,26.8091817 C29.8679828,29.4902672 24.1487991,29.4910578 19.5067841,26.8112557 L0,15.5501287 L0,15.5501287 Z" id="路径-6备份-2" fill="#D65928"></path>
                </g>
            </g>
        </g>
    </g>
</svg>