<?xml version="1.0" encoding="UTF-8"?>
<svg width="200px" height="200px" viewBox="0 0 200 200" version="1.1" xmlns="http://www.w3.org/2000/svg" xmlns:xlink="http://www.w3.org/1999/xlink">
    <title>编组 2备份</title>
    <defs>
        <linearGradient x1="-1.58198313e-13%" y1="50%" x2="92.0233709%" y2="19.1482433%" id="linearGradient-1">
            <stop stop-color="#F3F4F5" offset="0%"></stop>
            <stop stop-color="#FEFEFE" offset="100%"></stop>
        </linearGradient>
        <linearGradient x1="32.9770925%" y1="50%" x2="64.3071991%" y2="19.1482433%" id="linearGradient-2">
            <stop stop-color="#F3F4F5" offset="0%"></stop>
            <stop stop-color="#FEFEFE" offset="100%"></stop>
        </linearGradient>
        <linearGradient x1="33.308642%" y1="50%" x2="64.0285426%" y2="19.1482433%" id="linearGradient-3">
            <stop stop-color="#F3F4F5" offset="0%"></stop>
            <stop stop-color="#FEFEFE" offset="100%"></stop>
        </linearGradient>
        <radialGradient cx="14.8972466%" cy="31.8243553%" fx="14.8972466%" fy="31.8243553%" r="136.606416%" gradientTransform="translate(0.148972,0.318244),scale(1.000000,0.273505),rotate(51.466089),translate(-0.148972,-0.318244)" id="radialGradient-4">
            <stop stop-color="#FEFEFE" offset="0%"></stop>
            <stop stop-color="#F3F4F5" offset="100%"></stop>
        </radialGradient>
        <radialGradient cx="14.8972466%" cy="31.8243553%" fx="14.8972466%" fy="31.8243553%" r="93.148806%" gradientTransform="translate(0.148972,0.318244),scale(0.962211,1.000000),rotate(18.286038),translate(-0.148972,-0.318244)" id="radialGradient-5">
            <stop stop-color="#FEFEFE" offset="0%"></stop>
            <stop stop-color="#F3F4F5" offset="100%"></stop>
        </radialGradient>
        <linearGradient x1="50%" y1="-2.45867368e-13%" x2="50%" y2="92.14676%" id="linearGradient-6">
            <stop stop-color="#FFE7DE" offset="0%"></stop>
            <stop stop-color="#FFFFFF" offset="100%"></stop>
        </linearGradient>
        <radialGradient cx="1.1970686e-13%" cy="29.6206264%" fx="1.1970686e-13%" fy="29.6206264%" r="137.626246%" gradientTransform="translate(0.000000,0.296206),scale(1.000000,0.273505),rotate(32.779489),translate(-0.000000,-0.296206)" id="radialGradient-7">
            <stop stop-color="#FEFEFE" offset="0%"></stop>
            <stop stop-color="#F3F4F5" offset="100%"></stop>
        </radialGradient>
    </defs>
    <g id="图片/插画" stroke="none" stroke-width="1" fill="none" fill-rule="evenodd">
        <g id="解决方案-图片" transform="translate(-752.000000, -214.000000)">
            <g id="编组-2备份" transform="translate(752.000000, 214.000000)">
                <rect id="矩形" fill="#D8D8D8" opacity="0" x="0" y="0" width="200" height="200"></rect>
                <polygon id="多边形备份" fill="url(#linearGradient-1)" points="44 105 61.3205081 115 61.3205081 135 44 145 26.6794919 135 26.6794919 115"></polygon>
                <path d="M125.885507,102.501526 L125.885507,132.501526 L99.3545948,147.657526 L99.355,177.5 L73.3715948,192.501526 L73.3715948,132.501526 L99.355,117.5 L99.3545948,117.657526 L125.885507,102.501526 Z" id="形状结合备份-2" fill="url(#linearGradient-2)" transform="translate(99.628551, 147.501526) rotate(-120.000000) translate(-99.628551, -147.501526) "></path>
                <path d="M162,49.2623348 L162,64.2623348 L148.864,71.8393348 L148.864563,86.7615718 L136,94.2623348 L136,64.2623348 L148.864563,56.7615718 L148.864,56.8403348 L162,49.2623348 Z" id="形状结合备份-2" fill="url(#linearGradient-3)" transform="translate(149.000000, 71.762335) scale(1, -1) rotate(-120.000000) translate(-149.000000, -71.762335) "></path>
                <polygon id="矩形备份-2" fill="url(#radialGradient-4)" points="101.371595 62.501526 127.355 47.5 127.355 127.5 101.371595 142.501526"></polygon>
                <g id="编组-4" transform="translate(134.371595, 94.538647)">
                    <polygon id="矩形备份-10" fill="url(#radialGradient-5)" points="30 32.9628788 55.9834052 17.9613528 55.9834052 27.9613528 30 42.9628788"></polygon>
                    <polygon id="矩形备份-11" fill="url(#radialGradient-5)" transform="translate(12.991703, 30.462116) scale(-1, 1) translate(-12.991703, -30.462116) " points="4.60552208e-14 32.9628788 25.9834052 17.9613528 25.9834052 27.9613528 5.33846325e-13 42.9628788"></polygon>
                    <polygon id="路径-6备份" fill="url(#linearGradient-6)" points="2 14.9613528 27.9834052 3.09110581e-16 53.9834052 14.9613528 28 29.9628788"></polygon>
                </g>
                <polygon id="矩形备份-2" fill="url(#radialGradient-7)" transform="translate(84.363297, 95.000763) scale(-1, 1) translate(-84.363297, -95.000763) " points="71.3715948 62.501526 97.355 47.5 97.355 127.5 71.3715948 142.501526"></polygon>
                <polygon id="路径-6" fill="url(#linearGradient-6)" points="73.3715948 44.5 99.355 29.5386472 125.355 44.5 99.3715948 59.501526"></polygon>
                <polygon id="路径-6" fill="#D65928" points="79 44.9839108 99.9932961 33 121 44.9839108 100.006704 57"></polygon>
            </g>
        </g>
    </g>
</svg>