<?xml version="1.0" encoding="UTF-8"?>
<svg width="142px" height="96px" viewBox="0 0 142 96" version="1.1" xmlns="http://www.w3.org/2000/svg" xmlns:xlink="http://www.w3.org/1999/xlink">
    <title>图</title>
    <defs>
        <polygon id="path-1" points="0 0 70 0 70 44 0 44"></polygon>
        <polygon id="path-3" points="0 0 70 0 70 44 0 44"></polygon>
        <filter color-interpolation-filters="auto" id="filter-5">
            <feColorMatrix in="SourceGraphic" type="matrix" values="0 0 0 0 1.000000 0 0 0 0 1.000000 0 0 0 0 1.000000 0 0 0 1.000000 0"></feColorMatrix>
        </filter>
    </defs>
    <g id="个人账号" stroke="none" stroke-width="1" fill="none" fill-rule="evenodd">
        <g id="账号信息-未认证" transform="translate(-968.000000, -194.000000)">
            <g id="图" transform="translate(968.000000, 194.000000)">
                <rect id="矩形" stroke="#979797" fill="#D8D8D8" opacity="0" x="0.5" y="0.5" width="141" height="95" rx="9"></rect>
                <path d="M70.7692684,44 L7.23073162,44 C5.44719313,43.9979273 4.00192098,42.5686381 4,40.8046102 L4,2.43333255 C4.00139707,1.09005975 5.10211607,0.00155451398 6.46024579,0 L71.5032557,0 C72.8814683,0.00155451398 73.9984283,1.10629578 74,2.46943182 L74,40.8046102 C73.998079,42.5686381 72.5526322,43.9979273 70.7692684,44" id="Fill-1" fill="#FFFFFF"></path>
                <g id="编组" transform="translate(4.000000, 0.000000)">
                    <mask id="mask-2" fill="white">
                        <use xlink:href="#path-1"></use>
                    </mask>
                    <g id="Clip-4"></g>
                    <path d="M2.46022894,0.690861099 C1.48769116,0.691897443 0.699567082,1.47157318 0.698519277,2.43329991 L0.698519277,40.8046076 C0.700090984,42.1870898 1.83294294,43.3075498 3.23071496,43.3091044 L66.7692676,43.3091044 C68.1672142,43.3075498 69.2998916,42.1870898 69.3014633,40.8046076 L69.3014633,2.46939921 C69.3004155,1.4876365 68.4960504,0.691897443 67.5032551,0.690861099 L2.46022894,0.690861099 Z M66.7692676,44 L3.23071496,44 C1.44735066,43.9979273 0.00190351262,42.5686369 -1.74634185e-05,40.8046076 L-1.74634185e-05,2.43329991 C0.00155424425,1.09019878 1.10209888,0.00151997042 2.46022894,-3.45447822e-05 L67.5032551,-3.45447822e-05 C68.8816427,0.00151997042 69.9986029,1.10626211 70,2.46939921 L70,40.8046076 C69.998079,42.5686369 68.5528065,43.9979273 66.7692676,44 L66.7692676,44 Z" id="Fill-3" fill="#E6E6E6" mask="url(#mask-2)"></path>
                </g>
                <path d="M13.9310612,11.0123023 C13.4465564,11.0128084 13.0538617,11.3902285 13.0532999,11.8558875 L13.0532999,32.1441125 C13.052984,32.1788682 13.0552661,32.2134552 13.0600058,32.2478735 C13.1156536,32.6698348 13.4885117,32.9865167 13.9310612,32.9876977 L33.0690024,32.9876977 C33.5535073,32.9871916 33.946202,32.6097715 33.9467286,32.1441125 L33.9467286,11.8558875 C33.946202,11.3902285 33.5535073,11.0128084 33.0690024,11.0123023 L13.9310612,11.0123023 Z M33.0690024,34 L13.9310612,34 C12.9627537,33.9986503 12.144713,33.3091037 12.0167405,32.3865589 C12.0051545,32.3062496 11.999537,32.2250967 12.0000298,32.1441125 L12.0000298,11.8558875 C12.0012925,10.8314376 12.8651506,10.001181 13.9310612,10 L33.0690024,10 C34.1349131,10.001181 34.9987712,10.8314376 35,11.8558875 L35,32.1441125 C34.9987712,33.1685624 34.1349131,33.998819 33.0690024,34 L33.0690024,34 Z" id="Fill-5" fill="#E6E6E6"></path>
                <path d="M64.5945946,28 L41.4054054,28 C40.6292703,28 40,27.328375 40,26.5 C40,25.671625 40.6292703,25 41.4054054,25 L64.5945946,25 C65.3707297,25 66,25.671625 66,26.5 C66,27.328375 65.3707297,28 64.5945946,28" id="Fill-7" fill="#E6E6E6"></path>
                <path d="M53.6363636,22 L41.3636364,22 C40.6105682,22 40,21.328375 40,20.5 C40,19.671625 40.6105682,19 41.3636364,19 L53.6363636,19 C54.3894318,19 55,19.671625 55,20.5 C55,21.328375 54.3894318,22 53.6363636,22" id="Fill-9" fill="#E6E6E6"></path>
                <path d="M29,21.4029457 C29,24.4336652 26.3136438,23.975276 23,23.975276 C19.6863562,23.975276 17,24.4336652 17,21.4029457 C17,18.3722261 18.3121096,13 23,13 C27.8493151,13 29,18.3722261 29,21.4029457" id="Fill-11" fill="#2F2E41"></path>
                <path d="M30.0859523,26.0803727 C29.9625915,25.7208564 29.7165709,25.417426 29.3920479,25.2240445 C29.3293162,25.1851204 29.2637808,25.1515043 29.1956169,25.1231959 C28.3865876,24.7834954 27.4580524,25.1704355 27.121614,25.9873089 C26.9686396,26.3588563 26.959703,26.7748124 27.0963811,27.1525522 L29.6442015,33 L33,33 L30.0859523,26.0803727 Z" id="Fill-13" fill="#3F3D56"></path>
                <path d="M19.1787357,26.1656334 C18.4558449,25.7670384 17.5867064,26.1125118 17.2372209,26.9373616 C17.2131406,26.9943299 17.1919499,27.0529468 17.1736489,27.1126628 L15,32.946877 C15.1114115,32.9822304 15.2263549,33.0001818 15.3419403,33 L18.0694363,33 L19.9123823,28.2227205 C20.1669914,27.423882 19.849934,26.5347367 19.1787357,26.1656334" id="Fill-15" fill="#3F3D56"></path>
                <path d="M28,19.5 C28,21.9851594 25.9851594,24 23.5,24 C21.0148406,24 19,21.9851594 19,19.5 C19,17.0146574 21.0148406,15 23.5,15 C25.9851594,15 28,17.0146574 28,19.5 Z" id="Fill-17" fill="#FFE6E6"></path>
                <path d="M29.1052213,25.748274 C29.0799255,25.726632 29.0546298,25.7033253 29.0275272,25.6833481 C28.4014572,25.1632748 27.5596505,24.9217171 26.7238064,25.0224355 L18.5460494,25.9763471 C16.9883728,26.1538113 15.8663252,27.4400104 16.01286,28.8797011 C16.124884,30.0417086 16.305568,31.5083686 16.5946624,33 L29.5135671,33 L29.988766,27.9124714 C30.0660987,27.1048928 29.7412289,26.3086346 29.1052213,25.748274" id="Fill-19" fill="#3F3D56"></path>
                <path d="M18,19 L18,19 L19.7042105,19 L20.4561404,17.1538462 L20.6064912,19 L21.4210526,19 L21.8596491,17.9230769 L21.9473684,19 L28,19 C28,16.7909231 25.9577193,15 23.4385965,15 L22.5614035,15 C20.0422807,15 18,16.7909231 18,19" id="Fill-21" fill="#2F2E41"></path>
                <path d="M68,56.8046102 L68,18.4694318 C68.0015717,17.1062958 69.118357,16.0015545 70.4967443,16 L135.539754,16 C136.897884,16.0015545 137.998603,17.0900597 138,18.4333325 L138,56.8046102 C137.998079,58.5686381 136.552807,59.9979273 134.769268,60 L71.2307316,60 C69.4471931,59.9979273 68.0020956,58.5686381 68,56.8046102" id="Fill-23" fill="#FFFFFF"></path>
                <g id="编组" transform="translate(68.000000, 16.000000)">
                    <mask id="mask-4" fill="white">
                        <use xlink:href="#path-3"></use>
                    </mask>
                    <g id="Clip-26"></g>
                    <path d="M2.49674432,0.690861099 C1.50394923,0.691897443 0.699584371,1.4876365 0.698536566,2.46939921 L0.698536566,40.8046076 C0.700108273,42.1870898 1.83295995,43.3075498 3.23073162,43.3091044 L66.7692684,43.3091044 C68.1672147,43.3075498 69.2998917,42.1870898 69.3014634,40.8046076 L69.3014634,2.43329991 C69.3004156,1.47157318 68.5122917,0.691897443 67.5397542,0.690861099 L2.49674432,0.690861099 Z M0,40.8046076 L0,2.46939921 C0.00157170727,1.10626211 1.11835704,0.00151997042 2.49674432,-3.4544782e-05 L67.5397542,-3.4544782e-05 C68.8978839,0.00151997042 69.9986029,1.09019878 70,2.43329991 L70,40.8046076 C69.998079,42.5686369 68.5528069,43.9979273 66.7692684,44 L3.23073162,44 C1.44719313,43.9979273 0.0020956097,42.5686369 0,40.8046076 L0,40.8046076 Z" id="Fill-25" fill="#E6E6E6" mask="url(#mask-4)"></path>
                </g>
                <path d="M108.930986,27.0123023 C108.446484,27.0128084 108.053967,27.3902285 108.053265,27.8558875 L108.053265,48.1441125 C108.053967,48.6097715 108.446484,48.9871916 108.930986,48.9876977 L128.068985,48.9876977 C128.511356,48.9865167 128.884387,48.6698348 128.939859,48.2478735 C128.944774,48.2134552 128.946716,48.1788682 128.946716,48.1441125 L128.946716,27.8558875 C128.946179,27.3902285 128.553311,27.0128084 128.068985,27.0123023 L108.930986,27.0123023 Z M107,48.1441125 L107,27.8558875 C107.001229,26.8314376 107.865082,26.001181 108.930986,26 L128.068985,26 C129.134889,26.001181 129.998742,26.8314376 129.999986,27.8558875 L129.999986,48.1441125 C130.000321,48.2250967 129.994704,48.3062496 129.983294,48.3865589 C129.855322,49.3091037 129.037286,49.9986503 128.068985,50 L108.930986,50 C107.865082,49.998819 107.001229,49.1685624 107,48.1441125 L107,48.1441125 Z" id="Fill-27" fill="#E6E6E6"></path>
                <path d="M76,42.5 C76.0008784,41.6718125 76.6296216,41.0009375 77.4054054,41 L100.594595,41 C101.37073,41 102,41.671625 102,42.5 C102,43.328375 101.37073,44 100.594595,44 L77.4054054,44 C76.6296216,43.9990625 76.0008784,43.328 76,42.5" id="Fill-29" fill="#E6E6E6"></path>
                <path d="M76,36.5 C76.0008523,35.6718125 76.6109091,35.0009375 77.3636364,35 L89.6363636,35 C90.3894318,35 91,35.671625 91,36.5 C91,37.328375 90.3894318,38 89.6363636,38 L77.3636364,38 C76.6109091,37.9990625 76.0008523,37.328 76,36.5" id="Fill-31" fill="#E6E6E6"></path>
                <path d="M113.60582,34.0008778 C114.781938,36.4616957 115.708774,39 118.30291,39 C120.897046,39 123,36.7618216 123,34.0008778 C123,31.2399341 120.897046,29.0017556 118.30291,29.0017556 C115.666501,28.9665832 111.416808,29.4202536 113.60582,34.0008778" id="Fill-33" fill="#2F2E41"></path>
                <path d="M122,34.5 C122,36.9853426 119.9852,39 117.500092,39 C115.014983,39 113,36.9853426 113,34.5 C113,32.0148406 115.014983,30 117.500092,30 C119.9852,30 122,32.0148406 122,34.5 Z" id="Fill-35" fill="#FFF9F2"></path>
                <path d="M124.025587,42.2435549 C123.744376,41.9599124 123.438489,41.6981392 123.111297,41.4608662 C121.679855,40.4218305 119.886071,39.9068345 118.07116,40.0138786 C117.998372,40.0171673 117.925584,40.0221002 117.852618,40.0286774 C115.726493,40.1860373 113.776125,41.1828144 112.498426,42.7647992 C111.200844,44.3709554 110.714406,46.4176206 111.163385,48.3800974 C111.211318,48.5856354 111.253926,48.7928177 111.294759,49 L125.749424,49 L125.916127,47.9640885 C126.254326,45.8904567 125.558932,43.7865697 124.025587,42.2435549" id="Fill-37" fill="#3F3D56"></path>
                <path d="M125.96245,44.0379965 C125.753742,42.8668394 124.721476,42.0093264 123.509034,42 C123.486138,42 123.46148,42.0017271 123.438584,42.0017271 C123.243086,42.0060449 123.048468,42.0328152 122.859134,42.0811744 C121.524285,42.4291883 120.729787,43.7721934 121.084502,45.0813472 C121.085559,45.0848014 121.086263,45.0880829 121.08732,45.0915371 L122.441719,50 L127,50 L125.96245,44.0379965 Z" id="Fill-39" fill="#3F3D56"></path>
                <path d="M115.736545,42.3968189 C115.572583,42.0497211 115.337728,41.7475504 115.049451,41.5127702 C114.845338,41.3466488 114.617203,41.2180269 114.374284,41.1323394 C114.274832,41.0957456 114.173196,41.0667604 114.070048,41.0453838 C112.909212,40.8084298 111.761311,41.5189296 111.36535,42.7192793 L109,50 L113.48879,50 L115.778543,44.6449837 C116.087987,43.9290492 116.072364,43.0988043 115.736545,42.3968189" id="Fill-41" fill="#3F3D56"></path>
                <path d="M114,32.2023335 C114.937432,32.8500063 116.050258,33.1947732 117.188974,33.1902522 C116.782731,33.4725625 116.320529,33.6632811 115.833773,33.7491798 C117.347496,34.0746906 118.912166,34.0833977 120.429564,33.7751336 C120.766986,33.7208818 121.092381,33.6086944 121.391718,33.4437622 C121.693393,33.2749788 121.909377,32.9854684 121.985715,32.6477342 C122.08644,32.0702203 121.637602,31.5456188 121.171224,31.1919774 C119.724819,30.1126343 117.871502,29.7412439 116.122419,30.180784 C115.558323,30.326795 114.993391,30.5737747 114.627071,31.027715 C114.260918,31.4818227 114.152341,32.1817379 114.501289,32.6492412 L114,32.2023335 Z" id="Fill-43" fill="#2F2E41"></path>
                <path d="M88.7692764,85 L25.2307236,85 C23.4473642,84.9979273 22.0020956,83.5686381 22,81.8046102 L22,43.4333325 C22.0015717,42.0900597 23.1021133,41.0015545 24.4602396,41 L89.5030873,41 C90.8814711,41.0015545 91.9984283,42.1062958 92,43.4694318 L92,81.8046102 C91.9979044,83.5686381 90.5526358,84.9979273 88.7692764,85" id="Fill-45" fill="#FFFFFF"></path>
                <path d="M24.4602396,41.6908951 C23.4877045,41.6919314 22.6995826,42.4716066 22.6985348,43.4333325 L22.6985348,81.8046102 C22.7001065,83.1870913 23.8329554,84.3075504 25.2307236,84.3091049 L88.7692764,84.3091049 C90.1670446,84.3075504 91.2997188,83.1870913 91.3014652,81.8046102 L91.3014652,43.4694318 C91.3002427,42.4876699 90.4958799,41.6919314 89.5030873,41.6908951 L24.4602396,41.6908951 Z M88.7692764,85 L25.2307236,85 C23.4473642,84.9979273 22.0020956,83.5686381 22,81.8046102 L22,43.4333325 C22.0015717,42.0902325 23.1021133,41.0015545 24.4602396,41 L89.5030873,41 C90.8814711,41.0015545 91.9984283,42.1062958 92,43.4694318 L92,81.8046102 C91.9979044,83.5686381 90.5526358,84.9979273 88.7692764,85 L88.7692764,85 Z" id="Fill-47" fill="#3F3D56"></path>
                <path d="M31.9310612,52.0123023 C31.4465564,52.0128084 31.0538617,52.3902285 31.0532999,52.8558875 L31.0532999,73.1441125 C31.052984,73.1786995 31.0552661,73.2134552 31.0600058,73.2477047 C31.1156536,73.6698348 31.4885117,73.9865167 31.9310612,73.9876977 L51.0690024,73.9876977 C51.5535073,73.9871916 51.946202,73.6097715 51.9467286,73.1441125 L51.9467286,52.8558875 C51.946202,52.3902285 51.5535073,52.0128084 51.0690024,52.0123023 L31.9310612,52.0123023 Z M51.0690024,75 L31.9310612,75 C30.9627537,74.9986503 30.144713,74.3091037 30.0167405,73.3865589 C30.0051545,73.3062496 29.999537,73.2250967 30.0000298,73.1441125 L30.0000298,52.8558875 C30.0012925,51.8314376 30.8651506,51.001181 31.9310612,51 L51.0690024,51 C52.1349131,51.001181 52.9987712,51.8314376 53,52.8558875 L53,73.1441125 C52.9987712,74.1685624 52.1349131,74.998819 51.0690024,75 L51.0690024,75 Z" id="Fill-49" fill="#E6E6E6"></path>
                <path d="M41.2257776,54.6373156 C39.9961974,54.0668351 38.4864663,53.8796705 37.2354027,54.4100567 C35.984339,54.9400972 35.131412,56.2991577 35.5359589,57.5018157 C35.7192611,58.0470644 36.1369754,58.5834993 35.9742903,59.1342782 C35.849028,59.5580341 35.4120827,59.8380034 34.9827605,60.0369198 C34.5536115,60.236009 34.0840945,60.4031265 33.7737974,60.7389167 C33.4635004,61.0743613 33.3987036,61.6522731 33.7864449,61.9125408 C33.9141328,61.9982598 34.0738725,62.0388726 34.1977488,62.1294306 C34.4141424,62.3046706 34.4950518,62.5977742 34.3994159,62.858906 C34.2961568,63.1155444 34.1256753,63.339347 33.9054701,63.5071557 C33.4654062,63.8858055 32.8836209,64.3190665 33.0203179,64.8567111 C33.1232305,65.1482593 33.3623203,65.3711978 33.6608361,65.4543244 C33.9662821,65.5422901 34.2831628,65.5839398 34.601083,65.5780639 L47.589206,65.986266 C48.0180084,66.0182378 48.4490631,65.9943886 48.8716285,65.9147183 C49.2867439,65.8391957 49.6516158,65.5946547 49.8785779,65.240027 C50.1273699,64.7804973 49.9641651,64.2150285 49.6569867,63.786088 C49.3498082,63.3573203 48.9151151,63.0191106 48.5559606,62.6252526 C48.1966328,62.2313947 47.9027948,61.740066 47.9660323,61.2309367 C48.0167956,60.8235988 48.2862048,60.4715634 48.4795558,60.1013818 C48.6729067,59.7313731 48.785175,59.2687326 48.5348236,58.9281034 C48.1819062,58.4483536 47.3346965,58.4917316 46.9334414,58.0444721 C46.6305943,57.7071264 46.6889807,57.221328 46.6590078,56.7861659 C46.5865879,55.7393921 45.8601359,54.7508587 44.8258124,54.2918474 C43.7590905,53.8350828 42.5369602,53.9182095 41.5421385,54.5149587 L41.2257776,54.6373156 Z" id="Fill-51" fill="#2F2E41"></path>
                <path d="M41.5,57 C43.9853426,57 46,59.0146574 46,61.5 C46,63.9851594 43.9853426,66 41.5,66 C39.0148406,66 37,63.9851594 37,61.5 C37,59.0146574 39.0148406,57 41.5,57" id="Fill-53" fill="#FFEEE7"></path>
                <path d="M46.7310198,71.1285212 C46.7227505,69.6776462 45.9168231,68.3486837 44.6339218,67.6712999 C44.582652,67.6431789 44.5297284,67.6183663 44.4768048,67.5935537 C44.0196771,67.3766917 43.5248414,67.2509745 43.0197517,67.223019 L39.1530205,67.0063223 C38.606915,66.9752239 38.0603134,67.0590905 37.5487736,67.2526287 C37.4242377,67.2992764 37.3021827,67.3522099 37.1832699,67.4115947 C36.8094969,67.5958696 36.4678089,67.8385367 36.1711059,68.1311599 C35.3808903,68.9114333 34.9568399,69.9891269 35.0034788,71.0985807 L35.072941,72.7378661 L35.5591767,74 L46.3704777,74 C46.5044406,73.8375602 46.6208725,73.6613908 46.7177889,73.4741384 C47.0894118,72.7375352 47.094208,71.8692599 46.7310198,71.1285212" id="Fill-55" fill="#3F3D56"></path>
                <path d="M46.6068228,68.4920098 C46.4258504,68.0741249 46.1422648,67.7160152 45.7859172,67.4556047 C45.5287906,67.2679719 45.2402864,67.1341548 44.9361781,67.0617383 C44.8143992,67.0333856 44.6909241,67.0146043 44.5664314,67.005936 C44.3215166,66.9880576 44.0755842,67.0106313 43.8371145,67.0727542 C42.5396087,67.4164167 41.7494023,68.8149044 42.0721675,70.1964167 C42.1189794,70.3966909 42.1881797,70.5901026 42.2784115,70.7728595 L43.8031928,73.8464986 L43.8795166,74 L49,74 L46.6068228,68.4920098 Z" id="Fill-57" fill="#3F3D56"></path>
                <path d="M38.6391833,67.2667266 C38.3913749,67.1435851 38.1246525,67.0614908 37.8493488,67.0236932 C37.6444471,66.9953022 37.4367434,66.9923947 37.2311413,67.0151417 C36.157947,67.1340074 35.2845757,67.9130483 35.0665393,68.9460685 L34,74 L38.1715872,74 L38.950914,73.6888967 L39.921132,70.0528025 C40.2118472,68.9455554 39.6798034,67.7895647 38.6391833,67.2667266" id="Fill-59" fill="#3F3D56"></path>
                <path d="M37.0208479,60.6533204 C38.3135219,60.5389141 39.3868612,59.1159059 39.2525272,57.6947341 C39.2211936,58.9072935 40.0196981,59.9532936 41.1093709,60.1271985 C41.7023743,60.1990008 42.3523779,60.0014067 42.8685475,60.3310363 C43.4402174,60.6961079 43.6232184,61.5827105 44.2187218,61.8978327 C44.794225,62.2026712 45.5250625,61.7870992 45.8092307,61.1572221 C46.0935657,60.5273449 46.0238986,59.7707578 45.8353975,59.098644 C44.9755594,56.0315279 42.0218761,54.3130467 39.2380271,55.2604334 C38.4128558,55.5412153 37.6628515,56.041077 37.0538481,56.716129 C36.5101784,57.3184605 36.078676,58.0862496 36.0086756,58.9322683 C35.9386752,59.7781033 36.2948438,60.6959243 36.9843477,61.0762379 L37.0208479,60.6533204 Z" id="Fill-61" fill="#2F2E41"></path>
                <path d="M82.5945946,69 L59.4054054,69 C58.6292703,69 58,68.3285625 58,67.5 C58,66.671625 58.6292703,66 59.4054054,66 L82.5945946,66 C83.3707297,66 84,66.671625 84,67.5 C84,68.3285625 83.3707297,69 82.5945946,69" id="Fill-63" fill="#E6E6E6"></path>
                <path d="M59.3636364,63 C58.6105682,63 58,62.3285625 58,61.5 C58,60.671625 58.6105682,60 59.3636364,60 L71.6363636,60 C72.3894318,60 73,60.671625 73,61.5 C73,62.3285625 72.3894318,63 71.6363636,63 L59.3636364,63 Z" id="Fill-65" fill="#E6E6E6"></path>
                <path d="M78.5063108,73 C76.0174811,72.9998294 74,75.0120158 74,77.4998255 C74,79.9878057 76.0174811,82.0045982 78.5063108,82 C80.9924101,81.9955566 83.0042596,79.9772287 83,77.4921486 C82.9957269,75.0128688 80.9862665,73.0040943 78.5063108,73" id="Fill-67" fill="#8C8C8C"></path>
                <g id="ICON/18px/取消" transform="translate(76.000000, 75.000000)">
                    <rect id="矩形" fill="#000000" opacity="0" x="0" y="0" width="5" height="5"></rect>
                    <g filter="url(#filter-5)" id="编组-2">
                        <g transform="translate(0.277778, 0.277778)">
                            <path d="" id="矩形" stroke="#979797" fill="#D8D8D8" transform="translate(2.222222, 2.222222) rotate(-315.000000) translate(-2.222222, -2.222222) "></path>
                            <path d="" id="矩形" stroke="#979797" fill="#D8D8D8" transform="translate(2.222222, 2.222222) rotate(-585.000000) translate(-2.222222, -2.222222) "></path>
                        </g>
                    </g>
                </g>
            </g>
        </g>
    </g>
</svg>