<?xml version="1.0" encoding="UTF-8"?>
<svg width="30px" height="30px" viewBox="0 0 30 30" version="1.1" xmlns="http://www.w3.org/2000/svg" xmlns:xlink="http://www.w3.org/1999/xlink">
    <title>ICON/30PX/实名认证成功</title>
    <g id="icon" stroke="none" stroke-width="1" fill="none" fill-rule="evenodd">
        <g id="功能性ICON" transform="translate(-435.000000, -357.000000)">
            <g id="ICON/30PX/实名认证成功" transform="translate(435.000000, 357.000000)">
                <rect id="矩形" fill="#64D16D" x="0" y="0" width="30" height="30" rx="15"></rect>
                <g id="编组" transform="translate(1.709634, 5.618764)" fill="#FFFFFF">
                    <path d="M5.22999714,7.67077397 C6.03463797,7.66780481 6.68933521,8.31768811 6.69230437,9.12232893 C6.69231759,9.125913 6.69231759,9.12949712 6.69230437,9.13308119 L6.6543927,19.4071434 L6.6543927,19.4071434 C5.04511105,19.4130817 3.73571656,18.1133151 3.72977825,16.5040335 C3.7297518,16.4968653 3.7297518,16.4896971 3.72977825,16.482529 L3.75685802,9.14391309 C3.75985561,8.3315657 4.41764975,7.67377156 5.22999714,7.67077397 Z" id="矩形" transform="translate(5.208333, 13.541667) rotate(-45.000000) translate(-5.208333, -13.541667) "></path>
                    <path d="M16.9728024,-2.36136945 L16.9728024,-2.36136945 L16.9728024,-2.36136945 L17.0540417,19.6544782 C17.0570109,20.459119 16.4071276,21.1138162 15.6024867,21.1167854 C15.5989027,21.1167986 15.5953186,21.1167986 15.5917345,21.1167854 C14.7793871,21.1137878 14.1215929,20.4559937 14.1185954,19.6436463 L14.048188,0.563244999 C14.0422497,-1.04603665 15.3420163,-2.35543114 16.9512979,-2.36136945 C16.958466,-2.3613959 16.9656343,-2.3613959 16.9728024,-2.36136945 Z" id="矩形备份" transform="translate(15.548407, 9.375000) rotate(-135.000000) translate(-15.548407, -9.375000) "></path>
                </g>
            </g>
        </g>
    </g>
</svg>