<?xml version="1.0" encoding="UTF-8"?>
<svg width="128px" height="82px" viewBox="0 0 128 82" version="1.1" xmlns="http://www.w3.org/2000/svg" xmlns:xlink="http://www.w3.org/1999/xlink">
    <title>身份证反面</title>
    <g id="icon" stroke="none" stroke-width="1" fill="none" fill-rule="evenodd">
        <g id="功能性ICON" transform="translate(-457.000000, -553.000000)">
            <g id="身份证反面" transform="translate(457.000000, 553.000000)">
                <g id="图片备份">
                    <polygon id="Fill-1" fill="#E7F3FD" points="0 82 128 82 128 0 0 0"></polygon>
                    <rect id="bg" fill="#D8D8D8" opacity="0" x="10" y="16" width="36" height="36"></rect>
                    <path d="M37.6483166,43.3652774 C35.2500869,45.086814 32.398502,46.0059395 29.4795871,46 C26.5363051,46 23.681514,45.0914561 21.3102163,43.3652774 C20.9588179,43.1378171 20.9145725,42.6384654 21.1338759,42.3208167 C21.3538205,42.0025049 21.8373138,41.9116534 22.1887122,42.1384505 C24.3400653,43.6829261 26.8877035,44.5005897 29.5231913,44.5005897 C32.1580378,44.5005897 34.7056759,43.6829261 36.8583116,42.1384505 C37.2090687,41.9116534 37.6483166,41.9574107 37.9118654,42.3208167 C38.0882058,42.6842227 37.999715,43.1378171 37.6483166,43.3652774 L37.6483166,43.3652774 Z M21.4876931,29.6101122 L21.7674419,28 L22.5578,29.5118391 C23.0229163,29.5118391 23.5342047,29.4149902 24,29.5118391 L22.9298931,30.3898878 L23.3950093,31.804878 C23.0229163,31.511483 22.5109489,31.3170732 22.0465116,31.0243902 C21.6744186,31.3170732 21.2561535,31.6097561 20.8840604,32 C20.9764047,31.511483 21.0694279,30.9268293 21.1624512,30.3898878 L20,29.6101122 L21.4876931,29.6101122 Z M24.1975843,31.6829268 L25.6297098,32.0731707 L26.6673878,31 C26.6673878,31.4878049 26.5678745,31.9756098 26.5678745,32.5125512 L28,33.0972049 C27.5067604,33.195478 26.9637642,33.293039 26.5678745,33.4874488 L26.3710114,35 L25.4321255,33.6825708 L24,34.0728147 C24.2963764,33.6825708 24.6417884,33.293039 24.9381648,32.8536585 L24.1975843,31.6829268 Z M28.5722076,25.3925573 L29.4581354,23 L30.342832,25.3925573 L33,25.3925573 L30.8070361,26.8433206 L30.8070361,26.9211832 L31.5236588,29 L29.5,27.7061069 L27.4757256,29 L28.1923483,26.9211832 L28.1923483,26.8433206 L26,25.3925573 L28.5722076,25.3925573 Z M33,34.0728147 L31.4686373,33.6825708 L30.629416,35 L30.4318673,33.4874488 C30.03677,33.293039 29.4938717,33.195478 29,33.0972049 L30.4318673,32.5125512 C30.4318673,32.0240342 30.333093,31.5369414 30.333093,31 L31.369863,32.0731707 L32.8024513,31.6829268 L32.0612833,32.9027951 C32.407354,33.2439024 32.703677,33.6341463 33,34.0728147 L33,34.0728147 Z M33.4886248,29.5118391 L34.1860781,28 L34.5582343,29.6101122 L36,29.6101122 L34.8373514,30.3898878 C34.9303905,30.8776927 35.0234295,31.4630586 35.1157895,32 C34.7443124,31.6097561 34.3252971,31.3170732 33.9531409,31.0243902 C33.4886248,31.3170732 32.9765705,31.511483 32.6044143,31.804878 L33.0696095,30.3898878 L32,29.5118391 C32.5113752,29.4149902 32.9765705,29.5118391 33.4886248,29.5118391 L33.4886248,29.5118391 Z M39.494698,43.871667 C42.4004918,40.8904165 44,37.0157236 44,32.841973 C44,24.1121008 36.84217,17 28.0006147,17 C19.1584448,17 12,24.1121008 12,32.841973 C12,37.0157236 13.6001229,40.8904165 16.5059167,43.871667 L15.9163977,47.5766245 C15.8321807,48.0025174 16.0424159,48.3855101 16.3786691,48.5987675 C16.589519,48.7268462 16.7585677,48.8114031 16.9681881,48.8543032 C17.0954357,49.109839 17.3480867,49.3230963 17.6425388,49.3653747 C17.7267558,49.3653747 17.8109728,49.4076531 17.8945751,49.4076531 C18.0212079,49.7483675 18.3162748,50.0039032 18.6949439,50.0468034 C18.820962,50.0890818 18.9475949,50.0890818 19.073613,50.1313602 L19.073613,50.1742604 C19.2426617,50.5149747 19.5795297,50.7276103 19.9581989,50.7705105 L21.9369909,50.9408676 C22.3162748,50.9831461 22.6949439,50.7705105 22.9057938,50.4720746 L23.2002459,50.4720746 C23.6213309,50.7705105 24.1266329,50.7705105 24.3374827,50.7705105 L24.421085,50.7705105 C24.6313201,50.8550673 24.8839711,50.8550673 25.1372368,50.8127889 L25.2638697,50.8127889 L26.7791609,50.9831461 L26.905179,50.9831461 C27.073613,50.9831461 27.2002459,50.9408676 27.3680652,50.8985892 C27.8739819,50.9408676 28.252651,50.9408676 28.757953,50.8985892 C28.9270017,50.9831461 29.1366221,51.0260462 29.3056708,50.9831461 L30.8215768,50.8127889 L30.905179,50.8127889 C31.1160289,50.8550673 31.2844629,50.8550673 31.494698,50.7705105 L31.7055479,50.7705105 C31.9575841,50.7705105 32.4635008,50.7276103 32.8845858,50.4720746 L33.179038,50.4720746 C33.3892731,50.7705105 33.7685569,50.9831461 34.1478408,50.9408676 L36.0424159,50.7705105 C36.2950669,50.7705105 36.5477178,50.6430535 36.7155371,50.4720746 C36.7997541,50.386896 36.8845858,50.259439 36.9688028,50.1742604 C37.094821,50.1313602 37.263255,50.1313602 37.3892731,50.0890818 C37.7685569,50.0039032 38.0630091,49.7483675 38.1896419,49.4505533 C38.2738589,49.4505533 38.3574612,49.4076531 38.4422929,49.4076531 C38.7373598,49.3230963 38.9900108,49.1521174 39.1160289,48.8965816 C39.2838482,48.8543032 39.494698,48.7691246 39.7055479,48.6410459 C40.0424159,48.4284103 40.2108499,48.0025174 40.168434,47.6189029 L39.494698,43.871667 Z" id="Fill-1" fill="#FFFFFF"></path>
                </g>
                <rect id="矩形备份-3" fill="#FFFFFF" x="10" y="59" width="108" height="4" rx="2"></rect>
                <rect id="矩形备份-4" fill="#FFFFFF" x="59" y="39" width="59" height="4" rx="2"></rect>
                <rect id="矩形备份-5" fill="#FFFFFF" x="59" y="19" width="59" height="4" rx="2"></rect>
            </g>
        </g>
    </g>
</svg>