<?xml version="1.0" encoding="UTF-8"?>
<svg width="128px" height="82px" viewBox="0 0 128 82" version="1.1" xmlns="http://www.w3.org/2000/svg" xmlns:xlink="http://www.w3.org/1999/xlink">
    <title>身份证正面</title>
    <g id="icon" stroke="none" stroke-width="1" fill="none" fill-rule="evenodd">
        <g id="功能性ICON" transform="translate(-317.000000, -552.000000)">
            <g id="身份证正面" transform="translate(317.000000, 552.000000)">
                <g id="图片">
                    <polygon id="Fill-1" fill="#E7F3FD" points="0 82 128 82 128 0 0 0"></polygon>
                    <rect id="bg" fill="#D8D8D8" opacity="0" x="82" y="16" width="36" height="36"></rect>
                    <path d="M115.29778,51 L84.7016916,51 C83.7601841,51 83,50.2435487 83,49.3358072 C83,49.3358072 83,43.3222957 87.5616332,41.1666856 C90.4585795,39.7675268 88.6120405,40.9022037 92.1607998,39.5024928 C95.7090304,38.103334 95.8179302,37.6119168 95.8179302,37.6119168 L95.8538777,34.3591763 C95.8538777,34.3591763 94.5143044,33.3763418 94.1157099,30.3124381 C93.2831022,30.5393735 93.0293551,29.3671501 92.95746,28.6487974 C92.9209839,27.9298927 92.4864419,25.6986375 93.5003732,25.8880264 C93.2831022,24.3751238 93.1382549,23.051058 93.2106785,22.3327054 C93.4644256,19.8369683 95.998725,17.1893889 99.8731264,17 C104.435288,17.1893889 106.24588,19.7988697 106.499627,22.3327054 C106.571522,23.051058 106.426675,24.4126703 106.209404,25.8880264 C107.223335,25.6986375 106.789321,27.9298927 106.716369,28.6487974 C106.680422,29.4052487 106.390727,30.5393735 105.557591,30.3124381 C105.159525,33.3763418 103.819423,34.3216298 103.819423,34.3216298 L103.855899,37.5738181 C103.855899,37.5738181 104.326388,38.0282411 107.875148,39.4273998 C111.423378,40.8265586 109.576839,39.7675268 112.473257,41.1666856 C117,43.3222957 117,49.3358072 117,49.3358072 C117,50.2435487 116.239816,51 115.29778,51 Z" id="Fill-1" fill="#FFFFFF"></path>
                </g>
                <rect id="矩形" fill="#FFFFFF" x="10" y="60" width="108" height="4" rx="2"></rect>
                <rect id="矩形备份" fill="#FFFFFF" x="10" y="40" width="59" height="4" rx="2"></rect>
                <rect id="矩形备份-2" fill="#FFFFFF" x="10" y="20" width="59" height="4" rx="2"></rect>
            </g>
        </g>
    </g>
</svg>