<?xml version="1.0" encoding="UTF-8"?>
<svg width="96px" height="128px" viewBox="0 0 96 128" version="1.1" xmlns="http://www.w3.org/2000/svg" xmlns:xlink="http://www.w3.org/1999/xlink">
    <title>营业执照</title>
    <g id="icon" stroke="none" stroke-width="1" fill="none" fill-rule="evenodd">
        <g id="功能性ICON" transform="translate(-209.000000, -552.000000)">
            <g id="营业执照" transform="translate(209.000000, 552.000000)">
                <polygon id="Fill-1" fill="#E7F3FD" points="0 128 96 128 96 0 0 0"></polygon>
                <rect id="矩形" fill="#FFFFFF" x="10" y="94" width="76" height="4" rx="2"></rect>
                <rect id="矩形备份-2" fill="#FFFFFF" x="10" y="104" width="76" height="4" rx="2"></rect>
                <rect id="矩形备份" fill="#FFFFFF" x="10" y="84" width="40" height="4" rx="2"></rect>
                <g id="编组" transform="translate(22.000000, 12.000000)">
                    <path d="M26.2951908,0 C36.9963764,0.0183443464 46.6195926,6.43538647 50.6299336,16.2277883 C54.640595,26.0201902 52.2385562,37.2345952 44.5565822,44.5881478 L45.7204302,49.7251973 C45.7745851,52.1197671 44.0310561,54.1866689 41.6347852,54.5684211 L10.9100936,54.5684211 C8.51446358,54.1866689 6.77061414,52.1197671 6.82444852,49.7251973 L7.91972184,44.5201472 C0.288057335,37.1605852 -2.08161679,25.9771758 1.9226358,16.2154533 C5.92688838,6.45278197 15.5116514,0.0468097114 26.1814336,0 L26.2951908,0 Z" id="Fill-2" fill="#FFFFFF"></path>
                    <path d="M26.2951908,45.1960202 C31.2271252,45.2010704 35.9748049,43.3565147 39.5810676,40.0368206 L12.9881648,40.0368206 C16.6030794,43.3565147 21.3584498,45.1998052 26.2951908,45.1960202 L26.2951908,45.1960202 Z M15.5667676,16.2217473 L16.0461499,14.1943808 L16.868406,16.109151 L18.9689083,15.9522752 L17.3702194,17.3040638 L18.1915141,19.218834 L16.3890237,18.1377827 L14.7906553,19.4895712 L15.2700376,17.4609396 L13.4675471,16.402028 L15.5667676,16.2217473 Z M20.1330768,21.0216404 L22.0730372,21.8098148 L23.419858,20.2331498 L23.2823881,22.3051121 L25.2223485,23.0932865 L23.1683105,23.5664441 L23.0318019,25.6396715 L21.866672,23.8605862 L19.835065,24.3561998 L21.1818859,22.7782698 L20.1330768,21.0216404 Z M24.9945137,11.0856466 L26.341655,6.98536895 L27.7109069,11.0856466 L32.0932819,11.0856466 L28.5318812,13.6307666 L29.9027353,17.7313605 L26.4329812,15.1862406 L22.8943319,17.7313605 L24.2635838,13.6307666 L20.7025035,11.0856466 L24.9945137,11.0856466 Z M32.9607204,24.2881992 L30.9066824,23.8150416 L29.8338401,25.5716709 L29.6511877,23.5221646 L27.5968293,23.049007 L29.5371101,22.2383767 L29.3544577,20.1654655 L30.746461,21.7418142 L32.6864214,20.9311838 L31.5911481,22.7102692 L32.9607204,24.2881992 Z M35.8145836,16.1771516 L36.5906959,14.2620651 L37.0925092,16.2672919 L39.1930115,16.4254328 L37.4116702,17.5289402 L37.913804,19.5338507 L36.3163969,18.2045182 L34.5129451,19.2868346 L35.3127702,17.3717481 L33.7140813,16.0190107 L35.8145836,16.1771516 Z M11.4811225,35.6879454 L18.8086869,35.6879454 L18.8086869,33.9765444 L18.1463317,33.9765444 L19.1278479,32.060509 L20.0177174,32.060509 L20.4746687,30.3494243 L32.0932819,30.3494243 L32.5502333,32.060509 L33.4625338,32.060509 L34.4212985,33.9765444 L33.7605455,33.9765444 L33.7605455,35.6879454 L41.0868281,35.6879454 L41.5889619,37.9414534 C47.9151426,30.0514868 47.0227096,18.6852665 39.5410123,11.8504161 C32.059315,5.0171471 20.509597,5.0171471 13.0282201,11.8504161 C5.54652284,18.6852665 4.65408979,30.0514868 10.9786683,37.9414534 L11.4811225,35.6879454 Z" id="Fill-4" fill="#E7F3FD"></path>
                </g>
            </g>
        </g>
    </g>
</svg>