<?xml version="1.0" encoding="UTF-8"?>
<svg width="134px" height="134px" viewBox="0 0 134 134" version="1.1" xmlns="http://www.w3.org/2000/svg" xmlns:xlink="http://www.w3.org/1999/xlink">
    <title>实名认证-失败</title>
    <g id="icon" stroke="none" stroke-width="1" fill="none" fill-rule="evenodd">
        <g id="功能性ICON" transform="translate(-355.000000, -395.000000)" fill="#E62412">
            <g id="实名认证-失败" transform="translate(355.000000, 395.000000)">
                <rect id="矩形" opacity="0.300000012" x="0" y="0" width="134" height="134"></rect>
                <path d="M31.0006106,88.0000002 L31.0108141,71.2897254 L31.0108141,71.2897254 C31.0135176,70.0594738 32.019225,69.0645746 33.2628417,69.0619002 L55.766897,69.0619002 C57.8404926,69.0619002 57.8269751,67.2432673 57.8269751,62.910642 C57.8269751,58.5806912 46.7993391,54.9327276 46.7993391,39.704352 C46.7993391,24.4786508 58.2270952,19.9989302 67.7218384,19.9989302 C77.213878,19.9989302 87.5575248,24.4786508 87.5575248,39.704352 C87.5575248,54.9327276 76.5866627,57.353114 76.5866627,62.910642 C76.5866627,68.4708445 76.5866627,69.0619002 78.3439471,69.0619002 L100.750676,69.0619002 C101.994293,69.0619002 103,70.0594738 103,71.2897254 L103,88 C103,88.5522847 102.552285,89 102,89 L32,89 C31.4477153,89.0006104 31,88.5528952 31,88.0006104 C31,88.0004069 31.0000001,88.0002034 31.0006106,88.0000002 Z" id="Fill-1"></path>
                <rect id="矩形" x="31" y="101" width="72" height="5" rx="1"></rect>
            </g>
        </g>
    </g>
</svg>