<?xml version="1.0" encoding="UTF-8"?>
<svg width="16px" height="16px" viewBox="0 0 16 16" version="1.1" xmlns="http://www.w3.org/2000/svg" xmlns:xlink="http://www.w3.org/1999/xlink">
    <title>切片</title>
    <g id="icon" stroke="none" stroke-width="1" fill="none" fill-rule="evenodd">
        <g id="功能性ICON" transform="translate(-198.000000, -27.000000)">
            <g id="ICON/16PX/预览-开启" transform="translate(198.000000, 27.000000)">
                <polygon id="bg" fill="#8C8686" opacity="0" points="0 16 16 16 16 0 0 0"></polygon>
                <g id="编组" transform="translate(1.000000, 4.000000)" stroke="#595959" stroke-linejoin="round">
                    <path d="M7,8 C10.8659067,8 14,4 14,4 C14,4 10.8659067,0 7,0 C3.1340933,0 0,4 0,4 C0,4 3.1340933,8 7,8 Z" id="Stroke-3"></path>
                    <path d="M7,5.667 C7.9659517,5.667 8.75026249,4.92 8.75026249,4 C8.75026249,3.08 7.9659517,2.334 7,2.334 C6.0340483,2.334 5.24973751,3.08 5.24973751,4 C5.24973751,4.92 6.0340483,5.667 7,5.667 Z" id="Stroke-5"></path>
                </g>
            </g>
        </g>
    </g>
</svg>