<?xml version="1.0" encoding="UTF-8"?>
<svg width="20px" height="18px" viewBox="0 0 20 18" version="1.1" xmlns="http://www.w3.org/2000/svg" xmlns:xlink="http://www.w3.org/1999/xlink">
    <title>切片</title>
    <g id="前端网页" stroke="none" stroke-width="1" fill="none" fill-rule="evenodd">
        <g id="充值金额" transform="translate(-566.000000, -182.000000)">
            <g transform="translate(467.000000, 140.000000)" id="icon/标签/选择">
                <g transform="translate(99.000000, 42.000000)">
                    <path d="M20,0 L20,14 C20,16.209139 18.209139,18 16,18 L0,18 L0,18 L20,0 Z" id="三角形" fill="#D65928"></path>
                    <g id="编组" transform="translate(9.743584, 9.990022)" fill="#FFFFFF">
                        <path d="M1.76776695,2.59619408 C2.04390933,2.59619408 2.26776695,2.8200517 2.26776695,3.09619408 L2.26776695,6.59619408 L2.26776695,6.59619408 C1.7154822,6.59619408 1.26776695,6.14847883 1.26776695,5.59619408 L1.26776695,3.09619408 C1.26776695,2.8200517 1.49162458,2.59619408 1.76776695,2.59619408 Z" id="矩形" transform="translate(1.767767, 4.596194) rotate(-45.000000) translate(-1.767767, -4.596194) "></path>
                        <path d="M5.80330086,-0.818019485 L5.80330086,-0.818019485 L5.80330086,-0.818019485 L5.80330086,6.68198052 C5.80330086,6.95812289 5.57944323,7.18198052 5.30330086,7.18198052 C5.02715848,7.18198052 4.80330086,6.95812289 4.80330086,6.68198052 L4.80330086,0.181980515 C4.80330086,-0.370304234 5.25101611,-0.818019485 5.80330086,-0.818019485 Z" id="矩形备份" transform="translate(5.303301, 3.181981) rotate(-135.000000) translate(-5.303301, -3.181981) "></path>
                    </g>
                </g>
            </g>
        </g>
    </g>
</svg>