<?xml version="1.0" encoding="UTF-8"?>
<svg width="598px" height="598px" viewBox="0 0 598 598" version="1.1" xmlns="http://www.w3.org/2000/svg" xmlns:xlink="http://www.w3.org/1999/xlink">
    <title>编组 2备份 3</title>
    <defs>
        <linearGradient x1="50%" y1="103.947625%" x2="50%" y2="3.09723401%" id="linearGradient-1">
            <stop stop-color="#E6E8EA" offset="0%"></stop>
            <stop stop-color="#FEFEFE" offset="100%"></stop>
        </linearGradient>
        <linearGradient x1="32.9770925%" y1="36.9692114%" x2="56.4464989%" y2="59.5331874%" id="linearGradient-2">
            <stop stop-color="#E6E8EA" offset="0%"></stop>
            <stop stop-color="#FEFEFE" offset="100%"></stop>
        </linearGradient>
        <radialGradient cx="8.69721112%" cy="65.69384%" fx="8.69721112%" fy="65.69384%" r="156.447743%" gradientTransform="translate(0.086972,0.656938),scale(1.000000,0.583643),rotate(-48.411562),translate(-0.086972,-0.656938)" id="radialGradient-3">
            <stop stop-color="#E6E8EA" offset="0%"></stop>
            <stop stop-color="#FEFEFE" stop-opacity="0.525295017" offset="100%"></stop>
        </radialGradient>
        <radialGradient cx="8.70212552%" cy="33.5138481%" fx="8.70212552%" fy="33.5138481%" r="131.074324%" gradientTransform="translate(0.087021,0.335138),scale(1.000000,0.582090),rotate(28.042533),scale(1.000000,0.982250),translate(-0.087021,-0.335138)" id="radialGradient-4">
            <stop stop-color="#FEFEFE" offset="0%"></stop>
            <stop stop-color="#E6E8EA" offset="100%"></stop>
        </radialGradient>
        <radialGradient cx="11.2822669%" cy="34.1874487%" fx="11.2822669%" fy="34.1874487%" r="124.781419%" gradientTransform="translate(0.112823,0.341874),scale(1.000000,0.582090),rotate(26.852010),scale(1.000000,1.232866),translate(-0.112823,-0.341874)" id="radialGradient-5">
            <stop stop-color="#FFFFFF" offset="0%"></stop>
            <stop stop-color="#EAEAEA" offset="100%"></stop>
        </radialGradient>
    </defs>
    <g id="图片/插画" stroke="none" stroke-width="1" fill="none" fill-rule="evenodd">
        <g id="解决方案-图片" transform="translate(-1322.000000, -562.000000)">
            <g id="编组-2备份-3" transform="translate(1322.000000, 562.000000)">
                <rect id="矩形" fill="#D8D8D8" opacity="0" x="0" y="0" width="598" height="598"></rect>
                <polygon id="多边形备份" fill="url(#linearGradient-1)" points="131.5 314 183.028512 343.75 183.028512 403.25 131.5 433 79.9714885 403.25 79.9714885 343.75"></polygon>
                <polygon id="多边形备份-2" fill="url(#linearGradient-1)" points="466.5 314 518.028512 343.75 518.028512 403.25 466.5 433 414.971488 403.25 414.971488 343.75"></polygon>
                <path d="M376.397667,306.479563 L376.397667,396.179563 L297.071068,441.495563 L297.07145,530.725 L219.381068,575.579563 L219.381068,396.179563 L297.07145,351.325 L297.071068,351.796563 L376.397667,306.479563 Z" id="形状结合备份-2" fill="url(#linearGradient-2)" transform="translate(297.889368, 441.029563) rotate(-120.000000) translate(-297.889368, -441.029563) "></path>
                <path d="M517,61 L517,150.666667 L437.682,195.966 L437.682169,285.162106 L360,330 L360,150.666667 L437.682169,105.828772 L437.682,106.3 L517,61 Z" id="形状结合备份" fill="url(#radialGradient-3)" transform="translate(438.500000, 195.500000) scale(-1, 1) translate(-438.500000, -195.500000) "></path>
                <polygon id="矩形备份-2" fill="url(#radialGradient-4)" points="306 276.669696 384 232 384 321.330304 306 366"></polygon>
                <polygon id="矩形备份-2" fill="url(#radialGradient-5)" transform="translate(255.000000, 299.000000) scale(-1, 1) translate(-255.000000, -299.000000) " points="216 276.669696 294 232 294 321.330304 216 366"></polygon>
                <polygon id="路径-6" fill="#FFFFFF" points="222 222.440336 299.9751 178 378 222.440336 300.0249 267"></polygon>
            </g>
        </g>
    </g>
</svg>