<?xml version="1.0" encoding="UTF-8"?>
<svg width="598px" height="598px" viewBox="0 0 598 598" version="1.1" xmlns="http://www.w3.org/2000/svg" xmlns:xlink="http://www.w3.org/1999/xlink">
    <title>编组 2备份 7</title>
    <defs>
        <rect id="path-1" x="0" y="0" width="598" height="598"></rect>
        <linearGradient x1="19.0502502%" y1="81.867209%" x2="63.9512812%" y2="50%" id="linearGradient-3">
            <stop stop-color="#FEFEFE" stop-opacity="0.525295017" offset="0%"></stop>
            <stop stop-color="#E6E8EA" offset="100%"></stop>
            <stop stop-color="#E6E8EA" offset="100%"></stop>
        </linearGradient>
        <linearGradient x1="4.66371366%" y1="15.7172492%" x2="50%" y2="76.0532507%" id="linearGradient-4">
            <stop stop-color="#FEFEFE" stop-opacity="0.525295017" offset="0%"></stop>
            <stop stop-color="#E6E8EA" offset="100%"></stop>
            <stop stop-color="#E6E8EA" offset="100%"></stop>
        </linearGradient>
        <linearGradient x1="67.0229075%" y1="42.0770737%" x2="35.5076406%" y2="32.6074816%" id="linearGradient-5">
            <stop stop-color="#FEFEFE" stop-opacity="0.525295017" offset="0%"></stop>
            <stop stop-color="#E6E8EA" offset="100%"></stop>
            <stop stop-color="#E6E8EA" offset="100%"></stop>
        </linearGradient>
        <linearGradient x1="28.2009364%" y1="15.7172492%" x2="50%" y2="76.0532507%" id="linearGradient-6">
            <stop stop-color="#FEFEFE" stop-opacity="0.525295017" offset="0%"></stop>
            <stop stop-color="#E6E8EA" offset="100%"></stop>
            <stop stop-color="#E6E8EA" offset="100%"></stop>
        </linearGradient>
        <filter color-interpolation-filters="auto" id="filter-7">
            <feColorMatrix in="SourceGraphic" type="matrix" values="0 0 0 0 1.000000 0 0 0 0 1.000000 0 0 0 0 1.000000 0 0 0 1.000000 0"></feColorMatrix>
        </filter>
        <linearGradient x1="28.1482935%" y1="15.7172492%" x2="50%" y2="76.0532507%" id="linearGradient-8">
            <stop stop-color="#FEFEFE" stop-opacity="0.525295017" offset="0%"></stop>
            <stop stop-color="#E6E8EA" offset="100%"></stop>
            <stop stop-color="#E6E8EA" offset="100%"></stop>
        </linearGradient>
    </defs>
    <g id="图片/插画" stroke="none" stroke-width="1" fill="none" fill-rule="evenodd">
        <g id="解决方案-图片" transform="translate(-1322.000000, -3324.000000)">
            <g id="编组-2备份-7" transform="translate(1322.000000, 3324.000000)">
                <rect id="矩形" fill="#D8D8D8" opacity="0" x="0" y="0" width="598" height="598"></rect>
                <g id="形状结合备份-4">
                    <mask id="mask-2" fill="white">
                        <use xlink:href="#path-1"></use>
                    </mask>
                    <use id="蒙版" fill="#D8D8D8" opacity="0" xlink:href="#path-1"></use>
                    <path d="M593,290 L593,379.598177 L554.097997,402 L554.097,357.271 L482,398.917469 L482,354.11838 L554.097,312.472 L554.097997,312.401823 L593,290 Z" fill="url(#linearGradient-3)" mask="url(#mask-2)" transform="translate(537.500000, 346.000000) scale(-1, 1) rotate(-120.000000) translate(-537.500000, -346.000000) "></path>
                </g>
                <polygon id="多边形备份" fill="url(#linearGradient-4)" points="131.56 313.95 183.348319 343.85 183.348319 403.65 131.56 433.55 79.7716809 403.65 79.7716809 343.85"></polygon>
                <polygon id="多边形备份-3" fill="url(#linearGradient-4)" points="427.57 107.64 453.46416 122.59 453.46416 152.49 427.57 167.44 401.67584 152.49 401.67584 122.59"></polygon>
                <path d="M376.397667,306.479563 L376.397667,396.179563 L297.071068,441.495563 L297.07145,530.725 L219.381068,575.579563 L219.381068,396.179563 L297.07145,351.325 L297.071068,351.796563 L376.397667,306.479563 Z" id="形状结合备份-2" fill="url(#linearGradient-5)" transform="translate(297.889368, 441.029563) scale(-1, 1) rotate(-120.000000) translate(-297.889368, -441.029563) "></path>
                <g id="编组-5" transform="translate(218.270000, 119.600000)">
                    <path d="M161.46,46.5573073 L161.46,239.787282 L161.352,239.786307 L103.182678,273.389428 C89.3052687,281.405874 72.2049094,281.408238 58.3252844,273.395629 L0.107,239.786307 L0,239.787282 L0,46.5573073 L161.46,46.5573073 Z" id="形状结合" fill="url(#linearGradient-6)"></path>
                    <path d="M0,46.4948848 L80.7042283,0 L161.46,46.4948848 L103.182678,80.1594532 C89.3052687,88.1758988 72.2049094,88.1782629 58.3252844,80.1656546 L0,46.4948848 L0,46.4948848 Z" id="路径-6备份-2" fill="#FFFFFF"></path>
                </g>
                <g filter="url(#filter-7)" id="编组">
                    <g transform="translate(224.000000, 244.000000)">
                        <polygon id="Fill-1" fill="#000000" points="0 0 0 25.0603595 5.07202104 28 5.07202104 17.9973019 14.2808011 23.3343488 14.2808011 18.9294573 5.07202104 13.5924105 5.07202104 7.34453196 15 13.0995257 15 8.69402498"></polygon>
                        <g transform="translate(19.000000, 14.000000)" fill="#000000">
                            <path d="M11.3504532,24.4399506 C12.9751909,25.3866959 14.2181429,25.8303278 15.0793091,25.7689876 C15.9398615,25.7076475 16.528499,25.1500095 16.8433802,24.0979327 C17.1588752,23.0452362 17.3166227,21.3933888 17.3166227,19.139912 C17.3166227,16.9130779 17.1527371,15.0790687 16.8255799,13.6391237 C16.4978089,12.1997982 15.9097852,10.9389169 15.060895,9.85709938 C14.211391,8.77466221 12.9751909,7.7597612 11.3504532,6.81363553 C9.72510171,5.86565106 8.48214974,5.43503067 7.62159732,5.52115475 C6.76043109,5.60665923 6.16688316,6.1785479 5.83911213,7.23620115 C5.51134109,8.29385441 5.34806937,9.93764708 5.34806937,12.1644812 C5.34806937,14.417958 5.51134109,16.2575435 5.83911213,17.684477 C6.16688316,19.1114105 6.76043109,20.3574214 7.62159732,21.4225098 C8.48214974,22.4875983 9.72510171,23.4932053 11.3504532,24.4399506 M0,9.04852439 C0,5.66985819 0.430276212,3.27697192 1.29144244,1.86862637 C2.15260866,0.460900418 3.40108486,-0.151262099 5.03871244,0.0315192197 C6.67572622,0.214300538 8.7792306,1.0550946 11.3504532,2.55328182 C13.9204482,4.05146903 16.0245664,5.66304262 17.662194,7.38800259 C19.2992078,9.11420175 20.547684,11.1824188 21.409464,13.5932734 C22.2700164,16.0047477 22.7009064,18.9001277 22.7009064,22.2781743 C22.7009064,25.6568405 22.2700164,28.0497267 21.409464,29.4580723 C20.547684,30.8651786 19.2992078,31.4779607 17.662194,31.2951794 C16.0245664,31.1123981 13.9204482,30.271604 11.3504532,28.7734168 C8.7792306,27.27461 6.67572622,25.663656 5.03871244,23.9380765 C3.40108486,22.2124969 2.15260866,20.1442798 1.29144244,17.7334252 C0.430276212,15.321951 0,12.426571 0,9.04852439" id="Fill-2"></path>
                            <polygon id="Fill-4" points="32.9600171 26.3477538 42.2726429 31.7754296 42.2726429 36.2551209 32.9600171 30.8274451 32.9600171 41 27.8304618 38.0104411 27.8304618 12.5245294 43 21.3661884 43 25.8464993 32.9600171 19.9943991"></polygon>
                        </g>
                    </g>
                </g>
                <g id="编组-5备份" transform="translate(398.000000, 195.000000)">
                    <path d="M81,23.3283577 L81,120.149635 L80.944,120.149358 L51.7162437,137.014069 C44.7826931,141.014487 36.2424842,141.015667 29.3078285,137.017165 L0.055,120.149358 L0,120.149635 L0,23.3283577 L81,23.3283577 Z" id="形状结合" fill="url(#linearGradient-8)"></path>
                    <path d="M0,23.2970798 L40.4870711,0 L81,23.2970798 L51.7162437,40.1927914 C44.7826931,44.1932095 36.2424842,44.1943895 29.3078285,40.1958874 L0,23.2970798 L0,23.2970798 Z" id="路径-6备份-2" fill="#FFFFFF"></path>
                </g>
            </g>
        </g>
    </g>
</svg>