<?xml version="1.0" encoding="UTF-8"?>
<svg width="598px" height="598px" viewBox="0 0 598 598" version="1.1" xmlns="http://www.w3.org/2000/svg" xmlns:xlink="http://www.w3.org/1999/xlink">
    <title>编组 2备份 2</title>
    <defs>
        <linearGradient x1="4.66371366%" y1="15.7172492%" x2="50%" y2="76.0532507%" id="linearGradient-1">
            <stop stop-color="#FEFEFE" stop-opacity="0.525295017" offset="0%"></stop>
            <stop stop-color="#E6E8EA" offset="100%"></stop>
            <stop stop-color="#E6E8EA" offset="100%"></stop>
        </linearGradient>
        <linearGradient x1="32.9770925%" y1="34.0624134%" x2="54.8662385%" y2="55.2547303%" id="linearGradient-2">
            <stop stop-color="#E6E8EA" offset="0%"></stop>
            <stop stop-color="#FEFEFE" stop-opacity="0.525295017" offset="100%"></stop>
        </linearGradient>
        <linearGradient x1="66.691358%" y1="4.02182784e-13%" x2="33.308642%" y2="94.2371442%" id="linearGradient-3">
            <stop stop-color="#FEFEFE" stop-opacity="0.525295017" offset="0%"></stop>
            <stop stop-color="#E6E8EA" offset="100%"></stop>
            <stop stop-color="#E6E8EA" offset="100%"></stop>
        </linearGradient>
        <linearGradient x1="46.6086164%" y1="15.7172492%" x2="50%" y2="76.0532507%" id="linearGradient-4">
            <stop stop-color="#FEFEFE" stop-opacity="0.525295017" offset="0%"></stop>
            <stop stop-color="#E6E8EA" offset="100%"></stop>
            <stop stop-color="#E6E8EA" offset="100%"></stop>
        </linearGradient>
        <linearGradient x1="4.66371366%" y1="18.2592954%" x2="50%" y2="74.1214172%" id="linearGradient-5">
            <stop stop-color="#FEFEFE" stop-opacity="0.525295017" offset="0%"></stop>
            <stop stop-color="#E6E8EA" offset="100%"></stop>
            <stop stop-color="#E6E8EA" offset="100%"></stop>
        </linearGradient>
        <radialGradient cx="50%" cy="100%" fx="50%" fy="100%" r="119.162849%" gradientTransform="translate(0.500000,1.000000),scale(0.576393,1.000000),rotate(-93.701782),translate(-0.500000,-1.000000)" id="radialGradient-6">
            <stop stop-color="#FEFEFE" stop-opacity="0.525295017" offset="0%"></stop>
            <stop stop-color="#E6E8EA" offset="100%"></stop>
            <stop stop-color="#E6E8EA" offset="100%"></stop>
        </radialGradient>
    </defs>
    <g id="图片/插画" stroke="none" stroke-width="1" fill="none" fill-rule="evenodd">
        <g id="解决方案-图片" transform="translate(-1322.000000, -1218.000000)">
            <g id="编组-2备份-2" transform="translate(1322.000000, 1218.000000)">
                <rect id="矩形" fill="#D8D8D8" opacity="0" x="0" y="0" width="598" height="598"></rect>
                <polygon id="多边形备份" fill="url(#linearGradient-1)" points="131.56 313.95 183.348319 343.85 183.348319 403.65 131.56 433.55 79.7716809 403.65 79.7716809 343.85"></polygon>
                <path d="M376.397667,306.479563 L376.397667,396.179563 L297.071068,441.496563 L297.07145,530.725 L219.381068,575.579563 L219.381068,396.179563 L297.07145,351.325 L297.071068,351.796563 L376.397667,306.479563 Z" id="形状结合备份-2" fill="url(#linearGradient-2)" transform="translate(297.889368, 441.029563) rotate(-120.000000) translate(-297.889368, -441.029563) "></path>
                <path d="M484.38,147.294381 L484.38,192.144381 L445.105,214.803381 L445.105043,259.4171 L406.64,281.844381 L406.64,192.144381 L445.105043,169.7171 L445.105,169.952381 L484.38,147.294381 Z" id="形状结合备份-2" fill="url(#linearGradient-3)" transform="translate(445.510000, 214.569381) scale(1, -1) rotate(-120.000000) translate(-445.510000, -214.569381) "></path>
                <polygon id="矩形备份-2" fill="url(#linearGradient-4)" points="303.101068 186.879563 380.79145 142.025 380.79145 381.225 303.101068 426.079563"></polygon>
                <g id="编组-4" transform="translate(401.771068, 282.670555)">
                    <polygon id="矩形备份-10" fill="url(#linearGradient-5)" points="89.7 98.5590076 167.390382 53.7044449 167.390382 83.6044449 89.7 128.459008"></polygon>
                    <polygon id="矩形备份-11" fill="url(#linearGradient-5)" transform="translate(38.845191, 91.081726) scale(-1, 1) translate(-38.845191, -91.081726) " points="1.3770511e-13 98.5590076 77.6903815 53.7044449 77.6903815 83.6044449 1.59620051e-12 128.459008"></polygon>
                    <polygon id="路径-6备份" fill="#FFFFFF" points="5.98 44.7344449 83.6703815 9.24240638e-16 161.410382 44.7344449 83.72 89.5890076"></polygon>
                </g>
                <polygon id="矩形备份-2" fill="url(#linearGradient-4)" transform="translate(252.246259, 284.052281) scale(-1, 1) translate(-252.246259, -284.052281) " points="213.401068 186.879563 291.09145 142.025 291.09145 381.225 213.401068 426.079563"></polygon>
                <polygon id="路径-6" fill="url(#radialGradient-6)" points="219.381068 133.055 297.07145 88.3205551 374.81145 133.055 297.121068 177.909563"></polygon>
                <polygon id="路径-6" fill="#FFFFFF" points="236.21 134.501893 298.979955 98.67 361.79 134.501893 299.020045 170.43"></polygon>
            </g>
        </g>
    </g>
</svg>