<?xml version="1.0" encoding="UTF-8"?>
<svg width="598px" height="598px" viewBox="0 0 598 598" version="1.1" xmlns="http://www.w3.org/2000/svg" xmlns:xlink="http://www.w3.org/1999/xlink">
    <title>编组 2备份 8</title>
    <defs>
        <rect id="path-1" x="0" y="0" width="598" height="598"></rect>
        <linearGradient x1="19.0502502%" y1="81.867209%" x2="63.9512812%" y2="50%" id="linearGradient-3">
            <stop stop-color="#FEFEFE" stop-opacity="0.525295017" offset="0%"></stop>
            <stop stop-color="#E6E8EA" offset="100%"></stop>
            <stop stop-color="#E6E8EA" offset="100%"></stop>
        </linearGradient>
        <linearGradient x1="4.66371366%" y1="15.7172492%" x2="50%" y2="76.0532507%" id="linearGradient-4">
            <stop stop-color="#FEFEFE" stop-opacity="0.525295017" offset="0%"></stop>
            <stop stop-color="#E6E8EA" offset="100%"></stop>
            <stop stop-color="#E6E8EA" offset="100%"></stop>
        </linearGradient>
        <linearGradient x1="67.0229075%" y1="42.0770737%" x2="35.5076406%" y2="32.6074816%" id="linearGradient-5">
            <stop stop-color="#FEFEFE" stop-opacity="0.525295017" offset="0%"></stop>
            <stop stop-color="#E6E8EA" offset="100%"></stop>
            <stop stop-color="#E6E8EA" offset="100%"></stop>
        </linearGradient>
        <linearGradient x1="28.2009364%" y1="15.7172492%" x2="50%" y2="76.0532507%" id="linearGradient-6">
            <stop stop-color="#FEFEFE" stop-opacity="0.525295017" offset="0%"></stop>
            <stop stop-color="#E6E8EA" offset="100%"></stop>
            <stop stop-color="#E6E8EA" offset="100%"></stop>
        </linearGradient>
        <linearGradient x1="44.5028307%" y1="15.7172492%" x2="50%" y2="76.0532507%" id="linearGradient-7">
            <stop stop-color="#FEFEFE" stop-opacity="0.525295017" offset="0%"></stop>
            <stop stop-color="#E6E8EA" offset="100%"></stop>
            <stop stop-color="#E6E8EA" offset="100%"></stop>
        </linearGradient>
    </defs>
    <g id="图片/插画" stroke="none" stroke-width="1" fill="none" fill-rule="evenodd">
        <g id="解决方案-图片" transform="translate(-1322.000000, -3980.000000)">
            <g id="编组-2备份-8" transform="translate(1322.000000, 3980.000000)">
                <rect id="矩形" fill="#D8D8D8" opacity="0" x="0" y="0" width="598" height="598"></rect>
                <g id="形状结合备份-4">
                    <mask id="mask-2" fill="white">
                        <use xlink:href="#path-1"></use>
                    </mask>
                    <use id="蒙版" fill="#D8D8D8" opacity="0" xlink:href="#path-1"></use>
                    <path d="M593,290 L593,379.598177 L554.097997,402 L554.097,357.271 L482,398.917469 L482,354.11838 L554.097,312.472 L554.097997,312.401823 L593,290 Z" fill="url(#linearGradient-3)" mask="url(#mask-2)" transform="translate(537.500000, 346.000000) scale(-1, 1) rotate(-120.000000) translate(-537.500000, -346.000000) "></path>
                </g>
                <polygon id="多边形备份" fill="url(#linearGradient-4)" points="131.56 313.95 183.348319 343.85 183.348319 403.65 131.56 433.55 79.7716809 403.65 79.7716809 343.85"></polygon>
                <polygon id="多边形备份-3" fill="url(#linearGradient-4)" points="427.57 107.64 453.46416 122.59 453.46416 152.49 427.57 167.44 401.67584 152.49 401.67584 122.59"></polygon>
                <path d="M376.397667,306.479563 L376.397667,396.179563 L297.071068,441.495563 L297.07145,530.725 L219.381068,575.579563 L219.381068,396.179563 L297.07145,351.325 L297.071068,351.796563 L376.397667,306.479563 Z" id="形状结合备份-2" fill="url(#linearGradient-5)" transform="translate(297.889368, 441.029563) scale(-1, 1) rotate(-120.000000) translate(-297.889368, -441.029563) "></path>
                <g id="编组-5" transform="translate(218.270000, 119.600000)">
                    <path d="M161.46,46.5573073 L161.46,239.787282 L161.352,239.786307 L103.182678,273.389428 C89.3052687,281.405874 72.2049094,281.408238 58.3252844,273.395629 L0.107,239.786307 L0,239.787282 L0,46.5573073 L161.46,46.5573073 Z" id="形状结合" fill="url(#linearGradient-6)"></path>
                    <path d="M0,46.4948848 L80.7042283,0 L161.46,46.4948848 L103.182678,80.1594532 C89.3052687,88.1758988 72.2049094,88.1782629 58.3252844,80.1656546 L0,46.4948848 L0,46.4948848 Z" id="路径-6备份-2" fill="#FFFFFF"></path>
                </g>
                <polygon id="矩形备份-2" fill="url(#linearGradient-7)" transform="translate(422.500000, 297.000000) scale(-1, 1) translate(-422.500000, -297.000000) " points="403 263.401823 442 241 442 330.598177 403 353"></polygon>
                <polygon id="矩形备份-12" fill="url(#linearGradient-7)" points="446 263.401823 485 241 485 330.598177 446 353"></polygon>
                <path d="M406,236.469833 C430.132298,222.56158 459.845166,222.557477 483.981304,236.459065 L484,236.469833 L484,236.469833 L445.01245,259 L406,236.469833 Z" id="路径-6" fill="#FFFFFF"></path>
            </g>
        </g>
    </g>
</svg>