<?xml version="1.0" encoding="UTF-8"?>
<svg width="598px" height="598px" viewBox="0 0 598 598" version="1.1" xmlns="http://www.w3.org/2000/svg" xmlns:xlink="http://www.w3.org/1999/xlink">
    <title>编组 2备份 5</title>
    <defs>
        <rect id="path-1" x="0" y="0" width="598" height="598"></rect>
        <linearGradient x1="19.2106028%" y1="81.867209%" x2="63.8789987%" y2="50%" id="linearGradient-3">
            <stop stop-color="#FEFEFE" stop-opacity="0.525295017" offset="0%"></stop>
            <stop stop-color="#E6E8EA" offset="100%"></stop>
            <stop stop-color="#E6E8EA" offset="100%"></stop>
        </linearGradient>
        <linearGradient x1="4.66371366%" y1="15.7172492%" x2="50%" y2="76.0532507%" id="linearGradient-4">
            <stop stop-color="#FEFEFE" stop-opacity="0.525295017" offset="0%"></stop>
            <stop stop-color="#E6E8EA" offset="100%"></stop>
            <stop stop-color="#E6E8EA" offset="100%"></stop>
        </linearGradient>
        <linearGradient x1="67.0229075%" y1="42.0770737%" x2="35.5076406%" y2="32.6074816%" id="linearGradient-5">
            <stop stop-color="#FEFEFE" stop-opacity="0.525295017" offset="0%"></stop>
            <stop stop-color="#E6E8EA" offset="100%"></stop>
            <stop stop-color="#E6E8EA" offset="100%"></stop>
        </linearGradient>
        <linearGradient x1="4.66371366%" y1="18.7140164%" x2="50%" y2="73.775851%" id="linearGradient-6">
            <stop stop-color="#FEFEFE" stop-opacity="0.525295017" offset="0%"></stop>
            <stop stop-color="#E6E8EA" offset="100%"></stop>
            <stop stop-color="#E6E8EA" offset="100%"></stop>
        </linearGradient>
        <linearGradient x1="7.12351506%" y1="50%" x2="107.828049%" y2="50%" id="linearGradient-7">
            <stop stop-color="#FEFEFE" stop-opacity="0.525295017" offset="0%"></stop>
            <stop stop-color="#E6E8EA" offset="100%"></stop>
            <stop stop-color="#E6E8EA" offset="100%"></stop>
        </linearGradient>
        <linearGradient x1="4.66371366%" y1="26.7916911%" x2="50%" y2="67.6372046%" id="linearGradient-8">
            <stop stop-color="#FEFEFE" stop-opacity="0.525295017" offset="0%"></stop>
            <stop stop-color="#E6E8EA" offset="100%"></stop>
            <stop stop-color="#E6E8EA" offset="100%"></stop>
        </linearGradient>
        <radialGradient cx="38.1432597%" cy="86.450672%" fx="38.1432597%" fy="86.450672%" r="144.699898%" gradientTransform="translate(0.381433,0.864507),scale(1.000000,0.812500),rotate(-80.595513),translate(-0.381433,-0.864507)" id="radialGradient-9">
            <stop stop-color="#FFFFFF" offset="0%"></stop>
            <stop stop-color="#F3F4F5" offset="100%"></stop>
        </radialGradient>
    </defs>
    <g id="图片/插画" stroke="none" stroke-width="1" fill="none" fill-rule="evenodd">
        <g id="解决方案-图片" transform="translate(-1322.000000, -2530.000000)">
            <g id="编组-2备份-5" transform="translate(1322.000000, 2530.000000)">
                <rect id="矩形" fill="#D8D8D8" opacity="0" x="0" y="0" width="598" height="598"></rect>
                <g id="形状结合备份-4">
                    <mask id="mask-2" fill="white">
                        <use xlink:href="#path-1"></use>
                    </mask>
                    <use id="蒙版" fill="#D8D8D8" opacity="0" xlink:href="#path-1"></use>
                    <path d="M648.191109,233.561892 L648.191109,412.961892 L570.500727,457.816455 L570.500319,368.254892 L426.515319,451.644386 L426.515319,361.944386 L570.500319,278.555892 L570.500727,278.416455 L648.191109,233.561892 Z" fill="url(#linearGradient-3)" mask="url(#mask-2)" transform="translate(537.353214, 345.689173) scale(-1, 1) rotate(-120.000000) translate(-537.353214, -345.689173) "></path>
                </g>
                <polygon id="多边形备份" fill="url(#linearGradient-4)" points="131.56 313.95 183.348319 343.85 183.348319 403.65 131.56 433.55 79.7716809 403.65 79.7716809 343.85"></polygon>
                <polygon id="多边形备份-3" fill="url(#linearGradient-4)" points="427.57 107.64 453.46416 122.59 453.46416 152.49 427.57 167.44 401.67584 152.49 401.67584 122.59"></polygon>
                <path d="M376.397667,306.479563 L376.397667,396.179563 L297.071068,441.495563 L297.07145,530.725 L219.381068,575.579563 L219.381068,396.179563 L297.07145,351.325 L297.071068,351.796563 L376.397667,306.479563 Z" id="形状结合备份-2" fill="url(#linearGradient-5)" transform="translate(297.889368, 441.029563) scale(-1, 1) rotate(-120.000000) translate(-297.889368, -441.029563) "></path>
                <g id="编组-7" transform="translate(176.410000, 203.320000)">
                    <polygon id="矩形备份-2" fill="url(#linearGradient-6)" points="134.589884 146.819223 251.16 80.0012608 251.16 124.542038 134.589884 191.36"></polygon>
                    <polygon id="矩形备份-2" fill="url(#linearGradient-6)" transform="translate(58.285058, 135.680630) scale(-1, 1) translate(-58.285058, -135.680630) " points="1.95876015e-13 146.819223 116.570116 80.0012608 116.570116 124.542038 1.46303211e-12 191.36"></polygon>
                    <polygon id="路径-6" fill="url(#linearGradient-7)" points="8.97265892 66.6390278 125.542775 1.37680255e-15 242.187341 66.6390278 125.617225 133.45699"></polygon>
                </g>
                <g id="编组-5" transform="translate(218.270000, 119.600000)">
                    <path d="M161.46,46.5573073 L161.46,139.787282 L161.352,139.786307 L103.182678,173.389428 C89.3052687,181.405874 72.2049094,181.408238 58.3252844,173.395629 L0.107,139.786307 L0,139.787282 L0,46.5573073 L161.46,46.5573073 Z" id="形状结合" fill="url(#linearGradient-8)"></path>
                    <polygon id="Fill-1" fill="url(#radialGradient-9)" points="147.053678 83.72 128.83932 120.276007 120.050699 96.3529684 113.62 102.186374 124.409283 131.56 130.339816 129.007885 152.49 84.5342462"></polygon>
                    <path d="M0,46.4948848 L80.7042283,0 L161.46,46.4948848 L103.182678,80.1594532 C89.3052687,88.1758988 72.2049094,88.1782629 58.3252844,80.1656546 L0,46.4948848 L0,46.4948848 Z" id="路径-6备份-2" fill="#FFFFFF"></path>
                </g>
            </g>
        </g>
    </g>
</svg>